<?xml version="1.0" standalone="no"?>
<!DOCTYPE svg PUBLIC "-//W3C//DTD SVG 20010904//EN"
 "http://www.w3.org/TR/2001/REC-SVG-20010904/DTD/svg10.dtd">
<svg version="1.0" xmlns="http://www.w3.org/2000/svg"
 width="260.000000pt" height="260.000000pt" viewBox="0 0 260.000000 260.000000"
 preserveAspectRatio="xMidYMid meet">
<metadata>
Created by potrace 1.11, written by Peter Selinger 2001-2013
</metadata>
<g transform="translate(0.000000,260.000000) scale(0.100000,-0.100000)"
fill="#000000" stroke="none">
<path d="M1302 2351 c-5 -3 -8 -16 -7 -28 1 -12 -3 -19 -10 -17 -7 3 -18 -3
-26 -12 -9 -12 -10 -15 -1 -10 11 7 17 -10 13 -41 -1 -7 3 -13 8 -13 5 0 4
-12 -4 -27 -10 -18 -11 -32 -4 -45 5 -10 6 -18 2 -17 -24 4 -25 -4 -3 -17 24
-15 24 -15 2 -10 -18 3 -21 2 -12 -8 5 -8 8 -32 6 -54 -3 -30 0 -39 9 -36 7 3
16 0 20 -5 3 -6 10 -9 15 -6 5 3 12 0 16 -6 4 -7 3 -9 -4 -5 -6 3 -13 2 -16
-3 -3 -4 4 -8 17 -7 12 0 26 7 30 14 4 6 15 12 24 12 13 0 14 2 2 17 -8 9 -9
14 -3 10 7 -4 14 0 18 8 3 8 1 17 -5 21 -6 4 -6 11 2 20 6 8 9 17 5 21 -3 3
-6 1 -6 -5 0 -7 -4 -12 -8 -12 -4 0 -8 9 -8 20 0 11 5 19 11 17 5 -3 10 6 10
18 0 16 -4 20 -11 14 -16 -13 -11 26 5 45 12 14 11 16 -5 10 -16 -6 -17 -5 -6
7 14 16 16 33 2 24 -6 -3 -7 1 -4 9 3 9 9 14 14 11 4 -2 5 7 2 21 -4 21 -7 23
-20 12 -13 -11 -14 -10 -3 10 9 18 9 22 -1 20 -7 -2 -12 2 -11 9 2 8 -4 10
-14 6 -10 -4 -14 -2 -10 4 7 10 -16 13 -31 4z m35 -27 c-3 -3 -12 -4 -19 -1
-8 3 -5 6 6 6 11 1 17 -2 13 -5z"/>
<path d="M840 2313 c0 -7 -5 -12 -11 -10 -6 1 -14 -4 -17 -12 -3 -8 0 -11 7
-7 6 4 11 2 11 -4 0 -6 -8 -9 -17 -6 -10 3 -25 1 -33 -5 -12 -9 -12 -10 4 -5
16 6 17 4 5 -10 -11 -14 -11 -18 4 -29 20 -14 23 -29 5 -20 -7 4 -2 -3 12 -14
14 -11 29 -21 33 -21 5 0 5 -4 2 -10 -3 -5 -1 -10 6 -10 7 0 4 -7 -7 -15 -18
-13 -18 -14 5 -8 18 5 22 3 16 -7 -6 -10 -4 -12 10 -6 15 5 16 4 6 -8 -9 -11
-9 -16 0 -22 8 -5 10 -3 5 7 -4 8 -1 5 8 -6 8 -11 25 -31 38 -44 19 -20 19
-22 3 -11 -11 7 -3 -3 18 -23 21 -20 38 -40 38 -44 1 -4 3 -10 6 -13 4 -3 3 1
-1 8 -9 15 10 16 19 2 5 -8 11 -7 21 1 7 6 11 15 9 20 -3 4 7 6 22 3 24 -3 25
-3 10 7 -18 10 -18 11 0 26 10 8 12 11 4 7 -11 -5 -13 -3 -8 9 3 10 2 17 -4
17 -6 0 -7 5 -4 10 3 6 -1 10 -10 10 -16 0 -39 45 -30 60 3 4 -3 6 -14 3 -11
-3 -21 2 -25 12 -4 11 -2 14 7 10 6 -4 4 0 -5 8 -10 8 -15 17 -11 21 4 4 -1 4
-11 0 -13 -5 -17 -4 -12 4 3 6 1 14 -5 17 -5 4 -8 14 -5 22 3 8 1 11 -4 8 -6
-3 -10 -1 -10 5 0 6 -4 8 -10 5 -5 -3 -10 1 -10 10 0 9 -4 14 -9 11 -5 -3 -12
1 -15 10 -4 10 -2 13 7 9 6 -4 4 0 -5 8 -10 8 -14 18 -10 22 4 5 2 5 -5 1 -7
-4 -10 -14 -7 -24 3 -9 -2 -6 -10 8 -8 14 -15 19 -16 13z"/>
<path d="M1800 2310 c-1 -8 -2 -19 -1 -23 1 -4 -8 -3 -20 4 -15 8 -19 8 -15 0
8 -12 -17 -55 -26 -46 -3 3 -11 -2 -19 -12 -9 -11 -10 -14 -2 -9 9 5 11 2 7
-8 -3 -9 -12 -12 -22 -8 -15 5 -16 4 -2 -13 8 -10 10 -16 4 -12 -14 8 -37 -16
-26 -28 4 -5 -2 -5 -12 -1 -17 6 -17 5 -5 -11 8 -9 9 -14 3 -10 -12 7 -29 -19
-25 -37 1 -5 -6 -3 -16 4 -10 8 -15 10 -11 6 4 -5 2 -16 -5 -24 -10 -13 -9
-15 3 -8 9 4 8 1 -2 -7 -20 -16 -25 -32 -6 -21 7 5 8 3 4 -5 -5 -7 -14 -10
-21 -7 -14 5 -14 -18 0 -31 4 -4 5 -2 0 6 -6 10 -4 12 4 7 9 -6 9 -11 1 -21
-9 -11 -8 -13 8 -10 12 2 27 -4 34 -13 12 -15 11 -16 -4 -3 -12 9 -18 10 -18
2 0 -6 3 -11 8 -12 4 0 15 -2 25 -4 9 -2 15 1 11 6 -5 8 18 14 40 10 5 -1 4 4
-2 12 -9 11 -6 19 13 37 13 13 22 27 18 33 -4 6 -1 7 6 2 9 -5 5 -16 -16 -38
-15 -17 -19 -25 -8 -17 27 20 44 43 39 52 -3 5 0 8 5 8 6 0 10 4 9 9 -2 5 5
16 15 23 10 7 20 22 22 33 2 11 4 22 4 25 1 3 6 -2 11 -10 8 -13 10 -12 10 3
0 12 4 16 13 11 9 -6 9 -4 -1 8 -13 17 -1 35 17 24 4 -3 7 6 5 19 -1 16 2 23
8 18 7 -4 9 1 6 15 -4 16 -2 19 10 15 10 -4 13 -2 8 5 -4 7 -12 12 -17 12 -15
0 -39 26 -39 42 0 10 -2 10 -9 -1 -7 -11 -9 -11 -14 0 -4 11 -6 11 -7 -1z"/>
<path d="M1250 2260 c0 -5 5 -10 11 -10 5 0 7 5 4 10 -3 6 -8 10 -11 10 -2 0
-4 -4 -4 -10z"/>
<path d="M1253 2225 c0 -8 4 -15 9 -15 4 0 8 4 8 9 0 6 -4 12 -8 15 -5 3 -9
-1 -9 -9z"/>
<path d="M715 1940 c-3 -5 -3 -15 1 -21 4 -7 -2 -6 -17 2 -22 11 -23 11 -10
-5 12 -14 12 -16 -4 -10 -12 5 -16 4 -11 -4 3 -6 2 -13 -3 -17 -7 -4 -6 -15 1
-31 11 -23 9 -28 -7 -41 -19 -14 -19 -15 5 -8 14 3 21 3 15 -2 -5 -4 -11 -19
-13 -33 -2 -20 -1 -22 7 -10 6 8 11 10 11 4 0 -6 -3 -14 -7 -18 -11 -11 -10
-30 2 -38 6 -5 6 -8 -2 -8 -7 0 -13 -7 -13 -15 0 -8 6 -15 13 -15 6 0 1 -6
-13 -13 -15 -8 -28 -9 -31 -4 -4 5 -9 4 -13 -2 -4 -6 -2 -11 5 -11 7 0 10 -3
6 -6 -3 -3 -11 -3 -17 1 -8 5 -8 11 1 21 6 7 15 12 19 9 5 -3 12 0 16 6 4 7 3
9 -4 5 -6 -3 -13 -2 -16 3 -3 5 3 11 14 14 23 6 17 37 -7 37 -8 0 -12 4 -9 9
4 5 0 12 -6 14 -10 4 -10 6 0 6 6 1 12 6 12 12 0 5 -6 7 -12 3 -10 -6 -10 -5
-1 7 10 12 10 18 0 29 -8 9 -9 11 0 6 6 -3 15 -1 19 5 4 7 3 9 -3 6 -6 -4 -23
5 -39 18 -33 28 -77 35 -68 10 5 -11 2 -13 -10 -9 -13 5 -15 2 -9 -12 5 -16 4
-17 -8 -7 -11 9 -14 7 -15 -13 -1 -15 2 -21 10 -17 7 4 6 1 -1 -9 -7 -8 -10
-17 -7 -20 15 -15 13 -58 -3 -67 -17 -10 -16 -10 2 -11 17 0 17 -2 5 -10 -10
-6 -11 -10 -2 -10 6 0 12 -5 12 -11 0 -6 -6 -9 -14 -6 -11 5 -13 0 -5 -25 9
-33 3 -73 -14 -98 -9 -12 -9 -13 3 -2 8 6 17 12 21 12 9 0 5 -27 -6 -37 -4 -4
-5 -2 0 6 5 9 4 12 -3 8 -5 -4 -8 -16 -5 -27 3 -12 0 -20 -6 -20 -7 0 -9 5 -5
12 5 7 3 8 -6 3 -9 -6 -10 -2 -5 15 5 15 3 20 -3 16 -6 -3 -14 -1 -18 5 -4 7
-3 9 4 5 6 -3 14 3 17 15 4 13 2 25 -5 29 -9 6 -6 10 9 15 12 3 18 11 15 17
-4 6 -9 5 -15 -3 -7 -12 -10 -12 -21 0 -7 8 -8 11 -2 8 7 -4 15 0 18 9 9 23 8
26 -6 18 -10 -6 -10 -4 0 7 14 16 16 33 2 24 -5 -3 -10 3 -10 15 0 12 -4 18
-10 15 -5 -3 -10 -2 -10 4 0 5 5 11 12 13 7 3 5 7 -6 11 -10 4 -15 3 -11 -3 3
-6 1 -10 -4 -10 -6 0 -11 5 -11 11 0 8 -6 7 -17 -2 -14 -12 -16 -12 -9 0 6 9
4 12 -5 9 -8 -3 -14 -10 -14 -15 0 -17 -15 -28 -16 -12 -1 8 -1 18 0 22 1 5
-3 6 -8 3 -5 -3 -7 -15 -4 -26 4 -15 0 -20 -13 -21 -11 0 -14 -3 -6 -6 6 -2
12 -9 12 -14 0 -6 -4 -7 -10 -4 -6 4 -7 -2 -1 -18 7 -17 6 -29 -2 -37 -9 -9
-9 -11 -1 -7 7 4 14 1 17 -7 4 -10 -1 -12 -16 -9 -22 5 -22 5 -2 -10 11 -9 15
-17 9 -17 -6 0 -11 -7 -11 -15 0 -10 6 -14 16 -10 11 3 10 0 -3 -10 -12 -9
-15 -15 -7 -15 11 0 11 -3 0 -17 -8 -9 -9 -14 -3 -10 12 7 13 -31 1 -50 -8
-12 -2 -17 16 -14 5 1 6 -3 2 -9 -3 -6 -10 -8 -15 -5 -5 3 -12 1 -15 -5 -4 -6
-1 -9 6 -8 14 4 20 -50 6 -59 -5 -3 -3 -9 4 -14 11 -7 11 -9 -1 -9 -13 0 -13
-1 0 -10 13 -9 13 -10 0 -10 -13 0 -13 -2 -1 -9 12 -8 12 -12 2 -25 -11 -13
-11 -16 0 -17 8 0 5 -4 -6 -9 l-20 -9 20 0 c17 -1 17 -3 5 -11 -13 -9 -13 -10
0 -10 13 0 13 -1 0 -10 -13 -9 -13 -10 0 -10 12 0 13 -2 1 -9 -11 -7 -11 -9 0
-13 12 -4 12 -7 0 -21 -11 -14 -11 -17 0 -18 8 0 5 -4 -6 -9 -18 -8 -18 -9 -2
-9 12 -1 16 -5 10 -13 -11 -19 -13 -39 -2 -32 5 3 9 0 9 -5 0 -6 -4 -11 -10
-11 -5 0 -10 -5 -10 -11 0 -6 7 -8 16 -5 10 4 13 2 8 -6 -9 -14 -11 -78 -3
-72 3 2 15 -4 25 -12 10 -9 13 -13 7 -9 -22 11 -14 -24 8 -35 15 -9 18 -15 9
-25 -8 -10 -8 -15 1 -21 8 -5 9 -3 4 6 -6 9 -4 11 4 6 7 -5 10 -14 7 -21 -3
-9 2 -12 15 -10 17 4 19 2 9 -10 -9 -11 -9 -15 -1 -16 32 -4 36 -6 33 -19 -2
-7 3 -17 10 -21 14 -9 20 -59 6 -59 -16 0 -8 -20 10 -21 13 0 12 -2 -5 -9 -13
-5 -23 -15 -23 -22 0 -9 3 -9 10 2 9 13 10 13 11 0 0 -8 2 -23 4 -33 3 -14 -1
-17 -13 -12 -13 5 -12 1 4 -16 10 -12 13 -19 7 -15 -7 4 -13 3 -13 -3 0 -5 6
-12 13 -14 9 -4 9 -6 -1 -6 -7 -1 -11 -5 -8 -9 3 -5 7 -21 10 -36 4 -23 2 -27
-11 -21 -14 5 -13 2 3 -16 10 -12 13 -19 7 -15 -7 4 -13 3 -13 -3 0 -5 6 -12
13 -14 9 -4 9 -6 -1 -6 -7 -1 -10 -5 -7 -11 11 -18 14 -51 4 -45 -5 4 -6 11
-3 17 4 7 2 8 -4 4 -15 -9 -3 -36 17 -37 13 0 13 -2 -3 -8 -18 -7 -18 -8 0
-26 16 -16 16 -18 2 -13 -24 10 -30 -2 -10 -21 10 -9 13 -12 6 -8 -7 5 -15 3
-20 -4 -4 -8 -3 -9 4 -5 11 7 17 -6 13 -28 -1 -5 6 -3 15 5 12 9 15 9 10 2 -5
-10 10 -13 63 -13 50 0 71 4 71 13 0 8 4 7 10 -3 9 -13 11 -13 20 0 7 10 10
11 10 2 0 -9 16 -12 55 -11 36 1 52 6 48 13 -3 6 0 5 8 -1 7 -7 24 -13 37 -13
16 0 21 4 16 13 -6 9 -5 9 8 -1 16 -13 68 -13 68 0 0 4 5 8 11 8 5 0 7 -5 3
-12 -4 -6 -3 -8 3 -5 11 7 9 79 -2 98 -5 7 -4 10 3 5 6 -3 13 -2 17 4 3 5 -1
10 -9 10 -10 0 -13 6 -10 15 4 8 1 22 -6 30 -7 8 -8 15 -3 15 6 0 15 -10 22
-23 9 -16 10 -17 5 -2 -4 11 -7 29 -8 40 0 11 -7 24 -14 28 -10 7 -11 12 -1
24 10 12 10 17 -2 25 -10 7 -8 8 11 4 l25 -5 -25 21 c-22 19 -23 21 -5 16 16
-4 21 0 22 16 1 12 -1 15 -4 9 -10 -27 -21 -11 -13 18 7 23 6 31 -6 36 -13 5
-13 7 -2 14 11 7 10 11 -2 20 -12 9 -11 10 7 6 18 -4 21 -1 17 19 -3 16 2 27
18 36 13 7 26 12 30 13 3 0 10 4 15 9 5 5 3 6 -5 2 -18 -11 -15 9 5 25 9 8 14
9 10 3 -3 -6 0 -11 7 -11 8 0 12 6 9 14 -3 7 0 13 7 13 7 0 10 7 7 14 -4 10
-1 13 9 9 9 -3 14 1 14 12 0 9 4 14 9 11 5 -3 11 8 15 24 3 17 10 30 16 30 6
0 8 -5 4 -12 -4 -7 -3 -8 5 -4 9 6 9 11 -1 24 -11 13 -10 15 5 9 13 -5 16 -3
10 6 -13 20 -12 36 2 31 9 -4 13 2 11 21 -3 20 0 25 13 20 8 -3 12 -3 8 1 -4
4 -2 13 5 21 6 8 7 13 2 12 -21 -4 -26 2 -13 17 10 13 10 17 -2 25 -8 5 -9 9
-2 9 6 0 10 11 8 26 -2 17 2 24 11 20 8 -3 11 0 7 9 -3 8 -9 12 -14 9 -5 -3
-6 2 -3 11 4 9 13 14 20 11 8 -3 11 0 7 11 -3 8 0 19 8 24 8 5 9 9 3 9 -7 0
-14 7 -18 15 -5 13 -2 14 15 4 19 -10 20 -9 9 10 -7 15 -7 21 0 21 7 0 7 7 -1
21 -7 13 -7 19 -1 15 6 -3 13 -2 17 4 3 5 0 10 -7 10 -8 0 -6 5 5 11 14 8 16
14 6 25 -7 9 -8 14 -1 14 6 0 9 9 7 21 -4 17 -2 19 11 8 12 -10 13 -9 8 6 -4
10 -1 21 7 26 12 7 12 9 0 9 -11 0 -11 3 0 17 10 11 10 14 2 9 -7 -4 -13 -3
-13 3 0 5 5 13 11 16 7 5 5 13 -5 24 -9 10 -13 21 -9 26 5 4 3 5 -4 2 -6 -4
-14 -1 -17 5 -3 7 -3 2 0 -12 l5 -25 -13 23 c-10 16 -17 19 -25 11 -8 -8 -13
-7 -18 2 -6 8 -4 10 5 4 9 -5 11 -4 6 4 -10 16 -39 -7 -32 -25 3 -8 -2 -11
-14 -9 -11 2 -23 -1 -26 -7 -4 -7 -2 -8 4 -4 7 4 12 3 12 -3 0 -5 -8 -15 -17
-20 -14 -8 -15 -10 -3 -11 13 0 13 -1 0 -10 -8 -5 -11 -10 -6 -10 4 0 0 -8
-11 -17 -10 -10 -13 -14 -6 -9 18 12 16 1 -4 -19 -13 -13 -14 -21 -5 -35 9
-15 8 -17 -9 -13 -11 3 -19 0 -19 -6 0 -7 5 -9 12 -5 7 4 8 3 4 -4 -4 -7 -14
-12 -22 -12 -8 0 -12 -5 -9 -10 4 -6 12 -8 18 -4 7 3 4 -1 -7 -10 -10 -9 -15
-20 -10 -27 5 -9 2 -10 -9 -6 -9 3 -19 2 -22 -3 -4 -6 -14 -10 -23 -9 -11 0
-12 3 -4 6 6 2 12 11 12 19 0 9 -5 12 -12 8 -7 -5 -8 -3 -2 7 14 23 15 51 2
67 -8 10 -9 13 -2 9 7 -4 15 0 18 9 3 8 2 13 -3 10 -5 -3 -12 1 -15 10 -3 8
-2 12 4 9 6 -3 11 0 11 7 1 7 2 20 3 28 1 8 -5 24 -14 34 -8 11 -10 16 -4 13
7 -4 15 0 18 9 3 8 2 13 -3 10 -5 -3 -11 1 -15 9 -3 8 0 17 6 21 7 5 8 2 3 -7
-5 -8 -5 -11 0 -7 13 12 12 68 -1 57 -13 -10 -12 26 1 38 4 5 5 1 0 -7 -5 -8
-4 -12 0 -7 11 10 14 48 3 41 -4 -3 -8 2 -8 11 0 10 5 13 13 9 6 -4 3 3 -7 15
-17 19 -17 21 -3 15 15 -5 16 -3 7 21 -12 32 -13 38 -2 31 5 -3 9 1 9 9 0 8
-4 12 -9 9 -13 -8 -10 10 5 25 8 10 8 12 0 7 -6 -3 -14 -2 -18 4 -3 5 1 10 9
10 20 0 20 14 1 30 -11 9 -13 16 -5 24 16 16 12 25 -11 21 -16 -3 -18 -1 -10
9 9 10 8 15 -4 20 -9 3 -13 2 -10 -3 3 -5 1 -13 -5 -16 -6 -4 -9 -1 -8 7 2 7
-5 12 -14 12 -10 -1 -16 2 -13 5 2 4 -2 8 -9 8 -8 0 -12 -6 -9 -13 5 -12 -24
-33 -41 -31 -5 1 -10 -6 -12 -15 -1 -10 2 -18 8 -18 6 0 7 7 4 16 -3 9 -2 12
5 9 5 -4 7 -15 4 -26 -12 -37 -13 -89 -2 -82 5 3 7 2 4 -3 -3 -6 -2 -16 3 -24
5 -9 5 -19 -1 -26 -6 -7 -8 -35 -6 -63 4 -44 2 -49 -14 -48 -11 1 -19 5 -19
10 0 5 -8 3 -17 -4 -16 -13 -17 -12 -4 3 7 10 11 27 8 38 -3 11 -1 20 4 20 5
0 9 -4 9 -10 0 -5 5 -10 10 -10 7 0 7 7 0 20 -6 11 -14 19 -18 16 -4 -2 -8 4
-8 14 0 10 4 16 8 14 15 -10 8 15 -9 32 -16 16 -16 17 -1 12 24 -10 30 3 10
19 -15 13 -15 14 0 9 9 -2 19 1 22 9 3 10 0 12 -11 8 -12 -5 -14 -3 -8 7 6 10
4 12 -9 7 -11 -4 -15 -3 -11 4 4 6 14 8 22 5 9 -4 13 -1 10 6 -2 7 -9 12 -14
11 -5 -1 -9 7 -9 17 0 10 4 16 8 14 14 -9 8 13 -7 26 -8 6 -14 15 -13 18 0 4
0 14 -1 22 -1 13 -2 13 -11 0 -8 -13 -10 -12 -10 3 0 10 -5 15 -10 12 -6 -4
-8 -11 -4 -16 3 -6 -3 -5 -14 2 -12 7 -18 17 -16 21 3 4 3 8 0 8 -3 0 -8 -4
-11 -10z m-25 -60 c0 -5 -5 -10 -11 -10 -5 0 -7 5 -4 10 3 6 8 10 11 10 2 0 4
-4 4 -10z m-35 -170 c3 -5 -1 -10 -9 -10 -9 0 -16 5 -16 10 0 6 4 10 9 10 6 0
13 -4 16 -10z m26 -81 c-2 -8 -4 -30 -5 -51 -1 -20 -4 -34 -7 -32 -4 2 -3 -12
1 -31 4 -19 5 -35 1 -35 -3 0 1 -5 9 -10 11 -7 11 -10 2 -10 -9 0 -10 -5 -3
-18 7 -13 6 -27 -4 -45 -7 -14 -10 -29 -7 -33 4 -5 -1 -2 -10 5 -9 7 -23 9
-29 5 -8 -5 -9 -3 -5 5 5 7 14 10 22 7 7 -3 16 0 20 6 4 6 3 8 -2 5 -6 -3 -16
-2 -24 3 -12 7 -12 11 1 26 9 11 9 15 2 10 -7 -4 -13 -2 -13 3 0 15 27 14 33
-1 2 -7 4 1 3 19 0 17 -4 29 -9 26 -4 -2 -5 -9 -2 -14 4 -5 -1 -9 -9 -9 -8 0
-14 8 -13 19 0 11 4 18 8 15 4 -2 11 1 15 8 4 7 4 10 -1 6 -4 -4 -17 -2 -28 4
l-21 11 22 18 c15 12 18 19 10 22 -8 3 -6 6 5 6 9 1 17 5 17 11 0 5 -7 7 -15
4 -8 -4 -15 -1 -15 6 0 7 8 10 18 8 11 -3 19 0 19 7 0 7 -9 10 -21 7 -21 -5
-21 -5 -2 17 21 23 44 23 37 0z m155 -73 c-5 -21 -5 -21 9 -2 8 11 15 15 15 9
0 -7 -5 -15 -10 -18 -6 -4 -7 -13 -1 -24 6 -10 6 -23 1 -31 -11 -17 -3 -33 12
-24 7 4 8 2 4 -5 -4 -6 -11 -9 -16 -6 -11 7 -40 -5 -40 -16 0 -5 11 -14 24
-19 18 -7 23 -14 19 -29 -3 -12 -10 -21 -15 -21 -5 0 -7 4 -4 8 2 4 0 14 -6
22 -8 12 -9 12 -4 -2 3 -10 1 -18 -4 -18 -6 0 -10 12 -10 26 0 16 -4 23 -11
18 -8 -4 -8 0 0 15 7 12 9 26 6 31 -3 6 1 7 10 4 11 -5 14 -2 8 12 -4 11 -3
15 5 10 6 -3 13 -2 16 3 7 10 -20 9 -30 -2 -4 -4 -12 -7 -18 -7 -8 0 -7 3 0 8
6 4 15 23 18 42 5 26 4 31 -3 20 -6 -8 -11 -10 -11 -4 0 15 7 21 26 21 11 0
14 -7 10 -21z m-342 -107 c-14 -15 -18 -16 -30 -4 -20 19 -18 22 16 22 28 0
29 -1 14 -18z m361 -9 c3 -5 -3 -10 -15 -10 -12 0 -18 5 -15 10 3 6 10 10 15
10 5 0 12 -4 15 -10z m-369 -9 c10 8 13 6 12 -8 0 -10 2 -28 5 -40 5 -18 2
-21 -19 -17 -22 4 -23 2 -12 -9 7 -8 20 -12 28 -9 17 6 14 3 -15 -18 -11 -8
-17 -10 -13 -6 4 5 2 16 -4 24 -15 17 -18 96 -4 82 6 -6 14 -6 22 1z m533
-212 c-22 -13 -31 -11 -17 5 7 8 17 12 22 9 4 -3 2 -9 -5 -14z m171 -33 c0 -3
-4 -8 -10 -11 -5 -3 -10 -1 -10 4 0 6 5 11 10 11 6 0 10 -2 10 -4z m-255 -506
c3 -5 1 -10 -4 -10 -6 0 -11 5 -11 10 0 6 2 10 4 10 3 0 8 -4 11 -10z m-25
-414 c0 -3 -4 -8 -10 -11 -5 -3 -10 -1 -10 4 0 6 5 11 10 11 6 0 10 -2 10 -4z"/>
<path d="M625 1530 c-3 -5 1 -10 9 -10 9 0 16 5 16 10 0 6 -4 10 -9 10 -6 0
-13 -4 -16 -10z"/>
<path d="M660 1420 c-9 -6 -10 -10 -3 -10 6 0 15 5 18 10 8 12 4 12 -15 0z"/>
<path d="M466 1398 c3 -5 10 -6 15 -3 13 9 11 12 -6 12 -8 0 -12 -4 -9 -9z"/>
<path d="M1887 1942 c-9 -2 -15 -8 -12 -13 4 -5 1 -9 -5 -9 -6 0 -8 -5 -4 -12
5 -8 2 -9 -10 -5 -9 4 -14 3 -11 -2 3 -5 0 -13 -5 -16 -8 -5 -6 -13 5 -25 10
-11 15 -25 12 -32 -4 -9 -6 -8 -6 3 -1 9 -7 19 -15 22 -19 7 -8 -34 13 -50 12
-9 12 -12 3 -13 -7 0 -10 -5 -6 -12 4 -7 3 -8 -4 -4 -20 12 -14 -22 6 -34 16
-11 16 -11 -2 -6 -15 5 -18 2 -14 -19 4 -17 1 -25 -8 -25 -8 0 -14 -4 -14 -9
0 -5 12 -8 28 -6 15 2 21 2 14 -1 -10 -5 -10 -9 -1 -21 7 -8 8 -13 3 -12 -21
4 -28 -2 -14 -12 13 -9 12 -10 -2 -5 -10 3 -17 2 -17 -2 4 -22 -2 -32 -13 -26
-9 5 -9 3 1 -9 7 -9 17 -15 21 -12 4 3 13 -2 20 -10 8 -9 8 -15 2 -15 -6 0
-13 6 -15 13 -4 7 -6 6 -6 -5 -1 -9 5 -19 12 -22 6 -3 3 -4 -8 -3 -14 2 -19 9
-17 22 2 16 1 17 -7 5 -5 -8 -7 -18 -5 -22 3 -4 1 -8 -4 -8 -12 0 -10 73 1 81
14 10 -2 31 -16 22 -7 -3 -4 3 6 14 13 15 15 23 6 28 -8 6 -8 10 3 16 19 11
16 54 -4 53 -8 -1 -15 4 -15 11 0 7 6 11 13 8 6 -2 15 1 19 7 3 6 1 9 -6 8 -7
-2 -13 9 -14 25 -1 15 2 27 8 27 5 0 6 -8 2 -17 -5 -15 -4 -16 6 -5 10 9 10
15 2 23 -6 6 -10 17 -9 23 2 6 1 8 -1 4 -3 -5 -9 -8 -14 -8 -6 0 -7 5 -4 10 3
6 1 10 -6 10 -6 0 -9 8 -6 20 3 11 1 17 -4 14 -6 -3 -17 0 -26 8 -9 7 -14 8
-10 2 4 -7 -1 -18 -10 -25 -12 -10 -14 -10 -9 -1 4 6 3 12 -2 12 -6 0 -13 -12
-16 -26 -5 -20 -11 -24 -29 -19 -22 7 -22 7 -2 -9 11 -9 14 -15 6 -14 -7 2
-16 -3 -19 -11 -3 -8 0 -11 7 -7 6 4 11 2 11 -3 0 -6 -6 -11 -12 -11 -7 0 -5
-5 5 -11 18 -10 18 -11 0 -31 -17 -19 -17 -21 7 -41 15 -12 18 -18 8 -14 -10
3 -20 2 -23 -3 -4 -6 -1 -10 6 -10 8 0 7 -5 -2 -17 -12 -14 -12 -16 2 -11 9 4
16 1 16 -8 0 -7 -4 -11 -8 -9 -11 7 -20 -26 -11 -39 5 -6 12 -20 15 -31 7 -19
6 -19 -7 -2 -13 16 -14 15 -11 -10 1 -15 5 -36 10 -47 5 -11 3 -26 -4 -38 -7
-12 -9 -24 -3 -31 5 -7 12 -21 15 -32 6 -18 6 -19 -6 -3 -12 15 -14 13 -13
-22 0 -21 4 -36 8 -34 4 3 8 -4 8 -16 0 -12 -4 -19 -9 -16 -16 10 -6 -24 13
-46 18 -20 18 -21 -3 -15 -24 6 -29 -8 -6 -17 8 -3 15 -11 15 -18 0 -9 -3 -9
-8 -2 -4 5 -21 9 -39 8 -28 -1 -31 1 -22 17 7 14 6 19 -3 19 -9 0 -9 3 2 10
11 7 11 10 2 10 -7 0 -10 5 -7 10 3 6 1 10 -5 10 -7 0 -10 7 -7 15 4 8 1 17
-5 21 -7 5 -8 2 -3 -6 5 -9 4 -11 -4 -6 -6 4 -9 12 -5 17 3 6 -2 19 -12 30
-17 19 -17 20 2 13 16 -7 17 -5 7 8 -7 8 -9 19 -5 24 4 4 -1 2 -11 -5 -15 -12
-17 -12 -11 4 6 14 4 16 -6 10 -10 -6 -12 0 -8 23 4 26 2 29 -9 20 -8 -6 -13
-7 -12 -2 3 19 -1 34 -12 34 -5 0 -7 -5 -3 -12 4 -7 3 -8 -5 -4 -6 4 -9 11 -6
16 3 5 1 11 -5 15 -5 3 -10 1 -10 -5 0 -7 -6 -10 -12 -8 -7 3 -21 -5 -31 -16
-10 -12 -15 -14 -11 -6 4 9 3 12 -2 7 -5 -5 -9 -12 -9 -15 -1 -4 -6 -17 -13
-29 -10 -18 -9 -24 3 -37 8 -8 15 -20 15 -26 0 -6 5 -8 12 -4 7 4 8 3 4 -5 -4
-6 -13 -8 -19 -4 -7 4 -6 0 2 -10 7 -9 18 -14 24 -10 6 3 7 1 3 -6 -4 -6 -12
-9 -17 -6 -5 4 -9 2 -9 -3 0 -6 7 -13 16 -16 13 -5 14 -9 5 -20 -10 -11 -8
-17 6 -25 17 -10 17 -10 -2 -12 -17 -1 -16 -2 5 -9 16 -5 19 -8 8 -9 -9 -1
-20 -5 -23 -11 -4 -6 1 -7 10 -3 13 4 16 1 13 -18 -2 -19 1 -24 17 -22 20 1
20 1 1 -13 -17 -12 -17 -14 -4 -14 9 0 20 -5 24 -12 4 -7 3 -8 -4 -4 -7 4 -12
1 -12 -8 0 -9 6 -16 13 -16 9 0 8 -3 -2 -9 -11 -7 -11 -9 0 -14 11 -4 11 -6 1
-6 -10 -1 -9 -6 4 -18 15 -16 15 -17 -2 -24 -17 -7 -17 -8 3 -8 23 -1 27 -21
10 -48 -8 -12 4 -18 26 -14 5 1 5 -3 2 -9 -4 -6 -14 -9 -24 -6 -11 4 -10 1 4
-9 11 -9 21 -20 21 -25 1 -6 3 -13 4 -17 1 -5 1 -19 0 -32 -1 -13 2 -21 7 -18
5 3 15 -3 22 -15 9 -15 10 -18 0 -13 -8 5 -10 4 -5 -3 4 -7 14 -12 23 -12 13
0 14 -2 2 -17 -8 -9 -9 -14 -3 -10 7 4 15 0 18 -9 3 -9 12 -14 20 -11 8 3 13
-1 12 -11 0 -10 6 -16 16 -16 10 1 14 -4 11 -12 -3 -9 2 -14 15 -14 23 0 47
-25 37 -39 -3 -7 0 -8 9 -5 17 6 20 -3 16 -44 -1 -13 3 -29 10 -36 8 -10 7
-17 -3 -28 -7 -7 -12 -19 -9 -27 3 -9 0 -11 -7 -6 -8 4 -7 -6 3 -30 19 -44 19
-45 5 -45 -5 0 -7 5 -4 10 3 6 1 10 -4 10 -14 0 -13 -11 3 -32 7 -10 17 -14
22 -10 4 4 3 0 -3 -8 -12 -16 -12 -44 0 -56 4 -4 -1 -12 -10 -19 -9 -7 -18
-23 -20 -36 -2 -19 -1 -21 7 -9 8 13 10 12 10 -2 0 -10 -8 -18 -17 -19 -15 0
-15 -2 2 -8 11 -5 23 -7 26 -5 3 2 6 -4 6 -12 0 -10 -4 -11 -11 -4 -5 5 -15
10 -21 10 -5 0 -4 -4 4 -9 11 -7 12 -13 3 -24 -9 -11 -9 -14 3 -14 8 0 12 4 9
9 -3 4 0 8 5 8 6 0 11 -4 11 -10 0 -5 14 -10 31 -10 21 0 28 4 23 13 -6 9 -4
9 7 -1 16 -15 33 -16 24 -1 -4 6 3 5 14 -3 18 -11 23 -11 31 2 6 10 10 11 10
3 0 -9 17 -13 51 -13 37 0 48 3 43 13 -5 7 -1 7 10 -2 15 -13 19 -13 27 0 6
10 9 11 9 1 0 -19 140 -14 147 4 3 8 10 11 17 7 7 -4 7 -2 -1 7 -8 9 -9 19 -2
31 8 15 6 17 -8 12 -14 -5 -15 -3 -6 7 6 7 9 19 6 28 -4 10 -2 13 5 8 8 -5 10
-2 6 8 -3 9 -11 13 -18 9 -6 -3 -2 3 8 15 11 12 16 25 13 29 -4 3 -7 1 -7 -5
0 -7 -5 -12 -10 -12 -7 0 -7 6 -1 18 7 13 6 23 -2 32 -9 10 -9 11 1 6 7 -4 12
-1 12 8 0 9 -5 16 -12 16 -6 0 -3 7 8 15 12 9 13 13 4 10 -11 -4 -16 1 -17 17
0 13 1 17 4 11 8 -21 22 -15 16 7 -3 11 -10 17 -17 13 -6 -4 -5 1 3 10 9 12
10 17 2 17 -7 0 -9 5 -6 10 4 6 11 8 16 5 5 -3 6 1 3 9 -3 9 -11 13 -18 9 -6
-3 -2 3 8 15 11 12 16 25 13 29 -4 3 -7 1 -7 -5 0 -7 -5 -12 -11 -12 -5 0 -7
5 -4 10 10 17 16 62 7 56 -4 -2 -9 4 -9 15 -1 10 3 19 8 19 6 0 7 -5 3 -12 -4
-7 -3 -8 5 -4 9 6 9 11 0 22 -9 11 -9 14 0 14 7 0 9 4 6 10 -3 6 1 10 9 10 9
0 16 5 16 11 0 5 6 7 13 3 8 -5 7 -2 -2 9 -12 15 -12 17 4 10 15 -5 17 -3 12
11 -5 13 -3 17 7 13 20 -8 28 3 15 20 -9 10 -8 13 4 13 10 0 14 6 11 14 -3 8
0 17 5 21 6 3 9 12 5 18 -3 7 1 4 10 -7 13 -16 15 24 15 397 1 302 -2 418 -11
423 -7 4 -8 3 -4 -4 4 -7 1 -12 -8 -12 -9 0 -16 6 -16 13 0 9 -3 8 -9 -2 -7
-11 -9 -11 -13 0 -4 11 -8 12 -20 2 -8 -7 -19 -9 -23 -5 -5 4 -5 2 -1 -5 4 -7
12 -11 19 -9 7 1 9 1 5 -1 -4 -3 -10 -3 -12 -1 -9 6 -34 -37 -28 -47 10 -15
11 -36 2 -30 -10 6 -8 -66 3 -82 8 -12 2 -17 -15 -14 -5 0 -8 -4 -8 -10 0 -5
-4 -7 -10 -4 -6 4 -4 17 5 35 13 25 13 29 1 24 -8 -3 -18 0 -22 8 -12 19 -12
48 0 47 23 -3 33 1 33 14 0 7 -10 13 -21 14 -12 1 -15 -1 -8 -4 6 -3 12 -10
12 -16 0 -8 -4 -7 -12 1 -15 15 -20 94 -5 85 6 -3 7 -1 3 5 -12 20 -16 53 -5
47 5 -4 6 -12 3 -18 -4 -7 -3 -8 1 -4 12 11 15 37 4 37 -5 0 -9 7 -9 16 0 9
-5 12 -12 8 -10 -6 -10 -4 0 7 14 16 16 33 2 24 -5 -3 -10 -1 -10 5 0 6 -5 8
-12 4 -8 -5 -9 -1 -4 12 6 15 5 16 -5 7 -9 -9 -17 -9 -32 -2 -14 8 -18 8 -13
0 4 -6 3 -11 -3 -11 -6 0 -7 -7 -4 -17 4 -11 3 -14 -5 -9 -7 4 -12 2 -12 -3 0
-6 -5 -11 -11 -11 -5 0 -8 4 -4 9 3 5 0 13 -6 17 -7 4 -9 3 -6 -3 3 -5 -7 -22
-24 -37 -21 -20 -27 -23 -22 -9 3 10 11 21 17 25 8 6 8 8 0 8 -6 0 -11 7 -11
15 0 11 4 12 14 4 18 -16 16 -4 -3 16 -14 13 -14 18 -2 32 11 15 11 16 -4 10
-13 -4 -18 -1 -18 11 0 13 -2 14 -9 4 -6 -11 -10 -10 -15 5 -7 17 -8 17 -21 0
-7 -10 -16 -14 -19 -8 -3 5 0 11 6 14 19 6 6 14 -15 9z m139 -134 c4 -7 3 -8
-4 -4 -7 4 -12 3 -12 -3 0 -5 3 -11 8 -14 4 -2 2 -2 -5 -1 -7 2 -15 -1 -18 -6
-4 -6 1 -10 9 -10 11 0 13 -6 6 -29 -6 -21 -4 -35 8 -52 8 -12 10 -19 4 -15
-17 11 -15 -20 3 -37 10 -11 11 -17 3 -19 -6 -2 -13 -14 -15 -27 -2 -16 1 -20
9 -15 10 6 10 4 0 -8 -10 -13 -10 -17 0 -21 10 -3 10 -7 1 -17 -10 -11 -9 -16
5 -27 12 -9 13 -12 2 -8 -11 4 -15 -3 -16 -30 -1 -21 3 -32 9 -28 6 3 7 1 3
-6 -4 -6 -13 -9 -19 -5 -7 3 -1 -4 13 -15 l25 -21 -25 8 c-14 5 -32 7 -40 4
-13 -5 -13 -3 0 13 14 17 13 18 -3 12 -13 -5 -16 -3 -11 5 12 18 11 82 -1 90
-6 5 -5 8 3 8 6 0 12 5 12 11 0 5 -6 7 -12 3 -9 -5 -9 -3 1 9 7 9 17 14 22 11
5 -3 6 2 3 10 -4 10 -1 16 7 16 7 0 9 3 6 7 -4 3 -15 -1 -24 -10 -17 -14 -18
-14 -18 7 0 18 5 22 23 20 12 -1 20 2 16 7 -3 5 -11 9 -19 9 -7 0 -16 7 -19
16 -6 15 -4 15 10 3 16 -13 16 -12 6 8 -15 26 -15 43 -2 43 5 0 7 -6 4 -14 -3
-8 -1 -16 4 -20 10 -6 9 30 -1 40 -3 4 -1 16 5 28 10 19 10 20 -7 6 -17 -14
-17 -13 -10 10 7 26 33 70 40 70 2 0 7 -5 11 -12z m-351 -68 c3 -5 1 -10 -4
-10 -6 0 -11 5 -11 10 0 6 2 10 4 10 3 0 8 -4 11 -10z m131 -19 c0 -11 -5 -17
-13 -14 -10 4 -11 9 -2 19 15 18 15 18 15 -5z m-116 -107 c0 -2 -7 -4 -15 -4
-8 0 -15 4 -15 10 0 5 7 7 15 4 8 -4 15 -8 15 -10z m163 -17 c3 -7 -3 -13 -13
-13 -10 0 -16 6 -13 13 3 7 9 13 13 13 4 0 10 -6 13 -13z m310 -33 c3 -4 2
-15 -4 -26 -14 -25 -5 -33 45 -37 4 -1 -2 -9 -15 -20 -19 -15 -21 -21 -11 -33
6 -8 9 -17 6 -21 -10 -10 16 -48 29 -40 7 4 7 0 -2 -10 -14 -18 -36 -13 -25 5
4 7 2 8 -5 4 -6 -4 -9 -11 -6 -16 7 -11 -5 -40 -17 -40 -5 0 -7 4 -4 8 2 4 1
14 -4 22 -5 9 -1 20 13 32 20 17 20 18 2 10 -19 -10 -20 -7 -20 79 0 84 3 98
18 83z m-488 -24 c3 -5 1 -10 -4 -10 -6 0 -11 5 -11 10 0 6 2 10 4 10 3 0 8
-4 11 -10z m168 -28 c4 9 6 9 6 1 1 -6 -3 -15 -9 -18 -5 -3 -10 -11 -10 -17 0
-7 5 -6 14 1 10 8 16 9 21 1 4 -6 1 -9 -7 -8 -8 2 -12 -4 -10 -16 3 -14 -1
-17 -12 -13 -9 4 -16 1 -17 -6 0 -9 -2 -9 -6 1 -2 6 -8 10 -13 7 -4 -3 -10 1
-13 9 -3 8 1 13 11 12 10 -1 16 6 16 16 -1 10 3 15 9 11 6 -3 7 -1 3 5 -4 6
-14 8 -24 5 -15 -6 -15 -5 -3 11 14 16 16 17 27 1 9 -12 13 -13 17 -3z m-33
-32 c0 -5 -2 -10 -4 -10 -3 0 -8 5 -11 10 -3 6 -1 10 4 10 6 0 11 -4 11 -10z
m390 -15 c-10 -12 -10 -15 0 -15 8 0 11 -3 7 -6 -3 -3 -11 -3 -17 1 -8 5 -8
11 1 21 6 8 14 14 16 14 3 0 0 -7 -7 -15z m-510 -11 c0 -2 -7 -4 -15 -4 -8 0
-15 4 -15 10 0 5 7 7 15 4 8 -4 15 -8 15 -10z m-280 -14 c0 -5 -5 -10 -11 -10
-5 0 -7 5 -4 10 3 6 8 10 11 10 2 0 4 -4 4 -10z m444 -26 c4 -9 2 -12 -5 -8
-7 4 -9 -1 -5 -17 3 -13 3 -18 0 -11 -8 18 -24 4 -18 -16 5 -15 4 -15 -6 1 -6
9 -15 15 -19 13 -4 -3 -8 1 -8 9 0 8 4 12 9 9 4 -3 8 0 8 5 0 6 -4 11 -10 11
-5 0 -10 4 -10 8 0 16 58 11 64 -4z m158 -28 c7 4 8 2 4 -4 -4 -6 -13 -9 -21
-6 -8 4 -12 11 -8 17 5 8 8 7 11 -1 2 -7 9 -9 14 -6z m-337 -6 c3 -5 1 -10 -4
-10 -6 0 -11 5 -11 10 0 6 2 10 4 10 3 0 8 -4 11 -10z m10 -80 c3 -6 -1 -7 -9
-4 -18 7 -21 14 -7 14 6 0 13 -4 16 -10z m-224 -93 c-10 -9 -11 -8 -5 6 3 10
9 15 12 12 3 -3 0 -11 -7 -18z m286 -863 c-3 -3 -12 -4 -19 -1 -8 3 -5 6 6 6
11 1 17 -2 13 -5z"/>
<path d="M2000 1641 c0 -6 4 -13 10 -16 6 -3 7 1 4 9 -7 18 -14 21 -14 7z"/>
<path d="M1985 1539 c1 -10 7 -24 13 -29 7 -6 10 -7 7 -4 -3 4 0 13 6 20 7 9
5 15 -9 23 -15 8 -18 7 -17 -10z"/>
<path d="M1984 1474 c2 -31 18 -36 22 -7 2 11 -2 23 -10 26 -8 3 -12 -3 -12
-19z"/>
<path d="M2153 1425 c0 -8 4 -12 9 -9 4 3 8 9 8 15 0 5 -4 9 -8 9 -5 0 -9 -7
-9 -15z"/>
<path d="M1816 1462 c-3 -5 1 -9 9 -9 8 0 12 4 9 9 -3 4 -7 8 -9 8 -2 0 -6 -4
-9 -8z"/>
<path d="M1820 1400 c-6 -11 -8 -20 -6 -20 3 0 10 9 16 20 6 11 8 20 6 20 -3
0 -10 -9 -16 -20z"/>
<path d="M805 1900 c-3 -5 -1 -10 4 -10 6 0 11 5 11 10 0 6 -2 10 -4 10 -3 0
-8 -4 -11 -10z"/>
<path d="M1675 1880 c-3 -5 -1 -10 4 -10 6 0 11 5 11 10 0 6 -2 10 -4 10 -3 0
-8 -4 -11 -10z"/>
<path d="M1811 1796 c-10 -11 -9 -14 1 -12 14 2 23 15 15 22 -2 2 -10 -2 -16
-10z"/>
<path d="M646 1761 c-3 -5 1 -11 9 -14 9 -4 12 -1 8 9 -6 16 -10 17 -17 5z"/>
<path d="M824 1718 c-4 -6 -3 -8 4 -4 6 3 13 2 17 -4 3 -5 1 -10 -4 -10 -6 0
-11 -8 -11 -17 0 -15 2 -15 14 2 14 19 11 45 -4 45 -5 0 -12 -5 -16 -12z"/>
<path d="M2155 1700 c-3 -5 -1 -10 4 -10 6 0 11 5 11 10 0 6 -2 10 -4 10 -3 0
-8 -4 -11 -10z"/>
<path d="M2180 1680 c-9 -6 -10 -10 -3 -10 6 0 15 5 18 10 8 12 4 12 -15 0z"/>
<path d="M1811 1656 c-7 -8 -8 -17 -3 -20 6 -3 15 1 21 8 7 8 8 17 3 20 -6 3
-15 -1 -21 -8z"/>
<path d="M831 1617 c-8 -10 -7 -14 2 -14 8 0 14 6 14 14 0 7 -1 13 -2 13 -2 0
-8 -6 -14 -13z"/>
<path d="M2160 1600 c-13 -8 -13 -10 2 -10 9 0 20 5 23 10 8 13 -5 13 -25 0z"/>
<path d="M1482 1031 c-11 -7 -11 -9 0 -14 9 -3 15 1 15 9 0 8 -1 14 -1 14 -1
0 -7 -4 -14 -9z"/>
<path d="M1500 939 c0 -5 5 -7 10 -4 6 3 10 8 10 11 0 2 -4 4 -10 4 -5 0 -10
-5 -10 -11z"/>
<path d="M459 738 c-5 -18 -6 -38 -1 -34 7 8 12 36 6 36 -2 0 -4 -1 -5 -2z"/>
<path d="M1675 710 c3 -5 8 -10 11 -10 2 0 4 5 4 10 0 6 -5 10 -11 10 -5 0 -7
-4 -4 -10z"/>
<path d="M1716 595 c4 -8 10 -12 15 -9 11 6 2 24 -11 24 -5 0 -7 -7 -4 -15z"/>
<path d="M930 475 c-7 -9 -8 -15 -2 -15 5 0 12 7 16 15 3 8 4 15 2 15 -2 0 -9
-7 -16 -15z"/>
<path d="M1707 439 c7 -7 15 -10 18 -7 3 3 -2 9 -12 12 -14 6 -15 5 -6 -5z"/>
<path d="M1705 400 c-3 -6 1 -7 9 -4 18 7 21 14 7 14 -6 0 -13 -4 -16 -10z"/>
<path d="M1715 380 c-3 -5 -1 -10 4 -10 6 0 11 5 11 10 0 6 -2 10 -4 10 -3 0
-8 -4 -11 -10z"/>
</g>
</svg>
