<?xml version="1.0" encoding="UTF-8"?>
<svg width="271px" height="264px" viewBox="0 0 271 264" version="1.1" xmlns="http://www.w3.org/2000/svg" xmlns:xlink="http://www.w3.org/1999/xlink">
    <!-- Generator: Sketch 54.1 (76490) - https://sketchapp.com -->
    <title>form</title>
    <desc>Created with Sketch.</desc>
    <defs>
        <linearGradient x1="-0.000803716891%" y1="49.9936159%" x2="99.9990274%" y2="49.9936159%" id="linearGradient-1">
            <stop stop-color="#EF44B9" offset="0%"></stop>
            <stop stop-color="#F9CEC3" offset="100%"></stop>
        </linearGradient>
        <linearGradient x1="-0.000803716891%" y1="49.9936159%" x2="99.9990274%" y2="49.9936159%" id="linearGradient-2">
            <stop stop-color="#EF44B9" offset="0%"></stop>
            <stop stop-color="#F9CEC3" offset="100%"></stop>
        </linearGradient>
        <linearGradient x1="6.14917106e-06%" y1="50.0836716%" x2="99.9995892%" y2="50.0836716%" id="linearGradient-3">
            <stop stop-color="#EF44B9" offset="0%"></stop>
            <stop stop-color="#F9CEC3" offset="100%"></stop>
        </linearGradient>
        <linearGradient x1="6.14917106e-06%" y1="50.0836716%" x2="99.9995892%" y2="50.0836716%" id="linearGradient-4">
            <stop stop-color="#EF44B9" offset="0%"></stop>
            <stop stop-color="#F9CEC3" offset="100%"></stop>
        </linearGradient>
        <linearGradient x1="0%" y1="50%" x2="100%" y2="50%" id="linearGradient-5">
            <stop stop-color="#EF44B9" offset="0%"></stop>
            <stop stop-color="#F9CEC3" offset="100%"></stop>
        </linearGradient>
        <linearGradient x1="0%" y1="50%" x2="100%" y2="50%" id="linearGradient-6">
            <stop stop-color="#EF44B9" offset="0%"></stop>
            <stop stop-color="#F9CEC3" offset="100%"></stop>
        </linearGradient>
        <linearGradient x1="-0.00294951814%" y1="49.9941114%" x2="100%" y2="49.9941114%" id="linearGradient-7">
            <stop stop-color="#EF44B9" offset="0%"></stop>
            <stop stop-color="#F9CEC3" offset="100%"></stop>
        </linearGradient>
        <linearGradient x1="0%" y1="50%" x2="100%" y2="50%" id="linearGradient-8">
            <stop stop-color="#EF44B9" offset="0%"></stop>
            <stop stop-color="#F9CEC3" offset="100%"></stop>
        </linearGradient>
        <linearGradient x1="187.28087%" y1="62.3268203%" x2="-4.40160927%" y2="46.1950066%" id="linearGradient-9">
            <stop stop-color="#EF40B9" offset="0%"></stop>
            <stop stop-color="#F9CEC3" offset="100%"></stop>
        </linearGradient>
        <linearGradient x1="72.3873567%" y1="-9.21458626%" x2="52.6708188%" y2="61.8793829%" id="linearGradient-10">
            <stop stop-color="#EF40B9" offset="0%"></stop>
            <stop stop-color="#F9CEC3" offset="100%"></stop>
        </linearGradient>
        <linearGradient x1="62.3921098%" y1="77.6290865%" x2="104.628402%" y2="203.238769%" id="linearGradient-11">
            <stop stop-color="#4627BB" offset="0%"></stop>
            <stop stop-color="#E06CEA" offset="62%"></stop>
        </linearGradient>
        <linearGradient x1="77.9657134%" y1="-59.536903%" x2="63.6343297%" y2="8.53835022%" id="linearGradient-12">
            <stop stop-color="#EF40B9" offset="0%"></stop>
            <stop stop-color="#F9CEC3" offset="100%"></stop>
        </linearGradient>
        <linearGradient x1="-12.1670163%" y1="54.4966497%" x2="60.9455938%" y2="49.7722582%" id="linearGradient-13">
            <stop stop-color="#EF40B9" offset="0%"></stop>
            <stop stop-color="#F9CEC3" offset="100%"></stop>
        </linearGradient>
        <linearGradient x1="44.1330337%" y1="134.128033%" x2="68.9031054%" y2="-312.86638%" id="linearGradient-14">
            <stop stop-color="#754C24" offset="0%"></stop>
            <stop stop-color="#CF9E85" offset="100%"></stop>
        </linearGradient>
        <linearGradient x1="46.23089%" y1="75.2666448%" x2="81.9715688%" y2="-102.025551%" id="linearGradient-15">
            <stop stop-color="#4627BB" offset="0%"></stop>
            <stop stop-color="#E06CEA" offset="62%"></stop>
        </linearGradient>
        <linearGradient x1="6.19335178%" y1="-2.55020334%" x2="47.1453105%" y2="46.5747898%" id="linearGradient-16">
            <stop stop-color="#EF40B9" offset="0%"></stop>
            <stop stop-color="#F9CEC3" offset="100%"></stop>
        </linearGradient>
        <linearGradient x1="71.690695%" y1="87.1063221%" x2="187.097537%" y2="251.460367%" id="linearGradient-17">
            <stop stop-color="#4627BB" offset="0%"></stop>
            <stop stop-color="#E06CEA" offset="62%"></stop>
        </linearGradient>
        <linearGradient x1="5.97421464%" y1="19.8517485%" x2="30.1616125%" y2="35.7789544%" id="linearGradient-18">
            <stop stop-color="#EF40B9" offset="0%"></stop>
            <stop stop-color="#F9CEC3" offset="100%"></stop>
        </linearGradient>
    </defs>
    <g id="Page-1" stroke="none" stroke-width="1" fill="none" fill-rule="evenodd">
        <g id="form" transform="translate(135.500000, 132.000000) scale(-1, 1) translate(-135.500000, -132.000000) " fill-rule="nonzero">
            <g id="Layer_15" opacity="0.27" transform="translate(0.000000, 87.000000)">
                <g id="Group" fill="url(#linearGradient-2)">
                    <path d="M215.341462,126.275051 C210.416645,177.749541 103.295116,203.857041 34.2666445,131.991429 C13.7390698,110.615969 -17.9526246,76.5434694 12.8207309,44.6383163 C60.0971761,-4.37984694 95.7503322,-5.03005102 117.925515,5.71637755 C204.240365,47.6816327 285.702425,-1.93255102 267.542724,87.4434184 C263.932392,105.188571 217.304186,105.658163 215.341462,126.275051 Z" id="Shape"></path>
                </g>
                <g id="Group" transform="translate(224.182724, 117.397959)" fill="url(#linearGradient-4)">
                    <path d="M23.3366113,2.85367347 C9.24641196,9.33765306 0.900332226,11.0715306 0.891328904,32.6546939 C0.882325581,54.2378571 25.4253821,35.5986735 36.4544518,20.2556633 C47.4835216,4.91265306 37.5078405,-3.66642857 23.3366113,2.85367347 Z" id="Shape"></path>
                </g>
            </g>
            <g id="Layer_7" transform="translate(105.000000, 215.000000)">
                <path d="M7.46880952,0.573529412 L68.7211905,0.573529412 C72.6562193,0.573529412 75.8461905,3.76350057 75.8461905,7.69852941 L75.8461905,7.69852941 C75.8461905,11.6335583 72.6562193,14.8235294 68.7211905,14.8235294 L7.46880952,14.8235294 C3.53378068,14.8235294 0.343809524,11.6335583 0.343809524,7.69852941 L0.343809524,7.69852941 C0.343809524,3.76350057 3.53378068,0.573529412 7.46880952,0.573529412 Z" id="Rectangle-path" fill="#FFFFFF"></path>
                <path d="M59.5568627,1.87941176 L66.4393277,1.87941176 C69.6555742,1.87941176 72.2628571,4.48669469 72.2628571,7.70294118 L72.2628571,7.70294118 C72.2628571,10.9191877 69.6555742,13.5264706 66.4393277,13.5264706 L59.5568627,13.5264706 C56.3406163,13.5264706 53.7333333,10.9191877 53.7333333,7.70294118 L53.7333333,7.70294118 C53.7333333,4.48669469 56.3406163,1.87941176 59.5568627,1.87941176 Z" id="Rectangle-path" fill="#411F66" opacity="0.546386719"></path>
            </g>
            <g id="Layer_14" transform="translate(9.000000, 0.000000)">
                <polygon id="Shape" fill="url(#linearGradient-5)" opacity="0.42" points="51.5278322 160.09958 159.427762 220.846853 241.96972 174.776713"></polygon>
                <path d="M83.2636364,2.9721678 C82.8667133,5.6784615 159.427762,220.855874 159.427762,220.846853 L47.4323077,156.707692 L83.2636364,2.9721678 Z" id="Shape" fill="url(#linearGradient-6)" opacity="0.42"></path>
                <path d="M132.608392,145.133776 C132.202448,147.894196 159.427762,220.855874 159.427762,220.855874 L241.96972,174.785734 L132.608392,145.133776 Z" id="Shape" fill="url(#linearGradient-7)" opacity="0.42"></path>
                <path d="M256.087552,3.314965 C255.681608,6.0212587 159.427762,220.846853 159.427762,220.846853 L241.96972,174.776713 L256.087552,3.314965 Z" id="Shape" fill="url(#linearGradient-8)" opacity="0.42"></path>
                <path d="M241.96972,174.776713 L134.412587,168.94014 L51.5639161,160.090559 L47.287972,136.239091 L71.8972028,107.976364 L165.083916,11.1812587 L256.024406,3.4232168 L257.467762,18.2446853 C257.152028,22.3402098 246.047203,142.779301 241.96972,174.776713 Z" id="Shape" fill="#5F279C"></path>
                <path d="M132.608392,160.496503 L236.43986,163.256923 C236.43986,163.256923 167.438392,138.99049 166.653566,138.467273 C165.868741,137.944056 142.594615,139.540769 142.594615,139.540769 L132.608392,160.496503 Z" id="Shape" fill="#411B6B"></path>
                <path d="M241.193916,126.676853 L236.448881,163.247902 C212.804198,163.247902 139.494422,160.09958 134.313357,160.09958 L54.7063987,130.767295 L81.5741934,0 L256.087552,3.314965 L241.193916,126.676853 Z" id="Shape" fill="url(#linearGradient-9)"></path>
                <polyline id="Shape" fill="#F3A594" points="130.001329 148.85042 133.05042 145.133776 134.313357 147.253706 130.668881 148.85042"></polyline>
                <path d="M39.7825175,145.602867 C39.7825175,145.602867 38.3481818,144.863147 36.0297902,143.618252 L35.8223077,143.51 C27.8567832,139.225035 10.2027273,129.365105 4.84426573,123.321049 C-2.08384615,115.517902 -2.6251049,109.392657 11.6551049,89.0413287 L12.1241958,88.3737762 C14.0276224,85.6674825 15.7867133,83.3400699 17.4014685,81.2832867 C15.9761538,85.478042 14.5779021,90.863566 14.641049,95.716853 C14.5456485,98.51015 15.2632977,101.271063 16.7068531,103.664336 C18.123273,105.828928 19.8427251,107.779261 21.8127273,109.455804 L18.474965,111.783217 C18.474965,111.783217 20.7482517,115.761469 31.4471329,123.51049 C42.146014,131.25951 39.7825175,145.602867 39.7825175,145.602867 Z" id="Shape" fill="url(#linearGradient-10)"></path>
                <path d="M33.2062238,101.354965 L28.0552448,104.963357 L21.8127273,109.392657 C19.8473279,107.735425 18.1280916,105.8066 16.7068531,103.664336 C12.881958,97.926993 15.1101399,88.0760839 17.4014685,81.3283916 C18.6914685,79.6865734 19.8822378,78.2432168 21.0098601,76.9622378 C29.3001399,67.4 32.7371329,67.1834965 32.7371329,67.1834965 L33.2062238,101.354965 Z" id="Shape" fill="url(#linearGradient-11)"></path>
                <path d="M36.0297902,143.618252 L35.8223077,143.51 C27.8567832,139.225035 10.2027273,129.365105 4.84426573,123.321049 C-2.08384615,115.517902 -2.6251049,109.392657 11.6551049,89.0413287 L12.1241958,88.3737762 C14.0276224,85.6674825 15.7867133,83.3400699 17.4014685,81.2832867 C15.9761538,85.478042 14.5779021,90.863566 14.641049,95.716853 C11.838978,100.314759 9.4943416,105.176254 7.64076923,110.231608 C6.77082314,112.619086 7.56143669,115.294727 9.5893007,116.825944 C19.7379021,124.520839 29.7692308,132.802098 36.0297902,143.618252 Z" id="Shape" fill="url(#linearGradient-12)"></path>
                <path d="M71.8972028,158.773497 C71.8972028,158.773497 69.5066434,229.84979 63.3272727,247.512867 C60.6751049,246.15972 44.8974126,237.075594 41.6047552,234.883497 L41.1266434,234.558741 C36.2431616,231.275398 31.7568422,227.4369 27.7575524,223.12014 C26.6028671,221.875245 25.4932867,220.585245 24.4107692,219.277203 C21.496993,178.43021 23.8514685,160.153706 24.1220979,158.259301 L24.1220979,158.259301 C24.1165452,158.244778 24.1165452,158.228718 24.1220979,158.214196 L24.1220979,158.214196 L71.8972028,158.773497 Z" id="Shape" fill="#7430BF"></path>
                <path d="M53.2779021,50.0165734 C51.9969231,50.6660839 54.3243357,57.7204895 51.4195804,58.812028 C47.720979,60.2012587 45.2402098,58.812028 46.7106294,65.8754545 C46.9271329,66.957972 47.2428671,68.2299301 47.6127273,69.7454545 C42.1099301,68.9606294 29.7872727,66.8046154 29.7872727,66.8046154 C30.1943872,64.8777607 30.3730315,62.9096453 30.3195105,60.940979 C30.093986,57.0258741 28.7408392,51.5411189 30.1571329,45.7947552 C30.3302859,45.0893692 30.5410771,44.3937584 30.7886014,43.7109091 C33.4948951,36.2325175 38.0053846,34.0133566 43.3638462,33.4991608 C47.2076478,33.1423619 50.718558,35.6954 51.5639161,39.462028 C52.051049,41.6451049 52.8268531,43.7920979 52.9711888,44.9558042 C53.2779021,47.0847552 54.8836364,49.2227273 53.2779021,50.0165734 Z" id="Shape" fill="url(#linearGradient-13)"></path>
                <path d="M24.7716084,36.9632168 C25.1144056,35.2402098 27.0268531,32.2542657 31.0862937,30.3779021 C35.6509091,28.276014 42.9037762,28.5015385 46.8008392,30.9552448 C52.89,35.0688112 52.5111189,38.5599301 45.4206294,41.1309091 C44.274965,41.5458741 44.4283217,45.884965 44.3290909,46.8321678 C44.2869104,47.2371653 44.0702816,47.6036567 43.735807,47.8358826 C43.4013324,48.0681085 42.9822432,48.1429964 42.588042,48.040979 C41.9926573,47.8966434 42.8316084,41.2391608 39.6201399,44.170979 C37.5633566,46.0563636 39.3314685,49.349021 39.999021,50.1518881 C40.38604,50.6235518 40.4225508,51.2917008 40.0892308,51.8027273 C38.6274253,54.0502966 37.5028899,56.4999602 36.7514685,59.0736364 C36.4086713,60.3636364 32.8093007,60.6162238 30.9960839,60.6613287 C30.3985655,60.6808257 29.8547546,60.3182851 29.6429371,59.7592308 L25.5744755,47.616993 C24.4496582,44.1828317 24.1741678,40.5271673 24.7716084,36.9632168 L24.7716084,36.9632168 Z" id="Shape" fill="url(#linearGradient-14)"></path>
                <path d="M73.1601399,139.748252 C73.1601399,141.218671 73.1601399,142.580839 73.1601399,143.825734 C72.9977622,159.423007 71.9152448,158.827622 71.9152448,158.827622 L24.1581818,158.133007 C25.2784246,149.229084 25.3450382,140.224137 24.3566434,131.304615 C23.8153846,126.108531 23.3643357,121.805524 22.9764336,118.206154 C21.5240559,104.819021 20.4325175,100.840769 20.9918182,83.0243357 C21.2672579,77.2820999 23.9333473,71.9172084 28.3439161,68.2299301 C27.2162937,63.9900699 36.2102098,64.1975524 47.9374825,68.7982517 C48.6230769,69.0688811 48.8395804,71.1437063 49.4890909,71.4413986 C52.3619216,73.0550611 55.0797353,74.9303526 57.607972,77.0434266 C69.5788112,89.3029371 73.1601399,111.936573 73.1601399,139.748252 Z" id="Shape" fill="url(#linearGradient-15)"></path>
                <path d="M146.23007,152.738462 C145.013068,154.551766 143.383925,156.051072 141.476014,157.113636 C132.824895,162.58035 129.27965,160.081538 129.27965,160.081538 C129.27965,160.081538 106.203986,163.374196 68.9473427,153.153427 C60.8284615,145.882517 52.871958,134.425874 46.873007,122.400909 C49.5793007,122.058112 52.0690909,121.634126 54.3153147,121.128951 C64.2383916,118.900769 69.7682517,115.283357 72.8083217,111.837343 C75.2079021,121.507832 77.5172727,128.760699 81.1437063,135.355035 C99.6637762,141.128462 123.343846,155.462797 139.50042,144.24972 C146.338322,147.037203 147.772657,149.950979 146.23007,152.738462 Z" id="Shape" fill="url(#linearGradient-16)"></path>
                <path d="M72.8083217,111.837343 C69.0826573,116.059161 61.6403497,120.542587 46.873007,122.400909 C46.7196503,122.112238 46.5753147,121.814545 46.430979,121.498811 C35.8944755,100.055944 31.7718881,77.0163636 44.5455944,73.0381119 C64.6623776,66.7775524 68.9473427,93.786364 68.9473427,93.786364 C69.8494406,98.36 70.6703497,102.347273 71.4461538,105.865455 C71.9152448,108.048531 72.3662937,110.024126 72.8083217,111.837343 Z" id="Shape" fill="url(#linearGradient-17)"></path>
                <path d="M146.23007,152.738462 C145.013068,154.551766 143.383925,156.051072 141.476014,157.113636 C132.824895,162.58035 129.27965,160.081538 129.27965,160.081538 C129.27965,160.081538 106.203986,163.374196 68.9473427,153.153427 C60.8284615,145.882517 52.871958,134.425874 46.873007,122.400909 C49.5793007,122.058112 52.0690909,121.634126 54.3153147,121.128951 C58.2935664,131.169301 65.2036364,146.595175 70.7244755,148.67 C79.0057343,151.773217 107.972098,159.35986 129.703636,157.97965 C129.703636,157.97965 135.756713,159.783846 143.595944,154.235944 C144.420489,153.648053 145.303148,153.146268 146.23007,152.738462 Z" id="Shape" fill="url(#linearGradient-18)" style="mix-blend-mode: multiply;"></path>
                <path d="M41.6047552,234.883497 L41.1266434,234.558741 C36.2431616,231.275398 31.7568422,227.4369 27.7575524,223.12014 C26.6028671,221.875245 25.4932867,220.585245 24.4107692,219.277203 C21.496993,178.43021 23.8514685,160.153706 24.1220979,158.259301 C23.8063636,160.713007 20.5137063,189.535035 36.3365035,202.416993 C41.298042,206.449371 42.0197203,221.586573 41.6047552,234.883497 Z" id="Shape" fill="#5F279C"></path>
                <polygon id="Shape" fill="#411B6B" points="236.448881 163.247902 241.96972 174.776713 257.422657 18.2446853 256.087552 3.314965"></polygon>
            </g>
            <path d="M114.195055,18.6361633 L242.318326,20.6375251 C244.915918,20.678101 246.988789,22.8167585 246.948213,25.4143502 C246.946287,25.5376647 246.939511,25.6608557 246.927903,25.7836376 L246.927903,25.7836376 C246.657826,28.6402442 244.229477,30.8045721 241.360739,30.7455131 L112.77152,28.0982318 C110.456204,28.0505661 108.61791,26.1349909 108.665575,23.8196748 C108.66929,23.6392514 108.684648,23.4592559 108.711553,23.2808113 L108.711553,23.2808113 C109.119043,20.5782417 111.462271,18.5934755 114.195055,18.6361633 Z" id="Rectangle" fill="#EE7EA9" opacity="0.502906436"></path>
            <path d="M133.741127,41.7996855 L239.318469,43.6288526 C241.920432,43.6739326 243.993195,45.819785 243.948115,48.421748 C243.946022,48.5425925 243.939279,48.6633116 243.927903,48.7836376 L243.927903,48.7836376 C243.658019,51.6382027 241.227556,53.7986148 238.361036,53.7319648 L132.317446,51.2663264 C129.996042,51.212351 128.157927,49.2867249 128.211902,46.9653201 C128.216021,46.7881568 128.231337,46.6114312 128.257758,46.4362007 L128.257758,46.4362007 C128.665075,43.7347807 131.009582,41.7523605 133.741127,41.7996855 Z" id="Rectangle" fill="#EE7EA9" opacity="0.502906436"></path>
            <path d="M113.436315,64.291647 L234.318648,66.6190453 C236.925554,66.6692371 238.99818,68.8232402 238.947988,71.4301457 C238.945715,71.548186 238.939016,71.6660996 238.927903,71.7836376 L238.927903,71.7836376 C238.658109,74.6372585 236.226673,76.795861 233.361186,76.7257105 L112.012664,73.7549561 C109.688449,73.6980566 107.850426,71.767782 107.907326,69.4435672 C107.911626,69.2679156 107.926919,69.0927055 107.953116,68.9189652 L107.953116,68.9189652 C108.360236,66.2188473 110.706184,64.2390826 113.436315,64.291647 Z" id="Rectangle" fill="#EE7EA9" opacity="0.502906436"></path>
            <path d="M178.198183,91.159717 L231.319526,92.5809056 C233.945644,92.6511638 236.017578,94.8370087 235.947319,97.4631269 C235.944456,97.5701519 235.93798,97.6770497 235.927903,97.7836376 L235.927903,97.7836376 C235.65906,100.627195 233.217468,102.766563 230.363238,102.659501 L176.773429,100.649349 C174.419497,100.561053 172.582836,98.5812362 172.671132,96.227304 C172.67711,96.0679151 172.692025,95.9089871 172.715806,95.7512689 L172.715806,95.7512689 C173.122159,93.0562383 175.473665,91.0868262 178.198183,91.159717 Z" id="Rectangle" fill="#EE7EA9" opacity="0.502906436"></path>
            <path d="M110.206145,117.012222 L229.711844,120.027848 C232.334071,120.094018 234.406166,122.273394 234.339996,124.895622 C234.337239,125.004893 234.33071,125.114035 234.320422,125.222855 L234.320422,125.222855 C234.050617,128.076583 231.619292,130.235391 228.753687,130.165638 L109.149003,127.254285 C106.520142,127.190295 104.440903,125.007307 104.504893,122.378446 C104.507924,122.253909 104.515842,122.129539 104.528628,122.005623 L104.528628,122.005623 C104.826984,119.114026 107.300122,116.938891 110.206145,117.012222 Z" id="Rectangle" fill="#EE7EA9" opacity="0.502906436"></path>
        </g>
    </g>
</svg>