<?xml version="1.0" encoding="UTF-8"?>
<svg width="301px" height="275px" viewBox="0 0 301 275" version="1.1" xmlns="http://www.w3.org/2000/svg" xmlns:xlink="http://www.w3.org/1999/xlink">
    <!-- Generator: Sketch 54.1 (76490) - https://sketchapp.com -->
    <title>Welcome w300px</title>
    <desc>Created with Sketch.</desc>
    <defs>
        <linearGradient x1="69.7550499%" y1="90.4104453%" x2="25.6502322%" y2="11.7098245%" id="linearGradient-1">
            <stop stop-color="#EF40B9" offset="0%"></stop>
            <stop stop-color="#F9CEC3" offset="100%"></stop>
        </linearGradient>
        <linearGradient x1="69.7139017%" y1="81.9514505%" x2="26.1453978%" y2="21.9773373%" id="linearGradient-2">
            <stop stop-color="#EF40B9" offset="0%"></stop>
            <stop stop-color="#F9CEC3" offset="100%"></stop>
        </linearGradient>
        <linearGradient x1="66.073695%" y1="62.193995%" x2="38.1337769%" y2="36.1844141%" id="linearGradient-3">
            <stop stop-color="#EF40B9" offset="0%"></stop>
            <stop stop-color="#F9CEC3" offset="100%"></stop>
        </linearGradient>
        <linearGradient x1="61.4814815%" y1="67.5703243%" x2="32.611037%" y2="35.3943202%" id="linearGradient-4">
            <stop stop-color="#EF40B9" offset="0%"></stop>
            <stop stop-color="#F9CEC3" offset="100%"></stop>
        </linearGradient>
        <linearGradient x1="65.2389253%" y1="71.700298%" x2="29.9047656%" y2="13.4891115%" id="linearGradient-5">
            <stop stop-color="#EF40B9" offset="0%"></stop>
            <stop stop-color="#F9CEC3" offset="100%"></stop>
        </linearGradient>
        <linearGradient x1="51.9333333%" y1="102.252586%" x2="51.9333333%" y2="-103.961494%" id="linearGradient-6">
            <stop stop-color="#D44494" offset="0%"></stop>
            <stop stop-color="#FFCFE9" offset="100%"></stop>
        </linearGradient>
        <linearGradient x1="50.0763804%" y1="102.518367%" x2="50.0763804%" y2="-104.412755%" id="linearGradient-7">
            <stop stop-color="#D44494" offset="0%"></stop>
            <stop stop-color="#FF92CE" offset="100%"></stop>
        </linearGradient>
        <linearGradient x1="45.1072462%" y1="106.825844%" x2="56.4630985%" y2="16.733692%" id="linearGradient-8">
            <stop stop-color="#291810" offset="0%"></stop>
            <stop stop-color="#534741" offset="100%"></stop>
        </linearGradient>
        <linearGradient x1="36.9414474%" y1="8.45226244%" x2="60.6913898%" y2="135.671934%" id="linearGradient-9">
            <stop stop-color="#F2F2F2" offset="0%"></stop>
            <stop stop-color="#D9B5FF" offset="100%"></stop>
        </linearGradient>
        <linearGradient x1="58.2328944%" y1="123.271832%" x2="27.0183377%" y2="-119.695661%" id="linearGradient-10">
            <stop stop-color="#EF40B9" offset="0%"></stop>
            <stop stop-color="#F9CEC3" offset="100%"></stop>
        </linearGradient>
        <linearGradient x1="63.8888599%" y1="295.472179%" x2="51.3092833%" y2="60.675889%" id="linearGradient-11">
            <stop stop-color="#EF40B9" offset="0%"></stop>
            <stop stop-color="#F9CEC3" offset="100%"></stop>
        </linearGradient>
    </defs>
    <g id="Page-1" stroke="none" stroke-width="1" fill="none" fill-rule="evenodd">
        <g id="Welcome" transform="translate(-37.000000, -123.000000)">
            <g id="Welcome-w300px" transform="translate(37.000000, 123.000000)">
                <g id="Layer_15" transform="translate(0.000000, 1.000000)" fill-rule="nonzero" opacity="0.27">
                    <path d="M295.3,187.7 C293,198.6 289.3,209.1 284.3,219 C269.8,246.1 226.8,262.2 185.8,266 C166.2,267.8 147,266.9 131.6,263 C113,258.3 94.6,245.9 78,227.3 C52.8,199 14.1,223.1 2.9,171.2 C2.6,170 2.4,168.7 2.2,167.5 C-6.1,123.1 10,81.3 37.3,47 C38.5,45.4 39.8,43.9 41,42.4 C41.4,41.9 41.9,41.3 42.3,40.8 C52,29.5 63.4,2.1 96.3,1.2 C163.2,-0.6 148.7,31.6 172.3,53.4 C181.3,61.7 195.9,68.6 222.8,71.4 C296,79.1 305.3,141.9 295.3,187.7 Z" id="Shape" fill="url(#linearGradient-1)"></path>
                    <path d="M187.3,44 C182.3,40.7 177.9,36.4 174.6,31.4 C151.3,-5.5 201.4,-4.2 212,10 C214.8,13.8 217.8,17.3 221.1,20.6 C233.9,33.5 244.6,35.8 259.5,55.2 C272.9,72.6 216.3,64.2 187.3,44 Z" id="Shape" fill="url(#linearGradient-2)"></path>
                    <path d="M295.3,187.7 C293,198.6 289.3,209.1 284.3,219 C269.8,246.1 226.8,262.2 185.8,266 C166.2,267.8 147,266.9 131.6,263 C113,258.3 94.6,245.9 78,227.3 C52.8,199 14.1,223.1 2.9,171.2 C2.6,170 2.4,168.7 2.2,167.5 C35.8,177.8 89.5,187 122.9,155.8 C174.4,107.7 226.4,137.8 243.8,172.5 C253.2,191.3 276.3,191.5 295.3,187.7 Z" id="Shape" fill="url(#linearGradient-3)"></path>
                    <path d="M172.3,53.4 C164.3,58.2 156,63.1 147.4,67.7 C111.1,87.4 69.5,69.5 37.3,47 C38.5,45.4 39.8,43.9 41,42.4 C41.4,41.9 41.9,41.3 42.3,40.8 C52,29.5 63.4,2.1 96.3,1.2 C163.1,-0.6 148.7,31.6 172.3,53.4 Z" id="Shape" fill="url(#linearGradient-4)"></path>
                    <path d="M221.1,20.6 C211.1,28 199.8,35.9 187.3,44 C182.3,40.7 177.9,36.4 174.6,31.4 C151.3,-5.5 201.4,-4.2 212,10 C214.8,13.8 217.8,17.3 221.1,20.6 Z" id="Shape" fill="url(#linearGradient-5)"></path>
                </g>
                <g id="Layer_17" transform="translate(30.000000, 19.000000)" fill-rule="nonzero">
                    <polygon id="Shape" fill="url(#linearGradient-6)" points="18.1 0.9 18.1 35.7 16.6 35.7 16.6 2.6"></polygon>
                    <circle id="Oval" fill="#8A46D0" cx="17" cy="52.8" r="5"></circle>
                    <path d="M17,33.5 L17,33.5 C26,33.5 33.2,40.8 33.3,49.7 L33.3,53 C33.3,53 33.3,53.1 33.2,53.1 C33.2,53.1 33.2,53.1 33.2,53.1 L0.8,53.1 C0.8,53.1 0.7,53.1 0.7,53 L0.7,53 L0.7,49.7 C0.8,40.8 8.1,33.5 17,33.5 Z" id="Shape" fill="url(#linearGradient-7)"></path>
                </g>
                <g id="Layer_9" transform="translate(56.000000, 0.000000)">
                    <path d="M69.8,47.5 C69.8,47.5 70.9,38.6 59.2,38.1 C47.4,37.7 38,43 32.2,58.9 C23.4,83.1 20.7,89.5 9.7,109.6 C-11,147.5 6.3,182.7 47.6,153.9 C75,134.7 103.2,118.1 95.9,107.4 C88.6,96.7 75.2,88.8 76.1,71.3 C76.6,62.8 64.3,51.7 69.8,47.5 Z" id="Shape" fill="url(#linearGradient-8)" fill-rule="nonzero"></path>
                    <path d="M181.4,32.3 L173.7,44.4 L146.1,88 L102.7,121.9 L89.5,110.9 L70.2,94.7 C70.2,94.7 96.1,85.3 131.9,65.8 L166.7,25.7 C172.4,25.2 178,27.7 181.4,32.3 Z" id="Shape" fill="#663399" fill-rule="nonzero"></path>
                    <path d="M173.7,44.4 L146.1,88 L102.7,121.9 L89.5,110.9 L86.2,105.5 L137,87.2 L132.9,82.6 L140.2,83.5 L136.5,76.2 L145.2,76.2 C152.2,65 164.3,53 173.7,44.4 Z" id="Shape" fill="#999999" fill-rule="nonzero" opacity="0.7"></path>
                    <path d="M68.2,91.6 C68.2,91.6 108.4,121.1 117.9,138.1 C127.4,155.2 117.4,175.5 131.5,213.5 C137.4,229.5 149.8,260.5 143.7,262.2 L116.3,264.6 L68.2,91.6 Z" id="Shape" fill="#532A7D" fill-rule="nonzero"></path>
                    <path d="M124.8,271.4 C105.2,273.2 109.2,273.7 93.8,269.8 C75.2,265.1 56.8,252.7 40.2,234.1 L48.4,192.3 L92.7,179.1 L99.8,194.6 C99.9,194.4 109,220.9 124.8,271.4 Z" id="Shape" fill="url(#linearGradient-9)" fill-rule="nonzero"></path>
                    <path d="M51,97.2 C51,97.2 50.6,93.1 61.7,91.9 C72.3,90.8 77.7,100.8 83.1,105.8 C92.1,114 95.8,120.3 98.4,131.5 C101,142.7 99.1,141.2 98.9,160.1 C99.1,180.8 100.4,194.5 100.4,194.5 L52.5,199.5 C52.6,199.4 38.2,112.8 51,97.2 Z" id="Shape" fill="url(#linearGradient-10)" fill-rule="nonzero"></path>
                    <path d="M79.4,101.4 C80.8,102.8 81.7,104.7 81.8,106.6 C81.8,108.6 81,110.6 79.6,112 C78.9,112.7 78.2,113.3 77.3,113.9 C76.5,114.5 75.6,114.9 74.6,115.2 C72.7,115.7 70.7,115.8 68.8,115.4 C65,114.7 61.4,112.9 58.6,110.2 C55.8,107.6 53.4,104.6 51.5,101.2 L52.3,100.7 C54.2,103.9 56.6,106.8 59.3,109.3 C62,111.8 65.3,113.5 69,114.2 C70.8,114.5 72.6,114.4 74.4,114 C75.3,113.7 76.1,113.4 76.8,112.9 C77.6,112.4 78.3,111.9 78.9,111.3 C80.2,110.1 80.9,108.4 80.9,106.6 C80.6,104.8 80.2,103.1 79.4,101.4 Z" id="Shape" fill="#FFFFFF" fill-rule="nonzero"></path>
                    <path d="M84.7,130.8 C84.7,130.8 85.6,146.3 68.9,152.7" id="Shape" stroke="#B04C89" stroke-width="0.6053"></path>
                    <path d="M53.2,82.9 L57.4,97.1 C57.4,97.1 65.4,108 71.9,106.7 C83.3,104.5 71.3,94 71.3,94 L70.7,83.8 L53.2,82.9 Z" id="Shape" fill="#D99273" fill-rule="nonzero"></path>
                    <path d="M76.6,55.8 C76.6,55.8 72.7,47.5 65.6,48.3 C58.5,49.1 47.4,67.4 49.2,74 C51,80.7 52.5,86.8 60,91.9 C69.9,98.6 74.3,85.2 75.5,77.5 C76.8,69.8 76.6,55.8 76.6,55.8 Z" id="Shape" fill="url(#linearGradient-11)" fill-rule="nonzero"></path>
                    <path d="M69.1,45.5 C74.3,46.7 78.5,50.4 80.4,55.3 C82,59.8 81,60.9 76.7,62.9 C72.1,60.1 68.7,55.7 67.1,50.5 C67.1,50.5 62.6,68.8 49.1,72.4 C49.1,72.4 43.6,51.3 50.9,47.3 C58.2,43.3 63.6,46.3 69.1,45.5 Z" id="Shape" fill="#534741" fill-rule="nonzero"></path>
                    <path d="M52,72.7 L49,72.4 C49,72.4 41.2,68.6 43.8,75 C45.1,78.6 48.6,81 52.5,80.9 L52,72.7 Z" id="Shape" fill="#F9CDC3" fill-rule="nonzero"></path>
                    <path d="M167.3,26.1 C167.3,26.1 172.7,3.7 182.5,0.8 C192.3,-2.1 192.3,3.6 187.7,10.4 C183,17.2 176.9,30.3 176.9,30.3 L167.3,26.1 Z" id="Shape" fill="#F9CDC3" fill-rule="nonzero"></path>
                    <path d="M173.7,16.1 C173.7,16.1 169.1,8.3 162.8,8.9 C156.6,9.5 166.5,12.5 167.2,17.7 C167.9,22.9 166.1,25 168.8,26.4 L173.7,16.1 Z" id="Shape" fill="#F9CDC3" fill-rule="nonzero"></path>
                    <path d="M54.4,93.7 C54.4,93.7 57.1,103.6 65.8,117.9 C74.5,132.2 85,143.9 89,153.8 C98.2,176.3 106.8,239.7 109.8,263.4 C110.4,268.4 106.9,272.9 102,273.5 C102,273.5 101.9,273.5 101.9,273.5 C87.9,275 54.1,274.3 26.3,265.2 C26.3,265.2 43.3,200.7 43.3,199.8 C43.3,199.1 27,146.2 34.6,113.1 C36.8,103.3 47.6,95.7 54.4,93.7 Z" id="Shape" fill="#8A46D0" fill-rule="nonzero"></path>
                    <path d="M78.6,229.1 L75.4,231.4 L57.6,244.2 L19,194.4 C19,194.4 20.7,156.6 27.6,127.8 C34.5,99.1 54.5,93.6 54.5,93.6 L49.7,98.2 C42.2,105.4 39.9,115.7 41,126 C42.1,135.8 43.1,145.2 44,153.1 C45.4,166.4 46.4,175.6 46.4,175.6 L78.6,229.1 Z" id="Shape" fill="#663399" fill-rule="nonzero"></path>
                    <polyline id="Shape" fill="#532A7D" fill-rule="nonzero" points="48 255.6 57.6 244.2 78.6 229.1 90.9 225"></polyline>
                    <path d="M244.4,195.3 C244.4,195.3 227.3,237 204.3,244 C189.3,248.6 192.8,235 192.8,235 C192.8,235 183.3,187.9 192.5,157.1 L202.6,159.4 L194.2,150 C200,137.7 210.3,119.9 228.9,117.7 C228.9,117.7 227.8,122.4 228,136.9 C228,138 228,139.1 228,140.2 L219.1,143.1 L227.3,147.7 C226.6,166.2 222.7,188.5 207.6,221 C210.9,214.2 224.2,190.6 244.4,195.3 Z" id="Shape" fill="#F378BD" fill-rule="nonzero"></path>
                    <path d="M195.8,245.2 C195.8,245.2 208.3,235.4 192.4,214.6 C180.4,198.6 162.7,199.3 150.5,178.1 C150.5,178.1 145.7,190.5 158.5,206.7 L161.5,206.1 L159.7,208.3 L162.7,213.2 L169.4,211.8 L163.9,215 C163.9,215 172.6,234.4 181.8,236.2 C187.4,237.3 192.4,240.6 195.8,245.2 Z" id="Shape" fill="#D44494" fill-rule="nonzero"></path>
                    <path d="M176.9,238.5 L223.1,238.5 C223.1,238.5 219,249.9 212.6,257.9 C207.6,264.4 200.2,268.5 192,269.5 C192.1,269.5 176.9,253.1 176.9,238.5 Z" id="Shape" fill="#532A7D" fill-rule="nonzero"></path>
                    <path d="M92.2,217.6 C90.9,211 89,204.6 86.5,198.4 C84,192.2 80.9,186.3 77.3,180.7 C75.5,177.9 73.6,175.1 71.7,172.3 C69.7,169.6 68,166.6 66.7,163.5 C66,161.9 65.8,160.1 66,158.3 C66.1,157.4 66.4,156.6 66.8,155.8 L67.8,153.5 C69.2,150.4 70.6,147.4 72.3,144.4 L72.4,145 C69.9,142.3 67.3,139.7 64.7,137.1 L56.9,129.2 C54.3,126.5 51.9,123.7 49.8,120.6 C47.7,117.5 46,114.1 44.8,110.6 L44.8,110.5 L44.8,110.4 L49.8,93.4 L50.7,93.7 L45.9,110.7 L45.9,110.4 C47,113.8 48.7,117.1 50.7,120.1 C52.8,123.1 55.1,126 57.6,128.6 L65.4,136.5 C68,139.1 70.6,141.8 73.1,144.5 L73.4,144.8 L73.2,145.1 C71.6,148 70.1,151 68.7,154.1 L67.7,156.4 C67.4,157.1 67.1,157.9 67,158.7 C66.8,160.3 67,161.9 67.7,163.4 C69,166.4 70.7,169.3 72.6,172 C74.5,174.8 76.4,177.6 78.2,180.4 C80,183.2 81.7,186.1 83.2,189.1 C84.7,192.1 86.1,195.2 87.3,198.3 C89.6,204.4 91.2,211 92.2,217.6 Z" id="Shape" fill="#333333" fill-rule="nonzero"></path>
                    <path d="M78.6,229.1 L75.4,231.4 L43.9,187.6 L33.4,192.2 L40.3,181.2 L35.7,180.3 L43.9,153.1 C45.3,166.4 46.3,175.6 46.3,175.6 L78.6,229.1 Z" id="Shape" fill="#999999" fill-rule="nonzero" opacity="0.7"></path>
                </g>
            </g>
        </g>
    </g>
</svg>