<?xml version="1.0" encoding="UTF-8"?>
<svg width="300px" height="293px" viewBox="0 0 300 293" version="1.1" xmlns="http://www.w3.org/2000/svg" xmlns:xlink="http://www.w3.org/1999/xlink">
    <!-- Generator: Sketch 54.1 (76490) - https://sketchapp.com -->
    <title>Connection Lost w300px</title>
    <desc>Created with Sketch.</desc>
    <defs>
        <linearGradient x1="32.8265736%" y1="-0.249323723%" x2="80.2799244%" y2="101.345647%" id="linearGradient-1">
            <stop stop-color="#D7549F" offset="0%"></stop>
            <stop stop-color="#F9CEC4" offset="100%"></stop>
        </linearGradient>
        <linearGradient x1="37.5369341%" y1="-14.1313234%" x2="76.9364067%" y2="102.576303%" id="linearGradient-2">
            <stop stop-color="#D7549F" offset="0%"></stop>
            <stop stop-color="#F9CEC4" offset="100%"></stop>
        </linearGradient>
        <linearGradient x1="86.6950922%" y1="4.47928471%" x2="28.9796889%" y2="105.713262%" id="linearGradient-3">
            <stop stop-color="#D7549F" offset="0%"></stop>
            <stop stop-color="#F9CEC4" offset="100%"></stop>
        </linearGradient>
        <linearGradient x1="48.5956228%" y1="69.9512992%" x2="89.0844391%" y2="2.85357748%" id="linearGradient-4">
            <stop stop-color="#754D25" offset="0%"></stop>
            <stop stop-color="#CF9F85" offset="100%"></stop>
        </linearGradient>
        <linearGradient x1="26.4719781%" y1="50.0765316%" x2="148.03897%" y2="50.7426541%" id="linearGradient-5">
            <stop stop-color="#F6A6BF" offset="0%"></stop>
            <stop stop-color="#F9CEC4" offset="100%"></stop>
        </linearGradient>
        <linearGradient x1="21.5372442%" y1="35.2477559%" x2="172.325299%" y2="129.662084%" id="linearGradient-6">
            <stop stop-color="#D7529E" offset="0%"></stop>
            <stop stop-color="#F9CEC4" offset="100%"></stop>
        </linearGradient>
        <linearGradient x1="43.8619496%" y1="89.8192339%" x2="62.2013203%" y2="-88.6852156%" id="linearGradient-7">
            <stop stop-color="#4E459C" offset="0%"></stop>
            <stop stop-color="#BC77B2" offset="62%"></stop>
        </linearGradient>
        <linearGradient x1="30.9285147%" y1="47.9271998%" x2="128.53176%" y2="56.1969615%" id="linearGradient-8">
            <stop stop-color="#F6A6BF" offset="0%"></stop>
            <stop stop-color="#F9CEC4" offset="100%"></stop>
        </linearGradient>
        <linearGradient x1="36.7513463%" y1="28.4697898%" x2="110.232654%" y2="153.410643%" id="linearGradient-9">
            <stop stop-color="#D7529E" offset="0%"></stop>
            <stop stop-color="#F9CEC4" offset="100%"></stop>
        </linearGradient>
        <linearGradient x1="30.948357%" y1="53.3573591%" x2="101.426929%" y2="44.7545232%" id="linearGradient-10">
            <stop stop-color="#F6A6BF" offset="0%"></stop>
            <stop stop-color="#F9CEC4" offset="100%"></stop>
        </linearGradient>
        <linearGradient x1="-71.5766356%" y1="230.767971%" x2="65.2572373%" y2="37.5049041%" id="linearGradient-11">
            <stop stop-color="#F6A6BF" offset="0%"></stop>
            <stop stop-color="#F9CEC4" offset="100%"></stop>
        </linearGradient>
        <linearGradient x1="-68.2627086%" y1="198.028674%" x2="56.7758315%" y2="41.218638%" id="linearGradient-12">
            <stop stop-color="#F6A6BF" offset="0%"></stop>
            <stop stop-color="#F9CEC4" offset="100%"></stop>
        </linearGradient>
        <linearGradient x1="61.210536%" y1="63.0055446%" x2="7.92051848%" y2="1.16319017%" id="linearGradient-13">
            <stop stop-color="#4E459C" offset="0%"></stop>
            <stop stop-color="#BC77B2" offset="62%"></stop>
        </linearGradient>
        <linearGradient x1="59.0985818%" y1="-297.575161%" x2="35.2743888%" y2="-124.848012%" id="linearGradient-14">
            <stop stop-color="#4E459C" offset="0%"></stop>
            <stop stop-color="#BC77B2" offset="62%"></stop>
        </linearGradient>
        <linearGradient x1="84.8434381%" y1="51.2446863%" x2="-2.38310809%" y2="42.5706584%" id="linearGradient-15">
            <stop stop-color="#D7529E" offset="0%"></stop>
            <stop stop-color="#F9CEC4" offset="100%"></stop>
        </linearGradient>
    </defs>
    <g id="Page-1" stroke="none" stroke-width="1" fill="none" fill-rule="evenodd">
        <g id="Connection-Lost" transform="translate(-44.000000, -113.000000)" fill-rule="nonzero">
            <g id="Connection-Lost-w300px" transform="translate(44.000000, 112.000000)">
                <path d="M290.13,164.2 C269.03,236.99 244.85,263.2 218.13,276.2 C214.95,277.75 211.72,279.12 208.45,280.35 C160.55,298.45 146.32,243.59 169.99,193.18 C188.9,152.89 189.09,114.44 136.07,136.73 C36.13,178.73 -43.81,139.31 26.92,49.92 C43.73,28.69 66.92,14.64 94.68,7.25 C129.07,-1.9 170.52,-0.82 215.68,9.49 C289.36,26.3 316.54,73.07 290.13,164.2 Z" id="Shape" fill="url(#linearGradient-1)" opacity="0.27"></path>
                <path d="M290.13,164.2 C269.03,236.99 244.85,263.2 218.13,276.2 C248.35,226.5 252.2,156.56 160,114.52 C81,78.52 83.76,33.52 94.72,7.23 C129.11,-1.92 170.56,-0.84 215.72,9.47 C289.36,26.3 316.54,73.07 290.13,164.2 Z" id="Shape" fill="url(#linearGradient-2)" opacity="0.27"></path>
                <path d="M11.16,241.08 C12.84,222.24 40.88,200.08 62.64,201.99 C84.4,203.9 92.32,239.45 90.64,258.29 C88.96,277.13 69.28,280.66 47.52,278.72 C25.76,276.78 9.47,259.94 11.16,241.08 Z" id="Shape" fill="url(#linearGradient-3)" opacity="0.27"></path>
                <path d="M149.51,50.11 C149.51,65.11 137,233.73 130.3,237.58 C111.09,248.58 12.2,241.86 7.93,152.2 C4.17,73.3 97.69,100.6 103.26,74 C116.42,11 127.81,23 135.52,23 C143.23,23 149.51,35.12 149.51,50.11 Z" id="Shape" fill="url(#linearGradient-4)"></path>
                <path d="M188,179.83 L195.19,163.63 L242.78,117.4 L241.37,97.2 L247.52,105.92 L268.68,87.71 L268.81,87.94 C273.150778,95.6609006 270.835863,105.420964 263.49,110.37 L255.89,115.46 L251.26,121.85 C251.26,121.85 229.73,171.78 206.65,191.85 L188,179.83 Z" id="Shape" fill="url(#linearGradient-5)"></path>
                <polygon id="Shape" fill="#433A50" points="218.98 136.15 207.6 131.57 223.55 91.98 235.23 91.02"></polygon>
                <path d="M155,100 C155,100 164.48,99.74 179.9,127.55 C198.66,161.35 203.3,168.78 213.9,153.37 L222.54,191.3 C223.263271,194.514674 221.258802,197.71111 218.05,198.46 C217.881851,198.499679 217.711574,198.529728 217.54,198.55 C206.96,200.03 185.27,199.9 168.71,179.06 C134.87,136.41 138,107.17 155,100 Z" id="Shape" fill="url(#linearGradient-6)"></path>
                <path d="M89,111.41 C89,111.41 93.83,85.76 131.46,92.66 C146.93,95.5 156.77,95.27 164.46,100.6 C176.93,109.31 176.07,120.15 185.09,130.84 C206.65,156.39 161.61,163.57 173.71,270.28 C155.6,281.57 139.5,267.61 113.45,265.87 C105.76,265.33 92.45,263.19 93.51,255.58 C94.17,250.99 105.59,241.5 104.51,235.27 C98.79,196.82 83.6,170.78 89,111.41 Z" id="Shape" fill="url(#linearGradient-7)"></path>
                <path d="M138.27,212.68 L148.92,191.68 L206.31,141.31 L204.44,124.77 L207.44,114.45 L208.61,115.8 C210.328369,117.763241 210.620971,120.597067 209.34,122.87 L209.34,122.87 L213.96,126.18 L222,101 L234.2,98.53 L228.74,134 L217.83,147.54 C217.83,147.54 189.22,203.22 157.28,228.2 L138.27,212.68 Z" id="Shape" fill="url(#linearGradient-8)"></path>
                <path d="M108,93.63 C108,93.63 119.41,101.06 128.75,139.15 C140.15,185.45 143.27,195.77 160.89,180.88 L158.74,232.11 C158.642544,234.450038 156.670329,236.2702 154.33,236.18 L154.21,236.18 C143.01,235.39 113.1,230.11 98.8,196.83 C72.27,135.12 85.43,96.67 108,93.63 Z" id="Shape" fill="url(#linearGradient-9)"></path>
                <path d="M158,86.22 C154.91,101.12 177.21,124.7 134.17,98.49 C124.71,92.75 136.88,89.83 138.92,75.6 C141.06,60.52 137.73,59.71 150.53,59.71 C156.08,59.72 162.67,64 158,86.22 Z" id="Shape" fill="url(#linearGradient-10)"></path>
                <path d="M174.62,55.77 C175.15,70.35 169.88,82.85 159.47,82.85 C149.06,82.85 136.92,70.34 136.92,55.77 C136.92,41.2 157.92,30.37 168.25,29.14 C178.18,27.93 173.46,23 174.62,55.77 Z" id="Shape" fill="url(#linearGradient-11)"></path>
                <path d="M145,57.38 C145,62 143.84,65.74 140.31,65.74 C136.78,65.74 131.95,61.74 131.95,57.11 C131.95,52.48 133,49 136.52,49 C140.04,49 145,52.78 145,57.38 Z" id="Shape" fill="url(#linearGradient-12)"></path>
                <path d="M179.62,19.63 C177.02,30.07 174.88,37.42 154.93,41.19 C152,46.35 147.3,44.63 145.42,48.69 C141.98,56.06 140.86,61.98 139.42,49.76 C139.34,49.09 135.32,49.27 135.24,48.51 C134.95,45.89 138.51,38.81 138.17,35 C137.02,22.06 146.93,15.26 157.74,15.26 C168.55,15.26 182.27,9.06 179.62,19.63 Z" id="Shape" fill="#AE8163"></path>
                <path d="M162.31,22.9 C162.31,31.71 148.38,39.35 138.88,39.35 C129.38,39.35 110.88,45.35 113.94,36 C116.66,27.62 125.67,15.58 139.94,14.18 C149.36,13.24 162.31,14.09 162.31,22.9 Z" id="Shape" fill="#AE8163"></path>
                <path d="M69.06,269.05 C70.13,272.41 84.6,270.79 101.43,265.44 C118.26,260.09 131,253 129.91,249.65 C128.82,246.3 114.37,247.91 97.55,253.27 C80.73,258.63 68,265.71 69.06,269.05 Z" id="Shape" fill="url(#linearGradient-13)"></path>
                <path d="M99.74,251 C100.22,240.06 99.11,236.46 106.5,228.39 C112.32,222.02 115.91,222.33 122.18,211.9 C123.18,210.16 124.77,204.96 122.68,200.69 C120.18,195.57 114.78,194 109.14,195.25 C98.96,197.48 97.23,202.54 94.92,207.75 C93.6,204.21 92.92,199.48 87.5,200.75 C76.17,203.34 85.28,220.43 89.11,227.14 C92.94,233.85 86.47,236.99 86.84,244.71" id="Shape" fill="url(#linearGradient-14)"></path>
                <path d="M43,235.73 C50.48,235.83 58.06,233.5 65.33,235.26 C67.15,235.69 69.08,236.53 69.87,238.26 C71.08,240.82 69.09,243.75 66.87,245.53 C64.65,247.31 61.96,248.84 61.05,251.53 C59.53,255.99 64.27,260.48 68.95,260.88 C73.63,261.28 78.11,259.12 82.58,257.67 C89.14,255.52 101.51,265.3 108.9,258.96 C106.13,254.14 103,249.25 102.47,248.02 C97.5697767,236.572807 91.4902947,225.667276 84.33,215.48 C77.33,205.48 69.06,196.04 58.58,189.76 C48.1,183.48 35.11,180.59 23.43,184.23 C19.9242622,185.199505 16.7257185,187.051837 14.14,189.61 C9.54,194.51 8.68,201.99 10.04,208.61 C13.13,223.59 27.6,235.51 43,235.73 Z" id="Shape" fill="#5D459B"></path>
                <path d="M69.06,269.05 C74.85,287.19 93.18,297.56 109.96,292.2 C126.74,286.84 135.68,267.79 129.96,249.65 C131.03,253.01 118.28,260.08 101.48,265.44 C84.68,270.8 70.13,272.43 69.06,269.05 Z" id="Shape" fill="url(#linearGradient-15)"></path>
                <path d="M108,258.75 C98.24,238.86 82.25,222.53 66,207.85 L56.35,199.12 C55.97,198.77 55.4,199.34 55.79,199.68 C63.17,206.37 70.86,212.82 77.88,219.89 C87.7000834,229.72036 96.3202291,240.680163 103.56,252.54 C104.87,254.68 106.16,256.88 107.27,259.15 C107.5,259.61 108.19,259.2 107.96,258.74 L108,258.75 Z" id="Shape" fill="#A45AA4"></path>
                <path d="M87.58,229.76 L74.13,232.44 C73.62,232.54 73.84,233.32 74.34,233.21 L87.79,230.53 C88.3,230.44 88.09,229.66 87.58,229.76 Z" id="Shape" fill="#A45AA4"></path>
                <path d="M71.33,212.66 L29.47,211 L23.54,210.77 C23.3190861,210.77 23.14,210.949086 23.14,211.17 C23.14,211.390914 23.3190861,211.57 23.54,211.57 L65.4,213.24 L71.33,213.48 C71.4898822,213.5052 71.6496269,213.433982 71.7377462,213.298216 C71.8258656,213.162451 71.8258656,212.987549 71.7377462,212.851784 C71.6496269,212.716018 71.4898822,212.6448 71.33,212.67 L71.33,212.66 Z" id="Shape" fill="#A45AA4"></path>
                <path d="M84,225.13 L76.11,208.52 C75.89,208.05 75.2,208.46 75.42,208.93 L83.3,225.54 C83.52,226.01 84.22,225.6 84,225.13 L84,225.13 Z" id="Shape" fill="#A45AA4"></path>
                <path d="M98.69,244.26 L68.44,252.4 C68.2934578,252.42936 68.1755066,252.537966 68.1341773,252.681592 C68.0928479,252.825218 68.1350352,252.979905 68.2435599,253.082662 C68.3520847,253.185419 68.5088425,253.219104 68.65,253.17 L68.65,253.17 L98.9,245 C99.0038159,244.974105 99.0929299,244.907698 99.1474255,244.815619 C99.201921,244.72354 99.2172549,244.613467 99.19,244.51 C99.1188851,244.304707 98.8969031,244.193716 98.69,244.26 L98.69,244.26 Z" id="Shape" fill="#A45AA4"></path>
                <path d="M56.28,199.06 L45.78,191 C45.37,190.69 44.98,191.39 45.38,191.7 L55.87,199.79 C56.28,200.08 56.68,199.38 56.28,199.06 Z" id="Shape" fill="#A45AA4"></path>
            </g>
        </g>
    </g>
</svg>