<?xml version="1.0" encoding="UTF-8"?>
<svg width="271px" height="274px" viewBox="0 0 271 274" version="1.1" xmlns="http://www.w3.org/2000/svg" xmlns:xlink="http://www.w3.org/1999/xlink">
    <!-- Generator: Sketch 54.1 (76490) - https://sketchapp.com -->
    <title>repayment</title>
    <desc>Created with Sketch.</desc>
    <defs>
        <linearGradient x1="-0.000803716891%" y1="49.9936159%" x2="99.9990274%" y2="49.9936159%" id="linearGradient-1">
            <stop stop-color="#EF44B9" offset="0%"></stop>
            <stop stop-color="#F9CEC3" offset="100%"></stop>
        </linearGradient>
        <linearGradient x1="-0.000803716891%" y1="49.9936159%" x2="99.9990274%" y2="49.9936159%" id="linearGradient-2">
            <stop stop-color="#EF44B9" offset="0%"></stop>
            <stop stop-color="#F9CEC3" offset="100%"></stop>
        </linearGradient>
        <linearGradient x1="6.14917106e-06%" y1="50.0836716%" x2="99.9995892%" y2="50.0836716%" id="linearGradient-3">
            <stop stop-color="#EF44B9" offset="0%"></stop>
            <stop stop-color="#F9CEC3" offset="100%"></stop>
        </linearGradient>
        <linearGradient x1="6.14917106e-06%" y1="50.0836716%" x2="99.9995892%" y2="50.0836716%" id="linearGradient-4">
            <stop stop-color="#EF44B9" offset="0%"></stop>
            <stop stop-color="#F9CEC3" offset="100%"></stop>
        </linearGradient>
        <linearGradient x1="0%" y1="50%" x2="100%" y2="50%" id="linearGradient-5">
            <stop stop-color="#EF44B9" offset="0%"></stop>
            <stop stop-color="#F9CEC3" offset="100%"></stop>
        </linearGradient>
        <linearGradient x1="0%" y1="50%" x2="100%" y2="50%" id="linearGradient-6">
            <stop stop-color="#EF44B9" offset="0%"></stop>
            <stop stop-color="#F9CEC3" offset="100%"></stop>
        </linearGradient>
        <linearGradient x1="-0.00294951814%" y1="49.9941114%" x2="100%" y2="49.9941114%" id="linearGradient-7">
            <stop stop-color="#EF44B9" offset="0%"></stop>
            <stop stop-color="#F9CEC3" offset="100%"></stop>
        </linearGradient>
        <linearGradient x1="0%" y1="50%" x2="100%" y2="50%" id="linearGradient-8">
            <stop stop-color="#EF44B9" offset="0%"></stop>
            <stop stop-color="#F9CEC3" offset="100%"></stop>
        </linearGradient>
        <linearGradient x1="114.669497%" y1="68.7583007%" x2="24.3727971%" y2="44.2097631%" id="linearGradient-9">
            <stop stop-color="#EF40B9" offset="0%"></stop>
            <stop stop-color="#F9CEC3" offset="100%"></stop>
        </linearGradient>
        <linearGradient x1="71.0798673%" y1="51.9969106%" x2="27.4868337%" y2="48.3257962%" id="linearGradient-10">
            <stop stop-color="#EF40B9" offset="0%"></stop>
            <stop stop-color="#F9CEC3" offset="100%"></stop>
        </linearGradient>
        <linearGradient x1="70.6207914%" y1="63.7774404%" x2="27.9771239%" y2="38.4490357%" id="linearGradient-11">
            <stop stop-color="#EF40B9" offset="0%"></stop>
            <stop stop-color="#F9CEC3" offset="100%"></stop>
        </linearGradient>
        <linearGradient x1="72.3873567%" y1="-9.21458626%" x2="52.6708188%" y2="61.8793829%" id="linearGradient-12">
            <stop stop-color="#EF40B9" offset="0%"></stop>
            <stop stop-color="#F9CEC3" offset="100%"></stop>
        </linearGradient>
        <linearGradient x1="62.3921098%" y1="77.6290865%" x2="104.628402%" y2="203.238769%" id="linearGradient-13">
            <stop stop-color="#4627BB" offset="0%"></stop>
            <stop stop-color="#E06CEA" offset="62%"></stop>
        </linearGradient>
        <linearGradient x1="77.9657134%" y1="-59.536903%" x2="63.6343297%" y2="8.53835022%" id="linearGradient-14">
            <stop stop-color="#EF40B9" offset="0%"></stop>
            <stop stop-color="#F9CEC3" offset="100%"></stop>
        </linearGradient>
        <linearGradient x1="-12.1670163%" y1="54.4966497%" x2="60.9455938%" y2="49.7722582%" id="linearGradient-15">
            <stop stop-color="#EF40B9" offset="0%"></stop>
            <stop stop-color="#F9CEC3" offset="100%"></stop>
        </linearGradient>
        <linearGradient x1="44.1330337%" y1="134.128033%" x2="68.9031054%" y2="-312.86638%" id="linearGradient-16">
            <stop stop-color="#754C24" offset="0%"></stop>
            <stop stop-color="#CF9E85" offset="100%"></stop>
        </linearGradient>
        <linearGradient x1="46.23089%" y1="75.2666448%" x2="81.9715688%" y2="-102.025551%" id="linearGradient-17">
            <stop stop-color="#4627BB" offset="0%"></stop>
            <stop stop-color="#E06CEA" offset="62%"></stop>
        </linearGradient>
        <linearGradient x1="6.19335178%" y1="-2.55020334%" x2="47.1453105%" y2="46.5747898%" id="linearGradient-18">
            <stop stop-color="#EF40B9" offset="0%"></stop>
            <stop stop-color="#F9CEC3" offset="100%"></stop>
        </linearGradient>
        <linearGradient x1="71.690695%" y1="87.1063221%" x2="187.097537%" y2="251.460367%" id="linearGradient-19">
            <stop stop-color="#4627BB" offset="0%"></stop>
            <stop stop-color="#E06CEA" offset="62%"></stop>
        </linearGradient>
        <linearGradient x1="5.97421464%" y1="19.8517485%" x2="30.1616125%" y2="35.7789544%" id="linearGradient-20">
            <stop stop-color="#EF40B9" offset="0%"></stop>
            <stop stop-color="#F9CEC3" offset="100%"></stop>
        </linearGradient>
    </defs>
    <g id="Page-1" stroke="none" stroke-width="1" fill="none" fill-rule="evenodd">
        <g id="repayment" fill-rule="nonzero">
            <g id="Layer_15" opacity="0.27" transform="translate(0.000000, 97.000000)">
                <g id="Group" fill="url(#linearGradient-2)">
                    <path d="M215.341462,126.275051 C210.416645,177.749541 103.295116,203.857041 34.2666445,131.991429 C13.7390698,110.615969 -17.9526246,76.5434694 12.8207309,44.6383163 C60.0971761,-4.37984694 95.7503322,-5.03005102 117.925515,5.71637755 C204.240365,47.6816327 285.702425,-1.93255102 267.542724,87.4434184 C263.932392,105.188571 217.304186,105.658163 215.341462,126.275051 Z" id="Shape"></path>
                </g>
                <g id="Group" transform="translate(224.182724, 117.397959)" fill="url(#linearGradient-4)">
                    <path d="M23.3366113,2.85367347 C9.24641196,9.33765306 0.900332226,11.0715306 0.891328904,32.6546939 C0.882325581,54.2378571 25.4253821,35.5986735 36.4544518,20.2556633 C47.4835216,4.91265306 37.5078405,-3.66642857 23.3366113,2.85367347 Z" id="Shape"></path>
                </g>
            </g>
            <g id="Layer_7" transform="translate(105.000000, 225.000000)">
                <path d="M7.46880952,0.573529412 L68.7211905,0.573529412 C72.6562193,0.573529412 75.8461905,3.76350057 75.8461905,7.69852941 L75.8461905,7.69852941 C75.8461905,11.6335583 72.6562193,14.8235294 68.7211905,14.8235294 L7.46880952,14.8235294 C3.53378068,14.8235294 0.343809524,11.6335583 0.343809524,7.69852941 L0.343809524,7.69852941 C0.343809524,3.76350057 3.53378068,0.573529412 7.46880952,0.573529412 Z" id="Rectangle-path" fill="#FFFFFF"></path>
                <path d="M59.5568627,1.87941176 L66.4393277,1.87941176 C69.6555742,1.87941176 72.2628571,4.48669469 72.2628571,7.70294118 L72.2628571,7.70294118 C72.2628571,10.9191877 69.6555742,13.5264706 66.4393277,13.5264706 L59.5568627,13.5264706 C56.3406163,13.5264706 53.7333333,10.9191877 53.7333333,7.70294118 L53.7333333,7.70294118 C53.7333333,4.48669469 56.3406163,1.87941176 59.5568627,1.87941176 Z" id="Rectangle-path" fill="#411F66" opacity="0.546386719"></path>
            </g>
            <g id="Layer_14" transform="translate(9.000000, 0.000000)">
                <polygon id="Shape" fill="url(#linearGradient-5)" opacity="0.42" points="51.5278322 170.09958 159.427762 230.846853 241.96972 184.776713"></polygon>
                <path d="M83.2636364,12.9721678 C82.8667133,15.6784615 159.427762,230.855874 159.427762,230.846853 L47.4323077,166.707692 L83.2636364,12.9721678 Z" id="Shape" fill="url(#linearGradient-6)" opacity="0.42"></path>
                <path d="M139.50042,154.258741 C139.094476,157.019161 159.427762,230.855874 159.427762,230.855874 L241.96972,184.785734 L139.50042,154.258741 Z" id="Shape" fill="url(#linearGradient-7)" opacity="0.42"></path>
                <path d="M256.087552,13.314965 C255.681608,16.0212587 159.427762,230.846853 159.427762,230.846853 L241.96972,184.776713 L256.087552,13.314965 Z" id="Shape" fill="url(#linearGradient-8)" opacity="0.42"></path>
                <path d="M241.96972,184.776713 L134.412587,178.94014 L51.5639161,170.090559 L47.287972,146.239091 L71.8972028,117.976364 L165.083916,21.1812587 L256.024406,13.4232168 L257.467762,28.2446853 C257.152028,32.3402098 246.047203,152.779301 241.96972,184.776713 Z" id="Shape" fill="#5F279C"></path>
                <path d="M132.608392,170.496503 L236.43986,173.256923 C236.43986,173.256923 167.438392,148.99049 166.653566,148.467273 C165.868741,147.944056 142.594615,149.540769 142.594615,149.540769 L132.608392,170.496503 Z" id="Shape" fill="#411B6B"></path>
                <path d="M166.464126,16.3730769 L166.464126,17.0947552 L145.634685,126.871049 L137.209091,165.850699 C136.905274,166.130783 136.621892,166.432252 136.361119,166.752797 C124.706014,158.11972 107.106084,153.924965 89.5422378,152.075664 C74.9351392,150.670067 60.2410738,150.398625 45.592028,151.263776 L60.7653147,101.937063 L83.2636364,12.9721678 C103.10979,12.5481818 113.213287,6.17937063 132.626434,3.26559441 C149.495664,0.73972028 156.73951,6.1072028 163.108322,13.1886713 C164.278058,14.4454419 165.337424,15.8005854 166.274685,17.2390909 C166.328811,16.9143357 166.391958,16.6437063 166.464126,16.3730769 Z" id="Shape" fill="#F7AFC1"></path>
                <path d="M256.087552,13.314965 L241.193916,136.676853 L236.448881,173.247902 C192.706154,167.23993 176.098531,153.257413 157.966364,155.205944 C145.454266,156.523007 139.148601,164.127692 137.218112,165.877762 L145.643706,126.898112 L166.428042,17.1398601 L166.428042,16.4181818 C175.449021,0.378881119 187.473986,-3.28363636 206.039161,2.88671329 C222.300242,8.14554895 239.079369,11.6417044 256.087552,13.314965 L256.087552,13.314965 Z" id="Shape" fill="url(#linearGradient-9)"></path>
                <g id="Group" opacity="0.4" style="mix-blend-mode: multiply;" transform="translate(45.104895, 98.328671)" fill="url(#linearGradient-11)">
                    <path d="M196.089021,38.3481818 L191.343986,74.9192308 C147.601259,68.9112587 130.993636,54.9287413 112.861469,56.8772727 C100.349371,58.1943357 94.0437063,65.799021 92.1132168,67.5490909 C91.8093995,67.8291745 91.5260182,68.130644 91.2652448,68.4511888 C79.6101399,59.8181119 62.0102098,55.6233566 44.4463636,53.7740559 C29.8392651,52.3684588 15.1451997,52.0970167 0.496153846,52.9621678 L15.6604196,3.60839161 C27.7665734,0.559300699 41.9926573,-0.902097902 55.893986,2.70629371 C88.3695105,11.0055944 99.0774126,26.2961538 100.52979,28.5874825 C100.595405,28.68329 100.655638,28.7826744 100.71021,28.8851748 C100.71021,28.8851748 108.63965,7.65881119 135.982238,11.2401399 C154.989441,13.6758042 174.366503,28.1544755 196.089021,38.3481818 Z" id="Shape"></path>
                </g>
                <polyline id="Shape" fill="#F3A594" points="130.001329 158.85042 133.05042 155.133776 134.313357 157.253706 130.668881 158.85042"></polyline>
                <path d="M39.7825175,155.602867 C39.7825175,155.602867 38.3481818,154.863147 36.0297902,153.618252 L35.8223077,153.51 C27.8567832,149.225035 10.2027273,139.365105 4.84426573,133.321049 C-2.08384615,125.517902 -2.6251049,119.392657 11.6551049,99.0413287 L12.1241958,98.3737762 C14.0276224,95.6674825 15.7867133,93.3400699 17.4014685,91.2832867 C15.9761538,95.478042 14.5779021,100.863566 14.641049,105.716853 C14.5456485,108.51015 15.2632977,111.271063 16.7068531,113.664336 C18.123273,115.828928 19.8427251,117.779261 21.8127273,119.455804 L18.474965,121.783217 C18.474965,121.783217 20.7482517,125.761469 31.4471329,133.51049 C42.146014,141.25951 39.7825175,155.602867 39.7825175,155.602867 Z" id="Shape" fill="url(#linearGradient-12)"></path>
                <path d="M33.2062238,111.354965 L28.0552448,114.963357 L21.8127273,119.392657 C19.8473279,117.735425 18.1280916,115.8066 16.7068531,113.664336 C12.881958,107.926993 15.1101399,98.0760839 17.4014685,91.3283916 C18.6914685,89.6865734 19.8822378,88.2432168 21.0098601,86.9622378 C29.3001399,77.4 32.7371329,77.1834965 32.7371329,77.1834965 L33.2062238,111.354965 Z" id="Shape" fill="url(#linearGradient-13)"></path>
                <path d="M36.0297902,153.618252 L35.8223077,153.51 C27.8567832,149.225035 10.2027273,139.365105 4.84426573,133.321049 C-2.08384615,125.517902 -2.6251049,119.392657 11.6551049,99.0413287 L12.1241958,98.3737762 C14.0276224,95.6674825 15.7867133,93.3400699 17.4014685,91.2832867 C15.9761538,95.478042 14.5779021,100.863566 14.641049,105.716853 C11.838978,110.314759 9.4943416,115.176254 7.64076923,120.231608 C6.77082314,122.619086 7.56143669,125.294727 9.5893007,126.825944 C19.7379021,134.520839 29.7692308,142.802098 36.0297902,153.618252 Z" id="Shape" fill="url(#linearGradient-14)"></path>
                <path d="M71.8972028,168.773497 C71.8972028,168.773497 69.5066434,239.84979 63.3272727,257.512867 C60.6751049,256.15972 44.8974126,247.075594 41.6047552,244.883497 L41.1266434,244.558741 C36.2431616,241.275398 31.7568422,237.4369 27.7575524,233.12014 C26.6028671,231.875245 25.4932867,230.585245 24.4107692,229.277203 C21.496993,188.43021 23.8514685,170.153706 24.1220979,168.259301 L24.1220979,168.259301 C24.1165452,168.244778 24.1165452,168.228718 24.1220979,168.214196 L24.1220979,168.214196 L71.8972028,168.773497 Z" id="Shape" fill="#7430BF"></path>
                <path d="M53.2779021,60.0165734 C51.9969231,60.6660839 54.3243357,67.7204895 51.4195804,68.812028 C47.720979,70.2012587 45.2402098,68.812028 46.7106294,75.8754545 C46.9271329,76.957972 47.2428671,78.2299301 47.6127273,79.7454545 C42.1099301,78.9606294 29.7872727,76.8046154 29.7872727,76.8046154 C30.1943872,74.8777607 30.3730315,72.9096453 30.3195105,70.940979 C30.093986,67.0258741 28.7408392,61.5411189 30.1571329,55.7947552 C30.3302859,55.0893692 30.5410771,54.3937584 30.7886014,53.7109091 C33.4948951,46.2325175 38.0053846,44.0133566 43.3638462,43.4991608 C47.2076478,43.1423619 50.718558,45.6954 51.5639161,49.462028 C52.051049,51.6451049 52.8268531,53.7920979 52.9711888,54.9558042 C53.2779021,57.0847552 54.8836364,59.2227273 53.2779021,60.0165734 Z" id="Shape" fill="url(#linearGradient-15)"></path>
                <path d="M24.7716084,46.9632168 C25.1144056,45.2402098 27.0268531,42.2542657 31.0862937,40.3779021 C35.6509091,38.276014 42.9037762,38.5015385 46.8008392,40.9552448 C52.89,45.0688112 52.5111189,48.5599301 45.4206294,51.1309091 C44.274965,51.5458741 44.4283217,55.884965 44.3290909,56.8321678 C44.2869104,57.2371653 44.0702816,57.6036567 43.735807,57.8358826 C43.4013324,58.0681085 42.9822432,58.1429964 42.588042,58.040979 C41.9926573,57.8966434 42.8316084,51.2391608 39.6201399,54.170979 C37.5633566,56.0563636 39.3314685,59.349021 39.999021,60.1518881 C40.38604,60.6235518 40.4225508,61.2917008 40.0892308,61.8027273 C38.6274253,64.0502966 37.5028899,66.4999602 36.7514685,69.0736364 C36.4086713,70.3636364 32.8093007,70.6162238 30.9960839,70.6613287 C30.3985655,70.6808257 29.8547546,70.3182851 29.6429371,69.7592308 L25.5744755,57.616993 C24.4496582,54.1828317 24.1741678,50.5271673 24.7716084,46.9632168 L24.7716084,46.9632168 Z" id="Shape" fill="url(#linearGradient-16)"></path>
                <path d="M73.1601399,149.748252 C73.1601399,151.218671 73.1601399,152.580839 73.1601399,153.825734 C72.9977622,169.423007 71.9152448,168.827622 71.9152448,168.827622 L24.1581818,168.133007 C25.2784246,159.229084 25.3450382,150.224137 24.3566434,141.304615 C23.8153846,136.108531 23.3643357,131.805524 22.9764336,128.206154 C21.5240559,114.819021 20.4325175,110.840769 20.9918182,93.0243357 C21.2672579,87.2820999 23.9333473,81.9172084 28.3439161,78.2299301 C27.2162937,73.9900699 36.2102098,74.1975524 47.9374825,78.7982517 C48.6230769,79.0688811 48.8395804,81.1437063 49.4890909,81.4413986 C52.3619216,83.0550611 55.0797353,84.9303526 57.607972,87.0434266 C69.5788112,99.3029371 73.1601399,121.936573 73.1601399,149.748252 Z" id="Shape" fill="url(#linearGradient-17)"></path>
                <path d="M146.23007,162.738462 C145.013068,164.551766 143.383925,166.051072 141.476014,167.113636 C132.824895,172.58035 129.27965,170.081538 129.27965,170.081538 C129.27965,170.081538 106.203986,173.374196 68.9473427,163.153427 C60.8284615,155.882517 52.871958,144.425874 46.873007,132.400909 C49.5793007,132.058112 52.0690909,131.634126 54.3153147,131.128951 C64.2383916,128.900769 69.7682517,125.283357 72.8083217,121.837343 C75.2079021,131.507832 77.5172727,138.760699 81.1437063,145.355035 C99.6637762,151.128462 123.343846,165.462797 139.50042,154.24972 C146.338322,157.037203 147.772657,159.950979 146.23007,162.738462 Z" id="Shape" fill="url(#linearGradient-18)"></path>
                <path d="M72.8083217,121.837343 C69.0826573,126.059161 61.6403497,130.542587 46.873007,132.400909 C46.7196503,132.112238 46.5753147,131.814545 46.430979,131.498811 C35.8944755,110.055944 31.7718881,87.0163636 44.5455944,83.0381119 C64.6623776,76.7775524 68.9473427,103.786364 68.9473427,103.786364 C69.8494406,108.36 70.6703497,112.347273 71.4461538,115.865455 C71.9152448,118.048531 72.3662937,120.024126 72.8083217,121.837343 Z" id="Shape" fill="url(#linearGradient-19)"></path>
                <path d="M146.23007,162.738462 C145.013068,164.551766 143.383925,166.051072 141.476014,167.113636 C132.824895,172.58035 129.27965,170.081538 129.27965,170.081538 C129.27965,170.081538 106.203986,173.374196 68.9473427,163.153427 C60.8284615,155.882517 52.871958,144.425874 46.873007,132.400909 C49.5793007,132.058112 52.0690909,131.634126 54.3153147,131.128951 C58.2935664,141.169301 65.2036364,156.595175 70.7244755,158.67 C79.0057343,161.773217 107.972098,169.35986 129.703636,167.97965 C129.703636,167.97965 135.756713,169.783846 143.595944,164.235944 C144.420489,163.648053 145.303148,163.146268 146.23007,162.738462 Z" id="Shape" fill="url(#linearGradient-20)" style="mix-blend-mode: multiply;"></path>
                <path d="M41.6047552,244.883497 L41.1266434,244.558741 C36.2431616,241.275398 31.7568422,237.4369 27.7575524,233.12014 C26.6028671,231.875245 25.4932867,230.585245 24.4107692,229.277203 C21.496993,188.43021 23.8514685,170.153706 24.1220979,168.259301 C23.8063636,170.713007 20.5137063,199.535035 36.3365035,212.416993 C41.298042,216.449371 42.0197203,231.586573 41.6047552,244.883497 Z" id="Shape" fill="#5F279C"></path>
                <polygon id="Shape" fill="#411B6B" points="236.448881 173.247902 241.96972 184.776713 257.422657 28.2446853 256.087552 13.314965"></polygon>
            </g>
        </g>
    </g>
</svg>