<?xml version="1.0" encoding="UTF-8"?>
<svg width="269px" height="276px" viewBox="0 0 269 276" version="1.1" xmlns="http://www.w3.org/2000/svg" xmlns:xlink="http://www.w3.org/1999/xlink">
    <!-- Generator: Sketch 54.1 (76490) - https://sketchapp.com -->
    <title>Not Enough Space w300px</title>
    <desc>Created with Sketch.</desc>
    <defs>
        <linearGradient x1="1.18505814e-05%" y1="49.9991457%" x2="100.000673%" y2="49.9991457%" id="linearGradient-1">
            <stop stop-color="#EF40B9" offset="0%"></stop>
            <stop stop-color="#F9CEC3" offset="100%"></stop>
        </linearGradient>
        <linearGradient x1="0.00304005319%" y1="49.9990765%" x2="99.9997152%" y2="49.9990765%" id="linearGradient-2">
            <stop stop-color="#EF40B9" offset="0%"></stop>
            <stop stop-color="#F9CEC3" offset="100%"></stop>
        </linearGradient>
        <linearGradient x1="50%" y1="-3.54457573%" x2="50%" y2="161.761547%" id="linearGradient-3">
            <stop stop-color="#4627BB" offset="0%"></stop>
            <stop stop-color="#D668E7" offset="94%"></stop>
            <stop stop-color="#E06CEA" offset="100%"></stop>
        </linearGradient>
        <linearGradient x1="48.4343771%" y1="86.2279604%" x2="54.4437042%" y2="-52.0637723%" id="linearGradient-4">
            <stop stop-color="#EF40B9" offset="0%"></stop>
            <stop stop-color="#F9CEC3" offset="100%"></stop>
        </linearGradient>
        <linearGradient x1="49.9015219%" y1="172.371851%" x2="49.9015219%" y2="-143.74457%" id="linearGradient-5">
            <stop stop-color="#4627BB" offset="0%"></stop>
            <stop stop-color="#D668E7" offset="94%"></stop>
            <stop stop-color="#E06CEA" offset="100%"></stop>
        </linearGradient>
        <linearGradient x1="50%" y1="-3.55772585%" x2="50%" y2="161.841646%" id="linearGradient-6">
            <stop stop-color="#4627BB" offset="0%"></stop>
            <stop stop-color="#D668E7" offset="94%"></stop>
            <stop stop-color="#E06CEA" offset="100%"></stop>
        </linearGradient>
        <linearGradient x1="49.9823824%" y1="172.387387%" x2="49.9823824%" y2="-143.738739%" id="linearGradient-7">
            <stop stop-color="#4627BB" offset="0%"></stop>
            <stop stop-color="#D668E7" offset="94%"></stop>
            <stop stop-color="#E06CEA" offset="100%"></stop>
        </linearGradient>
        <linearGradient x1="0.0104307917%" y1="50%" x2="100%" y2="50%" id="linearGradient-8">
            <stop stop-color="#EF40B9" offset="0%"></stop>
            <stop stop-color="#F9CEC3" offset="100%"></stop>
        </linearGradient>
        <linearGradient x1="-17.0266836%" y1="-43.1881399%" x2="68.484585%" y2="81.2607195%" id="linearGradient-9">
            <stop stop-color="#EF40B9" offset="0%"></stop>
            <stop stop-color="#F9CEC3" offset="100%"></stop>
        </linearGradient>
        <linearGradient x1="54.4318867%" y1="146.460348%" x2="44.3840454%" y2="-61.0517408%" id="linearGradient-10">
            <stop stop-color="#EF40B9" offset="0%"></stop>
            <stop stop-color="#F9CEC3" offset="100%"></stop>
        </linearGradient>
        <linearGradient x1="49.9991212%" y1="137.496493%" x2="49.9991212%" y2="-89.7366244%" id="linearGradient-11">
            <stop stop-color="#4627BB" offset="0%"></stop>
            <stop stop-color="#D668E7" offset="94%"></stop>
            <stop stop-color="#E06CEA" offset="100%"></stop>
        </linearGradient>
        <linearGradient x1="33.7781982%" y1="63.7876024%" x2="52.8853726%" y2="47.1638717%" id="linearGradient-12">
            <stop stop-color="#4627BB" offset="0%"></stop>
            <stop stop-color="#D668E7" offset="94%"></stop>
            <stop stop-color="#E06CEA" offset="100%"></stop>
        </linearGradient>
        <linearGradient x1="74.714285%" y1="263.356137%" x2="42.47943%" y2="-10.7479697%" id="linearGradient-13">
            <stop stop-color="#EF40B9" offset="0%"></stop>
            <stop stop-color="#F374BD" offset="37%"></stop>
            <stop stop-color="#F9CEC3" offset="100%"></stop>
        </linearGradient>
        <linearGradient x1="87.1429172%" y1="177.221384%" x2="44.0477691%" y2="30.3193301%" id="linearGradient-14">
            <stop stop-color="#EF40B9" offset="0%"></stop>
            <stop stop-color="#F374BD" offset="37%"></stop>
            <stop stop-color="#F9CEC3" offset="100%"></stop>
        </linearGradient>
        <linearGradient x1="52.3033671%" y1="-34.3518735%" x2="47.2857648%" y2="182.39464%" id="linearGradient-15">
            <stop stop-color="#EF40B9" offset="0%"></stop>
            <stop stop-color="#F9CEC3" offset="100%"></stop>
        </linearGradient>
        <linearGradient x1="50.8181398%" y1="80.1527732%" x2="48.1435058%" y2="-98.2112928%" id="linearGradient-16">
            <stop stop-color="#EF40B9" offset="0%"></stop>
            <stop stop-color="#F9CEC3" offset="100%"></stop>
        </linearGradient>
        <linearGradient x1="61.604765%" y1="189.683804%" x2="46.6914231%" y2="20.6430664%" id="linearGradient-17">
            <stop stop-color="#EF40B9" offset="0%"></stop>
            <stop stop-color="#F374BD" offset="37%"></stop>
            <stop stop-color="#F58CBF" offset="53%"></stop>
            <stop stop-color="#F9CEC3" offset="100%"></stop>
        </linearGradient>
        <linearGradient x1="49.9948575%" y1="83.4101256%" x2="49.9948575%" y2="-14.4451758%" id="linearGradient-18">
            <stop stop-color="#4627BB" offset="0%"></stop>
            <stop stop-color="#D668E7" offset="94%"></stop>
            <stop stop-color="#E06CEA" offset="100%"></stop>
        </linearGradient>
        <linearGradient x1="30.1362884%" y1="58.9375473%" x2="113.265826%" y2="30.0686323%" id="linearGradient-19">
            <stop stop-color="#EF40B9" offset="0%"></stop>
            <stop stop-color="#F9CEC3" offset="100%"></stop>
        </linearGradient>
        <linearGradient x1="40.2168345%" y1="51.8712312%" x2="74.2513223%" y2="45.3591836%" id="linearGradient-20">
            <stop stop-color="#4627BB" offset="0%"></stop>
            <stop stop-color="#D668E7" offset="94%"></stop>
            <stop stop-color="#E06CEA" offset="100%"></stop>
        </linearGradient>
        <linearGradient x1="39.6488284%" y1="82.882849%" x2="77.2376444%" y2="-32.8922779%" id="linearGradient-21">
            <stop stop-color="#4627BB" offset="0%"></stop>
            <stop stop-color="#D668E7" offset="94%"></stop>
            <stop stop-color="#E06CEA" offset="100%"></stop>
        </linearGradient>
        <linearGradient x1="50.0052154%" y1="172.325655%" x2="50.0052154%" y2="-143.673083%" id="linearGradient-22">
            <stop stop-color="#4627BB" offset="0%"></stop>
            <stop stop-color="#D668E7" offset="94%"></stop>
            <stop stop-color="#E06CEA" offset="100%"></stop>
        </linearGradient>
        <linearGradient x1="50.0054699%" y1="-3.51791531%" x2="50.0054699%" y2="161.889251%" id="linearGradient-23">
            <stop stop-color="#4627BB" offset="0%"></stop>
            <stop stop-color="#D668E7" offset="94%"></stop>
            <stop stop-color="#E06CEA" offset="100%"></stop>
        </linearGradient>
        <linearGradient x1="48.4373738%" y1="86.2790168%" x2="54.4375353%" y2="-52.2016928%" id="linearGradient-24">
            <stop stop-color="#EF40B9" offset="0%"></stop>
            <stop stop-color="#F9CEC3" offset="100%"></stop>
        </linearGradient>
        <linearGradient x1="50%" y1="172.361148%" x2="50%" y2="-143.669387%" id="linearGradient-25">
            <stop stop-color="#4627BB" offset="0%"></stop>
            <stop stop-color="#D668E7" offset="94%"></stop>
            <stop stop-color="#E06CEA" offset="100%"></stop>
        </linearGradient>
        <linearGradient x1="50%" y1="-3.55179704%" x2="50%" y2="161.860465%" id="linearGradient-26">
            <stop stop-color="#4627BB" offset="0%"></stop>
            <stop stop-color="#D668E7" offset="94%"></stop>
            <stop stop-color="#E06CEA" offset="100%"></stop>
        </linearGradient>
        <linearGradient x1="50.0193601%" y1="172.379913%" x2="50.0193601%" y2="-143.668122%" id="linearGradient-27">
            <stop stop-color="#4627BB" offset="0%"></stop>
            <stop stop-color="#D668E7" offset="94%"></stop>
            <stop stop-color="#E06CEA" offset="100%"></stop>
        </linearGradient>
    </defs>
    <g id="Page-1" stroke="none" stroke-width="1" fill="none" fill-rule="evenodd">
        <g id="Not-Enough-Space" transform="translate(-53.000000, -114.000000)" fill-rule="nonzero">
            <g id="Not-Enough-Space-w300px" transform="translate(53.000000, 114.000000)">
                <g id="Layer_3" transform="translate(0.000000, 23.000000)">
                    <path d="M126.28815,40.6145349 C160.997661,66.2416908 155.617661,64.0344072 194.905072,74.7488764 C246.198188,88.5051216 240.782081,39.8444324 220.783749,21.6478639 C200.785417,3.45129537 171.463643,-6.79699141 136.225417,5.15118713 C121.834046,10.0216346 113.328178,31.0462048 126.28815,40.6145349 Z" id="Shape" fill="url(#linearGradient-1)" opacity="0.27"></path>
                    <path d="M54.2513423,110.160712 C100.448159,79.1170831 100.448159,54.4609259 138.123634,73.5460742 C176.317507,92.893933 178.424631,83.5033189 224.136577,96.9015566 C273.745542,111.659708 286.127795,164.343474 240.521592,210.719612 C198.451333,254.677267 62.9944871,239.911389 23.7277085,206.258684 C-15.53907,172.605978 -5.67401726,150.430118 54.2513423,110.160712 Z" id="Shape" fill="url(#linearGradient-2)" opacity="0.27"></path>
                    <polygon id="Shape" fill="url(#linearGradient-3)" points="35.8726846 211.167765 50.1608917 211.541226 50.039674 213.565643 36.0583797 213.029919"></polygon>
                    <polygon id="Shape" fill="url(#linearGradient-4)" points="55.2288207 206.181416 50.1608917 211.541226 48.577325 211.500017 40.5202205 211.288818 35.8726846 211.167765 44.5951965 205.571 47.5508437 205.740989 50.2769511 205.895525"></polygon>
                    <path d="M49.0028763,210.912781 C48.8919751,211.090497 48.7449664,211.288818 48.5850623,211.500017 L40.5279578,211.288818 L35.8855801,211.167765 L44.608092,205.571 L47.5637392,205.740989 L50.2898466,205.895525 C49.1060403,206.137631 47.1588207,206.668203 46.8183797,207.631475 C46.305139,209.022296 49.6914957,209.818154 49.0028763,210.912781 Z" id="Shape" fill="url(#linearGradient-5)" opacity="0.31"></path>
                    <polygon id="Shape" fill="url(#linearGradient-6)" points="55.2288207 206.181416 55.0998658 208.064175 50.039674 213.565643 50.1608917 211.541226"></polygon>
                    <path d="M48.5979578,208.028116 C47.3084084,209.315913 44.3114957,208.723527 41.7220805,210.415692 C41.2887919,210.699007 40.8864525,210.9952 40.5202205,211.288818 L35.8778428,211.167765 L44.6003547,205.571 L47.5560019,205.740989 C48.3709971,206.534272 49.2607862,207.37134 48.5979578,208.028116 Z" id="Shape" fill="url(#linearGradient-7)"></path>
                    <polyline id="Shape" fill="url(#linearGradient-8)" points="201.878955 242.144429 201.878955 243.679483 207.87278 248.707041 226.604775 245.425735 226.604775 244.447009 201.878955 242.144429"></polyline>
                </g>
                <g id="Layer_8" transform="translate(15.000000, 80.000000)">
                    <path d="M76.9248293,108.961035 C76.9248293,108.961035 68.7425956,118.170277 45.8678378,106.151741 C39.8977014,102.997333 33.6371028,100.425455 27.1729384,98.4718037 L28.3535877,91.1542733 L24.5749956,97.7315688 C23.5598259,97.4591212 22.569521,97.209806 21.6040808,96.9836231 L23.4406463,88.4657813 L17.2853224,96.0866023 C16.3901897,95.9152517 15.5242087,95.7704604 14.6873796,95.6522284 L17.2055836,89.7174979 L10.3377546,95.115044 C3.82746425,94.4827601 0,94.9582582 0,94.9582582 C1.09405095,91.7607289 2.88547572,88.8460663 5.24475781,86.4249948 C6.51014168,85.1145061 7.93716669,83.9701288 9.49149402,83.0194002 C14.7902685,79.7885833 23.7647461,79.6497892 31.9289743,77.750367 C50.6676014,73.3963465 57.6511803,89.3859344 67.3175854,100.759335 C70.1624613,104.095533 73.2414094,107.048762 76.9248293,108.961035 Z" id="Shape" fill="url(#linearGradient-9)"></path>
                    <path d="M67.3175854,100.754195 L67.0346411,102.196111 C52.6122002,99.641272 44.9366939,88.2498794 29.5831091,83.3689555 C21.3674365,80.7575713 12.092009,83.4023689 5.2318967,86.427565 C6.50110479,85.1153092 7.93250105,83.9700285 9.49149402,83.0194002 C14.7902685,79.7885833 23.7647461,79.6497892 31.9289743,77.750367 C50.6727458,73.3886357 57.6460359,89.3782236 67.3175854,100.754195 Z" id="Shape" fill="#B85CDE"></path>
                    <path d="M80.4513437,54.0294369 C81.1458433,77.0101321 76.8502349,73.7330505 79.5279165,93.9661378 C82.4679647,116.250293 83.7875139,119.452837 61.5841056,103.409273 C38.2643537,86.5586483 59.1122016,76.5577664 45.4897213,49.7885078 C30.2981865,19.9452181 36.134555,0.102810403 36.134555,0.102810403 C42.0385488,4.10280608 47.7252046,8.41409482 53.170372,13.0183672 L48.6149694,19.0636189 L56.2570368,15.694008 C58.6466297,17.809332 61.0670893,20.0634501 63.40781,22.4358001 L52.8179778,27.2910214 L66.7439802,25.9416349 C76.3100686,33.7912091 80.279005,48.2643435 80.4513437,54.0294369 Z" id="Shape" fill="#B85CDE"></path>
                    <path d="M36.134555,0.102810403 C36.134555,0.102810403 26.1852057,14.5219694 32.193913,30.4113171 L35.5506609,30.2339692 L32.8987015,32.1770858 C32.8987015,32.1770858 35.1956945,39.9444117 38.5575868,43.4862301 L41.7394237,43.840926 L39.4424307,45.7814723 C39.4424307,45.7814723 46.8632871,52.1377255 46.5083207,59.0234522 C46.1533542,65.9091789 43.4319448,98.8727643 65.7228086,106.408767 C63.2571047,99.0942521 61.6591121,91.5158269 60.9616282,83.8290321 C60.0073344,72.6689629 61.8619055,59.6685875 59.0041684,51.8729887 C55.7245871,42.9156323 46.3848541,34.98638 42.722012,27.0237143 C36.880499,14.3086378 36.134555,0.102810403 36.134555,0.102810403 Z" id="Shape" fill="url(#linearGradient-10)"></path>
                </g>
                <g id="Layer_14" transform="translate(12.000000, 0.000000)">
                    <path d="M206.493416,185.606773 C206.493416,185.606773 206.808638,174.904995 213.107903,175.219981 C219.407168,175.534967 218.776724,184.514649 221.611135,187.6516 C224.445546,190.78855 227.437568,189.699008 227.752789,192.5313 C228.068011,195.363592 227.114595,196.93594 222.722162,196.781029 C218.32973,196.626118 211.381935,193.476258 211.381935,193.476258 L206.493416,185.606773 Z" id="Shape" fill="#000000"></path>
                    <path d="M222.722162,191.113863 C222.722162,191.113863 222.406941,187.6516 225.871795,188.124079 C229.336649,188.596558 230.752562,188.911543 230.437341,190.964116 C230.122119,193.016688 228.390984,195.213845 225.714184,196.158803 C223.037384,197.103761 222.722162,191.113863 222.722162,191.113863 Z" id="Shape" fill="#000000"></path>
                    <path d="M185.960086,147.04681 C185.960086,147.04681 202.550562,161.30638 197.240886,190.163742 L115.939546,180.538597 L138.506314,144.725725 L185.960086,147.04681 Z" id="Shape" fill="#303030"></path>
                    <path d="M200.982205,226.83637 C200.982205,226.83637 210.578378,222.901628 216.521081,193.809317 C216.521081,193.809317 216.169686,182.75899 210.836757,181.692685 C205.503827,180.62638 206.924908,191.286848 196.625946,196.618372 L200.982205,226.83637 Z" id="Shape" fill="#303030"></path>
                    <path d="M69.8293405,174.016838 C69.8293405,174.016838 66.3360649,175.227727 55.5177622,183.536127 C43.4514919,192.807558 31.488573,201.836296 29.7522703,206.759888 C26.7783351,214.074275 38.6172324,226.048906 38.6172324,226.048906 L182.495232,221.109822 L206.043838,181.814032 L69.8293405,174.016838 Z" id="Shape" fill="#8A2360"></path>
                    <path d="M180.908789,215.295491 L180.908789,275.956109 L35.0774486,269.46275 C34.4157898,269.432415 33.8947595,268.887902 33.8940757,268.226043 L33.8940757,212.716221 C33.9003542,211.587872 34.3682648,210.511198 35.1891074,209.73632 C36.0099499,208.961443 37.1122744,208.555811 38.24,208.613658 L175.836822,216.077792 L177.247568,216.152666 L177.278573,216.152666 C178.545529,216.216958 179.804636,215.919655 180.908789,215.295491 L180.908789,215.295491 Z" id="Shape" fill="url(#linearGradient-11)"></path>
                    <path d="M83.1978378,202.417212 C79.6554703,203.380243 76.7383784,205.936277 74.4517297,208.740168 C70.6949081,213.387502 68.7260649,218.711282 68.7260649,218.711282 L41.0795784,217.572685 C41.8508402,214.655624 42.950815,211.835418 44.3584,209.166174 C48.2599135,201.921497 52.7582811,200.333658 52.7582811,200.333658 L83.1978378,202.417212 Z" id="Shape" stroke="#D5AEF5" stroke-width="5" fill="#F26EBC"></path>
                    <path d="M83.1978378,202.417212 C79.6554703,203.380243 76.7383784,205.936277 74.4517297,208.740168 C71.1987459,208.88217 67.1215351,209.124864 62.1374162,209.514724 C55.9363351,210.015603 49.6913297,209.716109 44.3584,209.158428 C48.2599135,201.913751 52.7582811,200.325912 52.7582811,200.325912 L83.1978378,202.417212 Z" id="Shape" fill="#F2F2F2" style="mix-blend-mode: multiply;"></path>
                    <path d="M162.359805,55.2800374 C162.359805,55.2800374 180.70467,60.65029 187.634378,52.7317493 L171.893968,45.9079139 L162.359805,55.2800374 Z" id="Shape" fill="#000000"></path>
                    <path d="M206.041254,181.814032 C206.041254,181.814032 197.514768,185.24015 182.185178,210.049167 C180.777016,212.331525 178.916692,214.273078 176.242476,214.040711 L41.0821622,202.350084 C39.924627,202.301029 40.0615676,201.433527 40.2811892,199.954125 C46.0662811,190.81695 66.5117622,172.519364 72.7386811,172.529691 L108.260541,174.628737 L138.082573,176.38956 L168.173319,178.168457 L201.018378,180.110009 L204.635676,180.324303 C205.425571,180.369518 206.042549,181.023434 206.041254,181.814032 L206.041254,181.814032 Z" id="Shape" fill="url(#linearGradient-12)"></path>
                    <path d="M129.982411,182.720262 C131.465503,187.589635 135.491038,191.397867 127.018811,190.982189 C118.546584,190.566511 119.394065,188.217025 108.593849,194.155285 C97.7936324,200.093545 90.1740541,192.244715 90.1740541,192.244715 L108.260541,174.628737 L138.082573,176.38956 C134.806335,177.19768 128.899805,179.180543 129.982411,182.720262 Z" id="Shape" fill="#D6D6D6" style="mix-blend-mode: multiply;"></path>
                    <path d="M201.018378,180.110009 C197.072941,182.795136 187.9496,182.407858 181.446216,188.217025 C179.443784,190.006249 177.345751,193.540804 173.82147,195.410065 C170.297189,197.279326 165.27173,197.516857 162.597514,198.374032 C143.903838,204.353601 136.292011,196.179457 136.292011,196.179457 L168.170735,178.160711 L201.018378,180.110009 Z" id="Shape" fill="#D6D6D6" style="mix-blend-mode: multiply;"></path>
                    <path d="M147.665827,21.852797 C147.665827,21.852797 143.601535,31.6948176 138.129081,28.8831805 C138.129081,28.8831805 135.940616,40.597044 151.104843,49.0216277 L147.665827,21.852797 Z" id="Shape" fill="#000000"></path>
                    <path d="M146.438528,7.90821328 C146.438528,7.90821328 146.415276,14.3628438 154.856497,17.6366324 L162.82747,9.66903648 C162.82747,9.66903648 149.117914,10.3635547 146.438528,7.90821328 Z" id="Shape" fill="#000000"></path>
                    <path d="M184.445989,38.6477456 C182.262692,46.3649018 176.035773,52.2360337 171.167924,56.2533957 C170.894043,56.4780168 170.617578,56.6948924 170.335946,56.8988587 C164.109027,61.401609 156.192314,60.5134518 152.634443,59.8086062 C151.456238,59.5710758 150.750865,59.3516183 150.750865,59.3516183 C150.6656,58.8713938 150.575168,58.3937512 150.479568,57.9290178 C150.053243,55.8402993 149.533903,53.8987465 149.058486,52.2928344 C148.267849,49.6490178 147.583146,47.9036857 147.583146,47.9036857 C146.139245,47.509833 144.781809,46.8495737 143.580865,45.9569691 C138.539903,42.1203368 138.490811,34.3928531 145.043286,23.9776614 C153.027178,11.2878578 159.91813,8.7447334 159.91813,8.7447334 C163.184032,7.29373246 170.080151,1.48972872 180.965632,19.2606174 C185.515676,26.6731151 186.006595,33.1303274 184.445989,38.6477456 Z" id="Shape" fill="url(#linearGradient-13)"></path>
                    <path d="M184.445989,38.6477456 C182.262692,46.3649018 176.035773,52.2360337 171.167924,56.2533957 C170.894043,56.4780168 170.617578,56.6948924 170.335946,56.8988587 C164.109027,61.401609 156.192314,60.5134518 152.634443,59.8086062 C151.456238,59.5710758 150.750865,59.3516183 150.750865,59.3516183 C150.6656,58.8713938 150.575168,58.3937512 150.479568,57.9290178 C150.053243,55.8402993 149.533903,53.8987465 149.058486,52.2928344 C148.267849,49.6490178 147.583146,47.9036857 147.583146,47.9036857 C147.583146,47.9036857 167.56613,51.5570065 182.57533,35.4359214 L184.445989,38.6477456 Z" id="Shape" fill="#DE7CAB"></path>
                    <path d="M137.521892,19.6556408 C138.154919,18.4421703 140.054,17.4197568 143.846995,19.25029 C142.222385,20.1593581 140.539233,20.9597673 138.808616,21.6462488 C137.258346,22.2736389 136.888865,20.8716932 137.516724,19.6556408" id="Shape" fill="#8944CE"></path>
                    <path d="M117.006649,23.1333957 C117.544076,21.8734518 119.363059,20.7090365 123.285243,22.2452385 C121.734098,23.2750629 120.116574,24.2013824 118.443232,25.0181478 C116.952389,25.7617212 116.469222,24.3907577 117.006649,23.1333957" id="Shape" fill="#8944CE"></path>
                    <path d="M126.638995,39.7605239 C126.401286,38.6632367 127.062735,37.0211787 130.41907,36.1846586 C130.41907,36.1846586 130.315719,37.6537325 129.067751,40.0574369 C128.828421,40.5558315 128.29808,40.8466381 127.748818,40.7806592 C127.199557,40.7146803 126.753298,40.3065617 126.638995,39.7656876" id="Shape" fill="#8944CE"></path>
                    <path d="M150.479568,57.9290178 C142.407827,55.863536 149.058486,52.2928344 149.058486,52.2928344 C149.533903,53.8987465 150.053243,55.8402993 150.479568,57.9290178 Z" id="Shape" fill="#512BBE"></path>
                    <path d="M164.938422,175.787989 L162.613016,177.853471 C162.613016,177.853471 162.060086,182.407858 156.09413,181.468064 C146.425611,179.694331 143.027935,185.462189 135.770086,190.835023 C130.442324,194.777512 142.61453,202.819981 152.244292,198.226866 C162.998,193.10189 160.576995,194.643255 166.736735,194.336015 C173.994584,193.974556 173.906735,189.546679 177.381924,184.907091 C180.857114,180.267502 169.134486,176.59869 164.938422,175.787989 Z" id="Shape" fill="url(#linearGradient-14)"></path>
                    <path d="M201.535135,117.342601 C201.201827,129.926548 199.408681,143.093994 193.484065,157.547203 C183.575254,181.723667 179.384357,190.742077 179.384357,190.742077 C179.384357,190.742077 174.906659,185.320187 169.537557,181.976688 C166.80133,180.275248 163.835146,179.12116 161.111838,179.51102 C161.111838,179.51102 167.336173,166.614668 169.178411,160.167783 C169.178411,160.167783 155.399092,162.127409 137.431459,154.451562 L137.431459,154.467053 C137.294519,155.032479 132.90467,173.200973 126.781103,181.81145 C126.781103,181.81145 117.823124,173.719925 107.100422,174.179495 C107.100422,174.179495 125.398778,146.122507 124.92853,127.473789 C124.4712,108.905108 124.367849,58.5848082 137.847449,58.16913 C137.906876,58.16913 137.97147,58.16913 138.030897,58.16913 C151.262454,58.205276 170.346281,61.8534331 170.346281,61.8534331 C170.346281,61.8534331 171.379795,63.4670907 179.389524,66.4594574 C180.182746,66.7563704 181.014724,67.1023386 181.872541,67.5051076 C189.69107,71.1713377 200.431859,74.2773059 201.054551,92.5335828 C201.318097,100.676745 201.752173,108.876707 201.535135,117.342601 Z" id="Shape" fill="url(#linearGradient-15)"></path>
                    <path d="M178.229405,93.1325725 C180.278346,106.689878 179.063968,123.193078 175.870411,138.105856 C174.147027,146.161235 171.847459,153.75188 169.168076,160.170365 C169.168076,160.170365 155.388757,162.127409 137.421124,154.451562 C137.421124,154.451562 139.674184,145.311805 139.764616,135.733134 C139.816292,130.176988 139.141924,124.471094 136.881114,120.314312 C130.718789,108.987727 130.80147,100.062264 133.364584,92.3812535 C133.800959,91.0727643 134.160714,89.7399941 134.442022,88.38971 C134.506616,88.0798877 134.566043,87.7726473 134.620303,87.4705706 C134.620303,87.4705706 134.620303,87.4705706 134.620303,87.4550795 C134.648724,87.3001684 134.674562,87.1478391 134.7004,86.9980917 C134.715903,86.9025631 134.785665,86.4817212 134.801168,86.3500468 C134.881265,85.8336763 135.015622,84.6821703 135.025957,84.6021328 C135.090551,83.9515061 135.242995,82.7948363 135.4652,81.2999439 C136.126649,76.8178485 137.413373,69.3717867 138.787946,64.091899 C140.263286,58.4428064 144.47227,58.4118241 144.877924,58.4428064 C157.649568,59.0366324 170.330778,61.8508513 170.330778,61.8508513 C170.330778,61.8508513 171.364292,63.461927 179.374022,66.4542937 C178.08213,68.5533396 174.1832,72.7023761 177.609297,89.6186717 C177.84356,90.765014 178.050263,91.9363143 178.229405,93.1325725 Z" id="Shape" fill="url(#linearGradient-16)"></path>
                    <path d="M177.611881,89.6186717 C177.844422,90.765014 178.050263,91.9363143 178.229405,93.1325725 C168.821849,91.691899 159.853535,85.4283255 147.384195,84.9919925 C143.149605,84.8740807 139.028635,83.5970082 135.470368,81.2999439 C136.131816,76.8178485 137.418541,69.3717867 138.793114,64.091899 C140.268454,58.4428064 144.477438,58.4118241 144.883092,58.4428064 C157.654735,59.0366324 170.335946,61.8508513 170.335946,61.8508513 C170.335946,61.8508513 171.369459,63.461927 179.379189,66.4542937 C178.084714,68.5533396 174.185784,72.7023761 177.611881,89.6186717 Z" id="Shape" fill="#F593BF" opacity="0.27"></path>
                    <path d="M175.870411,138.105856 C174.147027,146.161235 171.847459,153.75188 169.168076,160.170365 C169.168076,160.170365 155.388757,162.127409 137.421124,154.451562 C137.421124,154.451562 139.674184,145.311805 139.764616,135.733134 C145.29133,137.948363 149.629503,139.776314 154.887503,140.504397 C167.896854,142.208419 171.736357,139.22638 175.870411,138.105856 Z" id="Shape" fill="#F2F2F2" style="mix-blend-mode: multiply;"></path>
                    <path d="M111.877838,172.532273 L107.082335,174.179495 C107.082335,174.179495 101.584043,174.373134 96.018573,180.892311 C87.3603135,191.036408 87.8253946,192.719775 94.0988216,193.933246 C106.823957,196.393751 108.795384,190.527783 113.4772,186.838316 C119.621438,181.997343 122.003686,188.387428 125.013795,190.034649 C128.023903,191.681871 134.728822,191.126773 129.390724,186.616277 C124.052627,182.105781 126.757849,181.814032 126.757849,181.814032 C126.757849,181.814032 119.13827,173.500468 111.877838,172.532273 Z" id="Shape" fill="url(#linearGradient-17)"></path>
                    <path d="M146.482454,55.4375304 C146.482454,55.4375304 148.384119,59.6950047 149.324616,67.6264546 C149.324616,67.6264546 155.091622,75.3720112 164.636119,69.8933209 C166.853005,68.6230496 169.930292,65.7391207 170.320443,61.8508513 L170.320443,50.3461179 C170.320443,50.3461179 157.822681,63.0462488 146.482454,55.4375304 Z" id="Shape" fill="#EF44B9"></path>
                    <path d="M146.43853,7.90821328 C146.43853,7.90821328 151.128097,14.7010664 167.305168,10.4900655 C167.305168,10.4900655 173.870562,21.2667166 172.229859,29.469261 C170.589157,37.6718054 162.850724,43.7598129 156.520454,40.0109635 C156.520454,40.0109635 162.147935,54.7714125 174.105686,56.4134705 C186.063438,58.0555285 191.455795,50.5552479 193.331622,40.7132273 C195.207449,30.8712067 194.739784,19.862189 186.063438,15.4110758 C177.387092,10.9599626 175.663708,9.47281572 170.589157,4.1645276 C164.491427,-1.69369504 159.334195,-0.756482694 155.344832,3.22731525 C151.35547,7.21111319 149.25227,7.43831618 146.43853,7.90821328 Z" id="Shape" fill="#000000"></path>
                    <path d="M143.580865,45.9569691 L147.583146,47.9062675 C146.139058,47.5116292 144.78161,46.8504884 143.580865,45.9569691 L143.580865,45.9569691 Z" id="Shape" fill="#F9CDC3"></path>
                    <path d="M206.041255,181.814032 L206.041254,227.512816 C206.042121,229.505972 205.536242,231.466678 204.571081,233.210964 L180.908789,275.953527 L180.908789,215.295491 C181.694959,214.856315 182.384721,214.26365 182.937059,213.552741 L183.055914,213.390084 L206.041255,181.814032 Z" id="Shape" fill="url(#linearGradient-18)"></path>
                    <path d="M206.041255,203.744284 L206.041254,227.515398 C206.042121,229.508554 205.536242,231.46926 204.571081,233.213545 L180.908789,275.956109 L35.0774486,269.46275 C34.4157898,269.432415 33.8947595,268.887902 33.8940757,268.226043 L33.8940757,229.175529 C56.5874486,232.531936 78.6503784,251.707353 120.272551,251.707353 C166.803914,251.707353 180.433373,247.010964 180.433373,247.010964 C180.433373,247.010964 180.603903,246.941254 180.908789,246.788924 C183.130843,245.696801 192.535816,240.223274 195.00333,224.938709 C196.339146,216.697437 201.250919,209.277194 206.041255,203.744284 Z" id="Shape" fill="#E0E0E0" style="mix-blend-mode: multiply;"></path>
                    <polygon id="Shape" fill="url(#linearGradient-19)" points="238.860476 239.755959 234.8892 246.373246 229.998097 254.526735 198.289903 252.843368 205.741535 245.673564 209.989276 241.589074 228.639027 241.387689 229.889578 239.755959"></polygon>
                    <polygon id="Shape" fill="url(#linearGradient-20)" points="198.77307 255.270309 198.289903 252.845949 229.998097 254.529317 230.209968 256.618036"></polygon>
                    <polygon id="Shape" fill="url(#linearGradient-21)" points="238.860476 239.755959 229.998097 254.529317 230.209968 256.618036 238.860476 241.209542"></polygon>
                    <path d="M204.038822,30.9822264 C204.100832,30.1560337 201.051968,27.8426941 198.517276,27.5715996 C199.454348,29.0558418 200.66839,30.3461115 202.093232,31.3720861 C202.914876,31.9555847 203.974227,31.8084191 204.038822,30.9822264" id="Shape" fill="#8944CE"></path>
                    <path d="M185.316724,205.125575 C185.316724,205.125575 192.667589,204.764116 197.460508,212.612947 L200.76,205.311469 C200.76,205.311469 194.486573,197.679514 189.202735,199.435173 L185.316724,205.125575 Z" id="Shape" fill="#C284F5"></path>
                    <path d="M197.450173,212.602619 L195.496832,215.442657 C195.496832,215.442657 193.47373,212.186941 189.194984,209.904584 C186.593114,208.510384 182.952562,208.820206 182.952562,208.820206 L185.316724,205.133321 C185.316724,205.133321 192.972476,204.188363 197.460508,212.620692" id="Shape" fill="#CAA7E8"></path>
                    <polygon id="Shape" fill="url(#linearGradient-22)" points="196.917914 271.053171 215.389384 268.535865 205.733784 262.871282 190.618649 266.227689"></polygon>
                    <polygon id="Shape" fill="url(#linearGradient-23)" points="0.186032432 250.367371 23.8044 250.981852 23.6054486 254.330514 0.490918919 253.444939"></polygon>
                    <polygon id="Shape" fill="url(#linearGradient-24)" points="32.181027 242.118354 23.8044 250.981852 21.1844432 250.914724 7.86762162 250.568756 0.186032432 250.369953 14.6035459 241.106268 19.4868973 241.387689 23.9930162 241.645875"></polygon>
                    <path d="M21.8768973,249.943948 C21.6908649,250.235697 21.4531568,250.566174 21.1844432,250.914724 L7.86762162,250.566174 L0.186032432,250.367371 L14.6035459,241.106268 L19.4868973,241.387689 L23.9930162,241.645875 C22.0396757,242.04348 18.8254486,242.936801 18.2544324,244.514312 C17.4302054,246.82507 23.0292649,248.134069 21.8768973,249.943948 Z" id="Shape" fill="url(#linearGradient-25)" opacity="0.31"></path>
                    <polygon id="Shape" fill="url(#linearGradient-26)" points="32.1836108 242.118354 31.9691568 245.232067 23.6054486 254.330514 23.8044 250.981852"></polygon>
                    <path d="M21.2180324,245.172685 C19.0760757,247.310458 14.1358811,246.324191 9.84938378,249.120337 C9.13109189,249.590234 8.46705946,250.078204 7.86245405,250.566174 L0.180864865,250.367371 L14.5983784,241.106268 L19.4817297,241.387689 C20.8433838,242.694107 22.3058054,244.085725 21.2180324,245.172685 Z" id="Shape" fill="url(#linearGradient-27)"></path>
                    <path d="M121.479178,209.303012 C120.789367,209.60305 120.136517,209.981645 119.533589,210.431282 C115.032638,213.767035 114.123146,220.149373 114.123146,220.149373 L86.6678595,218.700954 C86.8566759,215.52275 87.8884577,212.451997 89.6572973,209.803891 C90.3940605,208.676216 91.2964275,207.665728 92.3340973,206.806361 L92.3496,206.806361 L121.479178,209.303012 Z" id="Shape" fill="#F26EBC"></path>
                    <path d="M121.479178,209.303012 C120.789367,209.60305 120.136517,209.981645 119.533589,210.431282 C112.947524,210.28928 95.9772324,209.914911 89.6547135,209.803891 C90.3922636,208.676033 91.2955103,207.665536 92.3340973,206.806361 L92.3496,206.806361 L121.479178,209.303012 Z" id="Shape" fill="#F2F2F2" style="mix-blend-mode: multiply;"></path>
                    <path d="M238.860476,239.755959 L234.8892,246.373246 C230.731892,245.880112 224.419708,245.59869 218.575189,247.147802 C214.269449,248.351446 209.663329,247.824181 205.741535,245.678728 L209.989276,241.591656 L228.639027,241.392853 L229.889578,239.761123 L238.860476,239.755959 Z" id="Shape" fill="#F2F2F2" style="mix-blend-mode: multiply;"></path>
                    <path d="M201.535135,117.342601 C201.201827,129.926548 199.408681,143.093994 193.484065,157.547203 C183.575254,181.723667 179.384357,190.742077 179.384357,190.742077 C179.384357,190.742077 174.906659,185.320187 169.537557,181.976688 C178.534292,169.100992 184.084259,152.923106 194.23853,139.781478 C198.085784,134.788176 200.310422,126.510758 201.535135,117.342601 Z" id="Shape" fill="#757575" style="mix-blend-mode: overlay;"></path>
                </g>
            </g>
        </g>
    </g>
</svg>