<?xml version="1.0" encoding="UTF-8"?>
<svg width="300px" height="250px" viewBox="0 0 300 250" version="1.1" xmlns="http://www.w3.org/2000/svg" xmlns:xlink="http://www.w3.org/1999/xlink">
    <!-- Generator: Sketch 54.1 (76490) - https://sketchapp.com -->
    <title>Give Review w300px</title>
    <desc>Created with Sketch.</desc>
    <defs>
        <linearGradient x1="23.0924546%" y1="108.277877%" x2="59.299283%" y2="24.138825%" id="linearGradient-1">
            <stop stop-color="#EF40B9" offset="0%"></stop>
            <stop stop-color="#F9CEC3" offset="100%"></stop>
        </linearGradient>
        <linearGradient x1="10.9662383%" y1="90.0319752%" x2="64.7407993%" y2="34.9695974%" id="linearGradient-2">
            <stop stop-color="#EF40B9" offset="0%"></stop>
            <stop stop-color="#F9CEC3" offset="100%"></stop>
        </linearGradient>
        <linearGradient x1="82.1625043%" y1="56.4816027%" x2="-55.4159973%" y2="28.7605218%" id="linearGradient-3">
            <stop stop-color="#4627BB" offset="0%"></stop>
            <stop stop-color="#E06CEA" offset="100%"></stop>
        </linearGradient>
        <linearGradient x1="118.120109%" y1="67.6617168%" x2="-56.4953117%" y2="19.1128174%" id="linearGradient-4">
            <stop stop-color="#EF40B9" offset="0%"></stop>
            <stop stop-color="#F9CEC3" offset="100%"></stop>
        </linearGradient>
        <linearGradient x1="1.22223213%" y1="51.3022271%" x2="103.086805%" y2="48.5837471%" id="linearGradient-5">
            <stop stop-color="#FFC98B" offset="0%"></stop>
            <stop stop-color="#FFF2E2" offset="100%"></stop>
        </linearGradient>
        <linearGradient x1="6.61043546%" y1="52.5463335%" x2="230.561004%" y2="39.401239%" id="linearGradient-6">
            <stop stop-color="#FFC98B" offset="0%"></stop>
            <stop stop-color="#FFF2E2" offset="100%"></stop>
        </linearGradient>
        <linearGradient x1="50.042689%" y1="94.2771352%" x2="50.042689%" y2="22.5942302%" id="linearGradient-7">
            <stop stop-color="#FFC98B" offset="0%"></stop>
            <stop stop-color="#FFF2E2" offset="100%"></stop>
        </linearGradient>
        <linearGradient x1="50.0462444%" y1="94.2780455%" x2="50.0462444%" y2="22.606543%" id="linearGradient-8">
            <stop stop-color="#FFC98B" offset="0%"></stop>
            <stop stop-color="#FFF2E2" offset="100%"></stop>
        </linearGradient>
        <linearGradient x1="50.0035127%" y1="94.2691232%" x2="50.0035127%" y2="22.4858622%" id="linearGradient-9">
            <stop stop-color="#FFC98B" offset="0%"></stop>
            <stop stop-color="#FFF2E2" offset="100%"></stop>
        </linearGradient>
        <linearGradient x1="50.0959063%" y1="94.2771352%" x2="50.0959063%" y2="22.5942302%" id="linearGradient-10">
            <stop stop-color="#FFC98B" offset="0%"></stop>
            <stop stop-color="#FFF2E2" offset="100%"></stop>
        </linearGradient>
        <linearGradient x1="50.0692607%" y1="94.2802298%" x2="50.0692607%" y2="22.6360871%" id="linearGradient-11">
            <stop stop-color="#FFC98B" offset="0%"></stop>
            <stop stop-color="#FFF2E2" offset="100%"></stop>
        </linearGradient>
        <linearGradient x1="45.7598483%" y1="25.6425299%" x2="54.0944743%" y2="89.1729258%" id="linearGradient-12">
            <stop stop-color="#E3CFFF" offset="0%"></stop>
            <stop stop-color="#AA99E8" offset="100%"></stop>
        </linearGradient>
        <linearGradient x1="24.8853109%" y1="6.52598166%" x2="80.4288431%" y2="114.286964%" id="linearGradient-13">
            <stop stop-color="#E3CFFF" offset="0%"></stop>
            <stop stop-color="#AA99E8" offset="100%"></stop>
        </linearGradient>
        <linearGradient x1="-27.2521955%" y1="64.3550303%" x2="25.7883354%" y2="53.9036514%" id="linearGradient-14">
            <stop stop-color="#EF40B9" offset="0%"></stop>
            <stop stop-color="#F9CEC3" offset="100%"></stop>
        </linearGradient>
        <linearGradient x1="-30.6657003%" y1="65.811127%" x2="24.9909765%" y2="53.8649501%" id="linearGradient-15">
            <stop stop-color="#EF40B9" offset="0%"></stop>
            <stop stop-color="#F9CEC3" offset="100%"></stop>
        </linearGradient>
        <linearGradient x1="0.0416297928%" y1="50%" x2="100.076704%" y2="50%" id="linearGradient-16">
            <stop stop-color="#E06CEA" offset="0%"></stop>
            <stop stop-color="#160F45" offset="100%"></stop>
        </linearGradient>
        <linearGradient x1="-37.4042393%" y1="11.4434723%" x2="152.526006%" y2="103.119061%" id="linearGradient-17">
            <stop stop-color="#EF40B9" offset="0%"></stop>
            <stop stop-color="#F9CEC3" offset="100%"></stop>
        </linearGradient>
        <linearGradient x1="41.4803111%" y1="32.0966092%" x2="90.7510938%" y2="122.838169%" id="linearGradient-18">
            <stop stop-color="#EF40B9" offset="0%"></stop>
            <stop stop-color="#F9CEC3" offset="100%"></stop>
        </linearGradient>
        <linearGradient x1="-12.3923181%" y1="61.820915%" x2="29.7567836%" y2="56.2833333%" id="linearGradient-19">
            <stop stop-color="#EF40B9" offset="0%"></stop>
            <stop stop-color="#F9CEC3" offset="100%"></stop>
        </linearGradient>
        <linearGradient x1="-52.8943491%" y1="-5.73122994%" x2="-13.7143129%" y2="13.8805927%" id="linearGradient-20">
            <stop stop-color="#EF40B9" offset="0%"></stop>
            <stop stop-color="#F9CEC3" offset="100%"></stop>
        </linearGradient>
        <linearGradient x1="48.0666084%" y1="1.46231721%" x2="51.4983785%" y2="97.4128234%" id="linearGradient-21">
            <stop stop-color="#E06CEA" offset="0%"></stop>
            <stop stop-color="#160F45" offset="100%"></stop>
        </linearGradient>
        <linearGradient x1="38.7397612%" y1="5.8672329%" x2="59.2447539%" y2="97.261958%" id="linearGradient-22">
            <stop stop-color="#E06CEA" offset="0%"></stop>
            <stop stop-color="#160F45" offset="100%"></stop>
        </linearGradient>
    </defs>
    <g id="Page-1" stroke="none" stroke-width="1" fill="none" fill-rule="evenodd">
        <g id="Give-Review" transform="translate(-39.000000, -128.000000)" fill-rule="nonzero">
            <g id="Give-Review-w300px" transform="translate(38.000000, 127.000000)">
                <g id="Layer_15" transform="translate(31.000000, 0.000000)" opacity="0.27">
                    <g id="Group" fill="url(#linearGradient-1)">
                        <path d="M266.9,75.77 C261.78,97.41 267.78,157.06 203.21,180.69 C138.21,204.45 158.33,242.89 88.21,244.47 C55.55,245.2 10.03,206.04 1.59,150.76 C-5.49,104.3 28.69,97.54 50.73,77.06 C86.18,44.15 93.73,38.24 137.82,32.64 C177.5,27.64 206.11,-3.25 236.33,1.49 C268.42,6.52 274.87,42.09 266.9,75.77 Z" id="Shape"></path>
                    </g>
                    <g id="Group" transform="translate(154.000000, 188.000000)" fill="url(#linearGradient-2)">
                        <path d="M1.18,43.87 C11.33,19.05 57.87,-2.59 75.18,1.35 C92.49,5.29 57.07,38.35 39.74,43.87 C22.41,49.39 -5.91,61.19 1.18,43.87 Z" id="Shape"></path>
                    </g>
                </g>
                <g id="Layer_7" transform="translate(0.000000, 13.000000)">
                    <rect id="Rectangle-path" fill="#2F1A7D" x="84.75" y="4.26" width="205.41" height="64.5" rx="15.41"></rect>
                    <rect id="Rectangle-path" fill="url(#linearGradient-3)" x="80.58" y="0.65" width="205.41" height="64.5" rx="15.41"></rect>
                    <path d="M121.4,86.9 L121.4,66.71 C121.4,59.7953949 127.005395,54.19 133.92,54.19 L255.92,54.19 C262.816694,54.2175188 268.394551,59.8132537 268.4,66.71 L268.4,105.83 C268.4,109.15051 267.080932,112.335021 264.732977,114.682977 C262.385021,117.030932 259.20051,118.35 255.88,118.35 L133.88,118.35 C130.558676,118.352656 127.372622,117.034441 125.02409,114.68591 C122.675559,112.337378 121.357344,109.151324 121.36,105.83 L121.36,101.18" id="Shape" fill="#C44D98"></path>
                    <path d="M265.32,63.34 L265.32,102.46 C265.32531,105.783974 264.008587,108.973626 261.660055,111.325909 C259.311524,113.678192 256.123979,115.000004 252.8,115 L130.8,115 C123.885395,115 118.28,109.394605 118.28,102.48 L118.28,97.8 L106.09,97.8 C104.936331,97.8017856 103.916181,97.0515044 103.574162,95.9496977 C103.232143,94.8478909 103.648111,93.6518147 104.6,93 L118.31,83.53 L118.31,63.34 C118.31,56.4253949 123.915395,50.82 130.83,50.82 L252.83,50.82 C259.732886,50.8365405 265.32002,56.4370937 265.32,63.34 Z" id="Shape" fill="url(#linearGradient-4)"></path>
                    <rect id="Rectangle-path" fill="url(#linearGradient-5)" x="135.77" y="68.5" width="112.09" height="8.14" rx="4.07"></rect>
                    <path d="M139.84,85.9 L182.68,85.9 C184.927799,85.9 186.75,87.7222011 186.75,89.97 L186.75,89.97 C186.75,92.2177989 184.927799,94.04 182.68,94.04 L139.84,94.04 C137.592201,94.04 135.77,92.2177989 135.77,89.97 L135.77,89.97 C135.77,87.7222011 137.592201,85.9 139.84,85.9 Z" id="Rectangle-path" fill="url(#linearGradient-6)"></path>
                    <path d="M111.9,21.36 L114.55,26.74 C114.682773,27.0005272 114.931487,27.1824229 115.22,27.23 L121.15,28.09 C121.48581,28.1348056 121.76608,28.3684064 121.870649,28.6906503 C121.975218,29.0128943 121.885516,29.3665522 121.64,29.6 L117.35,33.78 C117.139562,33.9850973 117.042501,34.280012 117.09,34.57 L118.09,40.48 C118.143172,40.8121559 118.00453,41.1459101 117.731662,41.3426286 C117.458795,41.539347 117.098331,41.5654133 116.8,41.41 L111.49,38.62 C111.234737,38.4794406 110.925263,38.4794406 110.67,38.62 L105.36,41.41 C105.062884,41.568125 104.701599,41.5429285 104.429308,41.3450921 C104.157017,41.1472557 104.021419,40.8114361 104.08,40.48 L105.08,34.57 C105.13181,34.2815675 105.038312,33.9861155 104.83,33.78 L100.53,29.6 C100.292386,29.3634592 100.207868,29.013454 100.311355,28.6945456 C100.414842,28.3756373 100.68877,28.141949 101.02,28.09 L106.96,27.23 C107.248513,27.1824229 107.497227,27.0005272 107.63,26.74 L110.28,21.36 C110.424533,21.0425438 110.74119,20.8387818 111.09,20.8387818 C111.43881,20.8387818 111.755467,21.0425438 111.9,21.36 Z" id="Shape" fill="url(#linearGradient-7)"></path>
                    <path d="M146.61,21.36 L149.27,26.74 C149.400743,26.9980005 149.645206,27.1794957 149.93,27.23 L155.87,28.09 C156.20123,28.141949 156.475158,28.3756373 156.578645,28.6945456 C156.682132,29.013454 156.597614,29.3634592 156.36,29.6 L152.06,33.78 C151.856083,33.9887762 151.763316,34.2819199 151.81,34.57 L152.81,40.48 C152.868581,40.8114361 152.732983,41.1472557 152.460692,41.3450921 C152.188401,41.5429285 151.827116,41.568125 151.53,41.41 L146.22,38.62 C145.964737,38.4794406 145.655263,38.4794406 145.4,38.62 L140.09,41.41 C139.792884,41.568125 139.431599,41.5429285 139.159308,41.3450921 C138.887017,41.1472557 138.751419,40.8114361 138.81,40.48 L139.81,34.57 C139.86181,34.2815675 139.768312,33.9861155 139.56,33.78 L135.26,29.6 C135.022386,29.3634592 134.937868,29.013454 135.041355,28.6945456 C135.144842,28.3756373 135.41877,28.141949 135.75,28.09 L141.69,27.23 C141.976097,27.1825419 142.221795,27.0001295 142.35,26.74 L145,21.36 C145.140793,21.0411803 145.456477,20.8354926 145.805,20.8354926 C146.153523,20.8354926 146.469207,21.0411803 146.61,21.36 L146.61,21.36 Z" id="Shape" fill="url(#linearGradient-8)"></path>
                    <path d="M181.33,21.36 L184,26.74 C184.125511,27.0023623 184.372545,27.1857665 184.66,27.23 L190.6,28.09 C190.93123,28.141949 191.205158,28.3756373 191.308645,28.6945456 C191.412132,29.013454 191.327614,29.3634592 191.09,29.6 L186.79,33.78 C186.581688,33.9861155 186.48819,34.2815675 186.54,34.57 L187.54,40.48 C187.598581,40.8114361 187.462983,41.1472557 187.190692,41.3450921 C186.918401,41.5429285 186.557116,41.568125 186.26,41.41 L181,38.62 C180.744737,38.4794406 180.435263,38.4794406 180.18,38.62 L174.87,41.41 C174.572884,41.568125 174.211599,41.5429285 173.939308,41.3450921 C173.667017,41.1472557 173.531419,40.8114361 173.59,40.48 L174.59,34.57 C174.636684,34.2819199 174.543917,33.9887762 174.34,33.78 L170,29.6 C169.754484,29.3665522 169.664782,29.0128943 169.769351,28.6906503 C169.87392,28.3684064 170.15419,28.1348056 170.49,28.09 L176.43,27.23 C176.714794,27.1794957 176.959257,26.9980005 177.09,26.74 L179.75,21.36 C179.897883,21.0586532 180.204323,20.8676854 180.54,20.8676854 C180.875677,20.8676854 181.182117,21.0586532 181.33,21.36 L181.33,21.36 Z" id="Shape" fill="url(#linearGradient-9)"></path>
                    <path d="M216.05,21.36 L218.7,26.74 C218.832773,27.0005272 219.081487,27.1824229 219.37,27.23 L225.31,28.09 C225.64123,28.141949 225.915158,28.3756373 226.018645,28.6945456 C226.122132,29.013454 226.037614,29.3634592 225.8,29.6 L221.5,33.78 C221.291688,33.9861155 221.19819,34.2815675 221.25,34.57 L222.25,40.48 C222.308581,40.8114361 222.172983,41.1472557 221.900692,41.3450921 C221.628401,41.5429285 221.267116,41.568125 220.97,41.41 L215.66,38.62 C215.404737,38.4794406 215.095263,38.4794406 214.84,38.62 L209.53,41.41 C209.231669,41.5654133 208.871205,41.539347 208.598338,41.3426286 C208.32547,41.1459101 208.186828,40.8121559 208.24,40.48 L209.24,34.57 C209.287499,34.280012 209.190438,33.9850973 208.98,33.78 L204.69,29.6 C204.444484,29.3665522 204.354782,29.0128943 204.459351,28.6906503 C204.56392,28.3684064 204.84419,28.1348056 205.18,28.09 L211.11,27.23 C211.398513,27.1824229 211.647227,27.0005272 211.78,26.74 L214.43,21.36 C214.574533,21.0425438 214.89119,20.8387818 215.24,20.8387818 C215.58881,20.8387818 215.905467,21.0425438 216.05,21.36 Z" id="Shape" fill="url(#linearGradient-10)"></path>
                    <path d="M250.77,21.36 L253.42,26.74 C253.552773,27.0005272 253.801487,27.1824229 254.09,27.23 L260.02,28.09 C260.35581,28.1348056 260.63608,28.3684064 260.740649,28.6906503 C260.845218,29.0128943 260.755516,29.3665522 260.51,29.6 L256.22,33.78 C256.013854,33.9877523 255.917532,34.2804253 255.96,34.57 L256.96,40.48 C257.018581,40.8114361 256.882983,41.1472557 256.610692,41.3450921 C256.338401,41.5429285 255.977116,41.568125 255.68,41.41 L250.37,38.62 C250.111166,38.4795206 249.798834,38.4795206 249.54,38.62 L244.23,41.41 C243.932884,41.568125 243.571599,41.5429285 243.299308,41.3450921 C243.027017,41.1472557 242.891419,40.8114361 242.95,40.48 L243.95,34.57 C243.992468,34.2804253 243.896146,33.9877523 243.69,33.78 L239.4,29.6 C239.154484,29.3665522 239.064782,29.0128943 239.169351,28.6906503 C239.27392,28.3684064 239.55419,28.1348056 239.89,28.09 L245.82,27.23 C246.108513,27.1824229 246.357227,27.0005272 246.49,26.74 L249.14,21.36 C249.281934,21.036517 249.601749,20.8275961 249.955,20.8275961 C250.308251,20.8275961 250.628066,21.036517 250.77,21.36 L250.77,21.36 Z" id="Shape" fill="url(#linearGradient-11)"></path>
                    <path d="M24.45,14.62 C17.72,11.15 26,93.36 52.79,159.1 C74.68,212.85 106.33,192.16 96.09,164.61 C85.85,137.06 47.28,26.43 24.45,14.62 Z" id="Shape" fill="url(#linearGradient-12)"></path>
                    <path d="M10.32,70 C2.4,66.86 -3.14,55.77 5,53 C13.14,50.23 29.16,56.37 26.91,65 C24.66,73.63 19.74,73.65 10.32,70 Z" id="Shape" fill="#E3CFFF"></path>
                    <polygon id="Shape" fill="#9982BA" points="17.81 60.47 19.96 66.35 12.64 62.42 38.99 79.68 37.71 77.2 23.8 68.41 21.39 67.12"></polygon>
                    <path d="M39.72,162.72 C39.72,162.72 15.72,119.13 17.82,111.72 C19.92,104.31 45.21,138 51.81,152 C58.41,166 46.81,174.86 39.72,162.77" id="Shape" fill="url(#linearGradient-13)"></path>
                </g>
                <g id="Layer_16" transform="translate(38.000000, 66.000000)">
                    <path d="M215.32,55.79 C215.72,55.26 226.94,42.09 238.11,43.6 C243.01,44.27 243.28,47.71 235.73,47.45 C232.06,47.32 232.81,52.22 232.81,52.22 L215.32,55.79 Z" id="Shape" fill="#F9CDC3"></path>
                    <path d="M248.25,67.1 C238.83,66.1 224.25,66.69 222.98,66.74 L222.89,66.74 C222.89,66.74 183.31,93.46 163.94,105.43 C152.39,112.57 131.35,108.95 116.22,104.85 C110.19977,103.235715 104.265452,101.316574 98.44,99.1 L127,73.06 L153.34,79.74 L221.45,52.31 C221.45,52.31 225.05,50.05 232.56,49.39 C240.56,51.01 244.9,51.03 252.66,53.01 C272.05,57.94 258.11,68.16 248.25,67.1 Z" id="Shape" fill="url(#linearGradient-14)"></path>
                    <path d="M222.89,66.7499567 C222.89,66.7499567 183.31,93.47 163.94,105.44 C152.39,112.58 131.35,108.96 116.22,104.86 C115.488152,101.150378 115.771454,97.311978 117.04,93.75 C117.04,93.75 140.32,102.48 158.95,100.15 C177.58,97.82 214.48,66.72 222.89,66.7499567 Z" id="Shape" fill="url(#linearGradient-15)"></path>
                    <path d="M59,53.13 L135,74.93 L125.45,114.17 C125.45,114.17 77.89,107.57 64.59,88.17 C51.29,68.77 59,53.13 59,53.13 Z" id="Shape" fill="url(#linearGradient-16)"></path>
                    <path d="M129,165.72 C127.52,170.55 115.86,178.58 87.48,183.2 C66.87,186.54 44.89,180.14 36.62,175.2 L32.62,163.66 L5.08,85.05 C5.98615232,81.8752005 7.30401568,78.8326844 9,76 C11.0319133,72.434328 13.5343641,69.15827 16.44,66.26 C23.0719488,59.7351605 31.4719735,55.2987236 40.6,53.5 C44.7684914,52.5373797 49.0438648,52.1172369 53.32,52.25 C69.77,53.11 74.61,67.88 84.91,92.98 C86.19,96.1 87.5666667,99.38 89.04,102.82 C92.1105892,110.072641 95.7068236,117.091314 99.8,123.82 C112.55,144.42 123.16,156 129,165.72 Z" id="Shape" fill="url(#linearGradient-17)"></path>
                    <path d="M99.8,123.78 C88.6,123.89 59.87,126.63 32.74,149.64 L17.52,111.32 C17.52,111.32 67.68,82 84.91,93 C86.19,96.12 87.5666667,99.4 89.04,102.84 C92.1132283,110.072115 95.7094192,117.07065 99.8,123.78 L99.8,123.78 Z" id="Shape" fill="url(#linearGradient-18)"></path>
                    <path d="M43.51,178.94 C33.1847509,174.866209 23.98986,168.370453 16.7,160 L33.94,148.34 L40.94,162.23 L43.51,178.94 Z" id="Shape" fill="url(#linearGradient-19)"></path>
                    <path d="M19.88,15.41 C19.88,15.41 14,13.75 11.75,20.23 C8.32,29.56 14.36,43.13 24.75,47.04 C32.85,50.04 34.07,44.67 34.07,44.67 L19.88,15.41 Z" id="Shape" fill="#754C24"></path>
                    <path d="M47.17,7.68 C47.17,7.68 61.63,12.5 58,26.24 C54.37,39.98 40.84,34.86 40.84,34.86 L47.17,7.68 Z" id="Shape" fill="#754C24"></path>
                    <path d="M47.38,67.15 C44.06,68.29 36.44,67.76 32.88,56.68 C31.62,52.74 30.16,47.94 28.81,43.39 C27.72,39.75 26.7,36.27 25.9,33.51 C25.9,33.51 25.9,33.51 25.9,33.46 C24.9,30.06 24.26,27.78 24.24,27.68 C24.43,27.77 37.39,34.27 46.08,36.76 C47.7765043,37.3168635 49.5376515,37.6529603 51.32,37.76 C51.32,37.76 48.44,37.76 49.05,43.83 C49.3114477,45.5346543 49.7401846,47.2094079 50.33,48.83 C50.53,49.47 50.74,50.13 50.94,50.83 C54.19,61.89 52.44,65.41 47.38,67.15 Z" id="Shape" fill="#F9BAAC"></path>
                    <path d="M42.18,6.45 C37.3591111,5.67984051 32.450384,7.15282687 28.85,10.45 C25.7289219,13.469233 23.8734123,17.5627945 23.66,21.9 C23.36,26.06 26.85,25.38 28,29.43 C28.27,30.81 24.94,34.8 25.09,36.43 C24.2,35.22 21.73,29.56 18.39,31.85 C17.04,32.78 17.39,34.74 17.98,36.13 C19.49,40.07 22.64,41.25 23.89,42.27 C26.33,44.27 32.27,49.91 39.54,50.49 C44.35,50.87 49.72,49.72 52.43,46.35 C54.82,43.35 54.65,39.48 54.38,35.89 C53.96,30.14 53.46,17.89 50.28,11.59 C48.7232849,8.52417617 45.616865,6.55294182 42.18,6.45 L42.18,6.45 Z" id="Shape" fill="url(#linearGradient-20)"></path>
                    <path d="M51.32,10.15 C51.32,10.15 53.12,15.06 45.32,13.62 C40.16,12.62 30.5,8.84 29.4,16.2 C28.3,23.56 34.6,30.66 25.13,36.44 C25.13,36.44 18.82,23.69 16.45,15.44 C19.92,3.22 30.34,-0.56 41.39,1.11 C52.44,2.78 51.32,10.15 51.32,10.15 Z" id="Shape" fill="#754C24"></path>
                    <path d="M9,76 L5.18,84.89 C6.08505553,81.7816237 7.36796811,78.7959973 9,76 Z" id="Shape" fill="url(#linearGradient-21)"></path>
                    <path d="M40.89,162.21 L32.54,163.66 L22,165.48 C20.12233,163.756972 18.352327,161.920177 16.7,159.98 C15.96,159.11 15.25,158.22 14.56,157.33 C-0.28,137.83 -1.65,112.15 3.36,91.03 C3.81,89.15 5.14,84.84 5.14,84.84 C6.06154161,81.7470158 7.35782749,78.7783196 9,76 L9,76 C9,76 28.16,78.41 34.19,115.81 C37.39,139.45 40.89,162.21 40.89,162.21 Z" id="Shape" fill="url(#linearGradient-22)"></path>
                    <path d="M219.2,62.13 C221.804269,58.8610045 226.338859,57.8565594 230.08,59.72 C231.67,60.49 233.08,58.12 231.47,57.34 C226.421948,54.6624264 220.172735,56.1127557 216.82,60.74 C215.76,62.17 218.15,63.54 219.2,62.13 L219.2,62.13 Z" id="Shape" fill="#E6907C"></path>
                </g>
            </g>
        </g>
    </g>
</svg>