<?xml version="1.0" encoding="UTF-8"?>
<svg width="300px" height="250px" viewBox="0 0 300 250" version="1.1" xmlns="http://www.w3.org/2000/svg" xmlns:xlink="http://www.w3.org/1999/xlink">
    <!-- Generator: Sketch 54.1 (76490) - https://sketchapp.com -->
    <title>social-review</title>
    <desc>Created with Sketch.</desc>
    <defs>
        <linearGradient x1="23.0924546%" y1="119.098856%" x2="59.299283%" y2="19.3369476%" id="linearGradient-1">
            <stop stop-color="#EF40B9" offset="0%"></stop>
            <stop stop-color="#F9CEC3" offset="100%"></stop>
        </linearGradient>
        <linearGradient x1="23.0924546%" y1="108.277877%" x2="59.299283%" y2="24.138825%" id="linearGradient-2">
            <stop stop-color="#EF40B9" offset="0%"></stop>
            <stop stop-color="#F9CEC3" offset="100%"></stop>
        </linearGradient>
        <linearGradient x1="10.9662383%" y1="75.3012091%" x2="64.7407993%" y2="40.5004098%" id="linearGradient-3">
            <stop stop-color="#EF40B9" offset="0%"></stop>
            <stop stop-color="#F9CEC3" offset="100%"></stop>
        </linearGradient>
        <linearGradient x1="10.9662383%" y1="90.0319752%" x2="64.7407993%" y2="34.9695974%" id="linearGradient-4">
            <stop stop-color="#EF40B9" offset="0%"></stop>
            <stop stop-color="#F9CEC3" offset="100%"></stop>
        </linearGradient>
        <linearGradient x1="82.1625043%" y1="56.4816027%" x2="-55.4159973%" y2="28.7605218%" id="linearGradient-5">
            <stop stop-color="#4627BB" offset="0%"></stop>
            <stop stop-color="#E06CEA" offset="100%"></stop>
        </linearGradient>
        <linearGradient x1="118.120109%" y1="67.6617168%" x2="-56.4953117%" y2="19.1128174%" id="linearGradient-6">
            <stop stop-color="#EF40B9" offset="0%"></stop>
            <stop stop-color="#F9CEC3" offset="100%"></stop>
        </linearGradient>
        <linearGradient x1="1.22223213%" y1="51.3022271%" x2="103.086805%" y2="48.5837471%" id="linearGradient-7">
            <stop stop-color="#FFC98B" offset="0%"></stop>
            <stop stop-color="#FFF2E2" offset="100%"></stop>
        </linearGradient>
        <linearGradient x1="6.61043546%" y1="52.5463335%" x2="230.561004%" y2="39.401239%" id="linearGradient-8">
            <stop stop-color="#FFC98B" offset="0%"></stop>
            <stop stop-color="#FFF2E2" offset="100%"></stop>
        </linearGradient>
        <linearGradient x1="45.7598483%" y1="25.6425299%" x2="54.0944743%" y2="89.1729258%" id="linearGradient-9">
            <stop stop-color="#E3CFFF" offset="0%"></stop>
            <stop stop-color="#AA99E8" offset="100%"></stop>
        </linearGradient>
        <linearGradient x1="24.8853109%" y1="6.52598166%" x2="80.4288431%" y2="114.286964%" id="linearGradient-10">
            <stop stop-color="#E3CFFF" offset="0%"></stop>
            <stop stop-color="#AA99E8" offset="100%"></stop>
        </linearGradient>
        <linearGradient x1="-27.2521955%" y1="64.3550303%" x2="25.7883354%" y2="53.9036514%" id="linearGradient-11">
            <stop stop-color="#EF40B9" offset="0%"></stop>
            <stop stop-color="#F9CEC3" offset="100%"></stop>
        </linearGradient>
        <linearGradient x1="-30.6657003%" y1="65.811127%" x2="24.9909765%" y2="53.8649501%" id="linearGradient-12">
            <stop stop-color="#EF40B9" offset="0%"></stop>
            <stop stop-color="#F9CEC3" offset="100%"></stop>
        </linearGradient>
        <linearGradient x1="0.0416297928%" y1="50%" x2="100.076704%" y2="50%" id="linearGradient-13">
            <stop stop-color="#E06CEA" offset="0%"></stop>
            <stop stop-color="#160F45" offset="100%"></stop>
        </linearGradient>
        <linearGradient x1="-37.4042393%" y1="11.4434723%" x2="152.526006%" y2="103.119061%" id="linearGradient-14">
            <stop stop-color="#EF40B9" offset="0%"></stop>
            <stop stop-color="#F9CEC3" offset="100%"></stop>
        </linearGradient>
        <linearGradient x1="41.4803111%" y1="32.0966092%" x2="90.7510938%" y2="122.838169%" id="linearGradient-15">
            <stop stop-color="#EF40B9" offset="0%"></stop>
            <stop stop-color="#F9CEC3" offset="100%"></stop>
        </linearGradient>
        <linearGradient x1="-12.3923181%" y1="61.820915%" x2="29.7567836%" y2="56.2833333%" id="linearGradient-16">
            <stop stop-color="#EF40B9" offset="0%"></stop>
            <stop stop-color="#F9CEC3" offset="100%"></stop>
        </linearGradient>
        <linearGradient x1="-52.8943491%" y1="-5.73122994%" x2="-13.7143129%" y2="13.8805927%" id="linearGradient-17">
            <stop stop-color="#EF40B9" offset="0%"></stop>
            <stop stop-color="#F9CEC3" offset="100%"></stop>
        </linearGradient>
        <linearGradient x1="48.0666084%" y1="1.46231721%" x2="51.4983785%" y2="97.4128234%" id="linearGradient-18">
            <stop stop-color="#E06CEA" offset="0%"></stop>
            <stop stop-color="#160F45" offset="100%"></stop>
        </linearGradient>
        <linearGradient x1="38.7397612%" y1="5.8672329%" x2="59.2447539%" y2="97.261958%" id="linearGradient-19">
            <stop stop-color="#E06CEA" offset="0%"></stop>
            <stop stop-color="#160F45" offset="100%"></stop>
        </linearGradient>
    </defs>
    <g id="Page-1" stroke="none" stroke-width="1" fill="none" fill-rule="evenodd">
        <g id="social-review" transform="translate(150.500000, 124.500000) scale(-1, 1) translate(-150.500000, -124.500000) translate(0.000000, -1.000000)" fill-rule="nonzero">
            <g id="Layer_15" opacity="0.27" transform="translate(31.000000, 0.000000)">
                <g id="Group" fill="url(#linearGradient-2)">
                    <path d="M266.9,75.77 C261.78,97.41 267.78,157.06 203.21,180.69 C138.21,204.45 158.33,242.89 88.21,244.47 C55.55,245.2 10.03,206.04 1.59,150.76 C-5.49,104.3 28.69,97.54 50.73,77.06 C86.18,44.15 93.73,38.24 137.82,32.64 C177.5,27.64 206.11,-3.25 236.33,1.49 C268.42,6.52 274.87,42.09 266.9,75.77 Z" id="Shape"></path>
                </g>
                <g id="Group" transform="translate(154.000000, 188.000000)" fill="url(#linearGradient-4)">
                    <path d="M1.18,43.87 C11.33,19.05 57.87,-2.59 75.18,1.35 C92.49,5.29 57.07,38.35 39.74,43.87 C22.41,49.39 -5.91,61.19 1.18,43.87 Z" id="Shape"></path>
                </g>
            </g>
            <g id="Layer_7" transform="translate(0.000000, 13.000000)">
                <rect id="Rectangle-path" fill="#2F1A7D" x="84.75" y="4.26" width="205.41" height="64.5" rx="15.41"></rect>
                <rect id="Rectangle-path" fill="url(#linearGradient-5)" x="80.58" y="0.65" width="205.41" height="64.5" rx="15.41"></rect>
                <path d="M121.4,86.9 L121.4,66.71 C121.4,59.7953949 127.005395,54.19 133.92,54.19 L255.92,54.19 C262.816694,54.2175188 268.394551,59.8132537 268.4,66.71 L268.4,105.83 C268.4,109.15051 267.080932,112.335021 264.732977,114.682977 C262.385021,117.030932 259.20051,118.35 255.88,118.35 L133.88,118.35 C130.558676,118.352656 127.372622,117.034441 125.02409,114.68591 C122.675559,112.337378 121.357344,109.151324 121.36,105.83 L121.36,101.18" id="Shape" fill="#C44D98"></path>
                <path d="M265.32,63.34 L265.32,102.46 C265.32531,105.783974 264.008587,108.973626 261.660055,111.325909 C259.311524,113.678192 256.123979,115.000004 252.8,115 L130.8,115 C123.885395,115 118.28,109.394605 118.28,102.48 L118.28,97.8 L106.09,97.8 C104.936331,97.8017856 103.916181,97.0515044 103.574162,95.9496977 C103.232143,94.8478909 103.648111,93.6518147 104.6,93 L118.31,83.53 L118.31,63.34 C118.31,56.4253949 123.915395,50.82 130.83,50.82 L252.83,50.82 C259.732886,50.8365405 265.32002,56.4370937 265.32,63.34 Z" id="Shape" fill="url(#linearGradient-6)"></path>
                <rect id="Rectangle-path" fill="url(#linearGradient-7)" x="135.77" y="68.5" width="112.09" height="8.14" rx="4.07"></rect>
                <path d="M139.84,85.9 L182.68,85.9 C184.927799,85.9 186.75,87.7222011 186.75,89.97 L186.75,89.97 C186.75,92.2177989 184.927799,94.04 182.68,94.04 L139.84,94.04 C137.592201,94.04 135.77,92.2177989 135.77,89.97 L135.77,89.97 C135.77,87.7222011 137.592201,85.9 139.84,85.9 Z" id="Rectangle-path" fill="url(#linearGradient-8)"></path>
                <path d="M24.45,14.62 C17.72,11.15 26,93.36 52.79,159.1 C74.68,212.85 106.33,192.16 96.09,164.61 C85.85,137.06 47.28,26.43 24.45,14.62 Z" id="Shape" fill="url(#linearGradient-9)"></path>
                <path d="M10.32,70 C2.4,66.86 -3.14,55.77 5,53 C13.14,50.23 29.16,56.37 26.91,65 C24.66,73.63 19.74,73.65 10.32,70 Z" id="Shape" fill="#E3CFFF"></path>
                <polygon id="Shape" fill="#9982BA" points="17.81 60.47 19.96 66.35 12.64 62.42 38.99 79.68 37.71 77.2 23.8 68.41 21.39 67.12"></polygon>
                <path d="M39.72,162.72 C39.72,162.72 15.72,119.13 17.82,111.72 C19.92,104.31 45.21,138 51.81,152 C58.41,166 46.81,174.86 39.72,162.77" id="Shape" fill="url(#linearGradient-10)"></path>
            </g>
            <rect id="Rectangle" fill="#F161BB" opacity="0.44703311" x="98" y="27" width="160" height="8" rx="4"></rect>
            <path d="M102,43 L183.455,43 C185.664139,43 187.455,44.790861 187.455,47 L187.455,47 C187.455,49.209139 185.664139,51 183.455,51 L102,51 C99.790861,51 98,49.209139 98,47 L98,47 C98,44.790861 99.790861,43 102,43 Z" id="Rectangle" fill="#F161BB" opacity="0.44703311"></path>
            <g id="Layer_16" transform="translate(38.000000, 66.000000)">
                <path d="M215.32,55.79 C215.72,55.26 226.94,42.09 238.11,43.6 C243.01,44.27 243.28,47.71 235.73,47.45 C232.06,47.32 232.81,52.22 232.81,52.22 L215.32,55.79 Z" id="Shape" fill="#F9CDC3"></path>
                <path d="M248.25,67.1 C238.83,66.1 224.25,66.69 222.98,66.74 L222.89,66.74 C222.89,66.74 183.31,93.46 163.94,105.43 C152.39,112.57 131.35,108.95 116.22,104.85 C110.19977,103.235715 104.265452,101.316574 98.44,99.1 L127,73.06 L153.34,79.74 L221.45,52.31 C221.45,52.31 225.05,50.05 232.56,49.39 C240.56,51.01 244.9,51.03 252.66,53.01 C272.05,57.94 258.11,68.16 248.25,67.1 Z" id="Shape" fill="url(#linearGradient-11)"></path>
                <path d="M222.89,66.7499135 C222.89,66.7499135 183.31,93.47 163.94,105.44 C152.39,112.58 131.35,108.96 116.22,104.86 C115.488152,101.150378 115.771454,97.311978 117.04,93.75 C117.04,93.75 140.32,102.48 158.95,100.15 C177.58,97.82 214.48,66.72 222.89,66.7499135 Z" id="Shape" fill="url(#linearGradient-12)"></path>
                <path d="M59,53.13 L135,74.93 L125.45,114.17 C125.45,114.17 77.89,107.57 64.59,88.17 C51.29,68.77 59,53.13 59,53.13 Z" id="Shape" fill="url(#linearGradient-13)"></path>
                <path d="M129,165.72 C127.52,170.55 115.86,178.58 87.48,183.2 C66.87,186.54 44.89,180.14 36.62,175.2 L32.62,163.66 L5.08,85.05 C5.98615232,81.8752005 7.30401568,78.8326844 9,76 C11.0319133,72.434328 13.5343641,69.15827 16.44,66.26 C23.0719488,59.7351605 31.4719735,55.2987236 40.6,53.5 C44.7684914,52.5373797 49.0438648,52.1172369 53.32,52.25 C69.77,53.11 74.61,67.88 84.91,92.98 C86.19,96.1 87.5666667,99.38 89.04,102.82 C92.1105892,110.072641 95.7068236,117.091314 99.8,123.82 C112.55,144.42 123.16,156 129,165.72 Z" id="Shape" fill="url(#linearGradient-14)"></path>
                <path d="M99.8,123.78 C88.6,123.89 59.87,126.63 32.74,149.64 L17.52,111.32 C17.52,111.32 67.68,82 84.91,93 C86.19,96.12 87.5666667,99.4 89.04,102.84 C92.1132283,110.072115 95.7094192,117.07065 99.8,123.78 L99.8,123.78 Z" id="Shape" fill="url(#linearGradient-15)"></path>
                <path d="M43.51,178.94 C33.1847509,174.866209 23.98986,168.370453 16.7,160 L33.94,148.34 L40.94,162.23 L43.51,178.94 Z" id="Shape" fill="url(#linearGradient-16)"></path>
                <path d="M19.88,15.41 C19.88,15.41 14,13.75 11.75,20.23 C8.32,29.56 14.36,43.13 24.75,47.04 C32.85,50.04 34.07,44.67 34.07,44.67 L19.88,15.41 Z" id="Shape" fill="#754C24"></path>
                <path d="M47.17,7.68 C47.17,7.68 61.63,12.5 58,26.24 C54.37,39.98 40.84,34.86 40.84,34.86 L47.17,7.68 Z" id="Shape" fill="#754C24"></path>
                <path d="M47.38,67.15 C44.06,68.29 36.44,67.76 32.88,56.68 C31.62,52.74 30.16,47.94 28.81,43.39 C27.72,39.75 26.7,36.27 25.9,33.51 C25.9,33.51 25.9,33.51 25.9,33.46 C24.9,30.06 24.26,27.78 24.24,27.68 C24.43,27.77 37.39,34.27 46.08,36.76 C47.7765043,37.3168635 49.5376515,37.6529603 51.32,37.76 C51.32,37.76 48.44,37.76 49.05,43.83 C49.3114477,45.5346543 49.7401846,47.2094079 50.33,48.83 C50.53,49.47 50.74,50.13 50.94,50.83 C54.19,61.89 52.44,65.41 47.38,67.15 Z" id="Shape" fill="#F9BAAC"></path>
                <path d="M42.18,6.45 C37.3591111,5.67984051 32.450384,7.15282687 28.85,10.45 C25.7289219,13.469233 23.8734123,17.5627945 23.66,21.9 C23.36,26.06 26.85,25.38 28,29.43 C28.27,30.81 24.94,34.8 25.09,36.43 C24.2,35.22 21.73,29.56 18.39,31.85 C17.04,32.78 17.39,34.74 17.98,36.13 C19.49,40.07 22.64,41.25 23.89,42.27 C26.33,44.27 32.27,49.91 39.54,50.49 C44.35,50.87 49.72,49.72 52.43,46.35 C54.82,43.35 54.65,39.48 54.38,35.89 C53.96,30.14 53.46,17.89 50.28,11.59 C48.7232849,8.52417617 45.616865,6.55294182 42.18,6.45 L42.18,6.45 Z" id="Shape" fill="url(#linearGradient-17)"></path>
                <path d="M51.32,10.15 C51.32,10.15 53.12,15.06 45.32,13.62 C40.16,12.62 30.5,8.84 29.4,16.2 C28.3,23.56 34.6,30.66 25.13,36.44 C25.13,36.44 18.82,23.69 16.45,15.44 C19.92,3.22 30.34,-0.56 41.39,1.11 C52.44,2.78 51.32,10.15 51.32,10.15 Z" id="Shape" fill="#754C24"></path>
                <path d="M9,76 L5.18,84.89 C6.08505553,81.7816237 7.36796811,78.7959973 9,76 Z" id="Shape" fill="url(#linearGradient-18)"></path>
                <path d="M40.89,162.21 L32.54,163.66 L22,165.48 C20.12233,163.756972 18.352327,161.920177 16.7,159.98 C15.96,159.11 15.25,158.22 14.56,157.33 C-0.28,137.83 -1.65,112.15 3.36,91.03 C3.81,89.15 5.14,84.84 5.14,84.84 C6.06154161,81.7470158 7.35782749,78.7783196 9,76 L9,76 C9,76 28.16,78.41 34.19,115.81 C37.39,139.45 40.89,162.21 40.89,162.21 Z" id="Shape" fill="url(#linearGradient-19)"></path>
                <path d="M219.2,62.13 C221.804269,58.8610045 226.338859,57.8565594 230.08,59.72 C231.67,60.49 233.08,58.12 231.47,57.34 C226.421948,54.6624264 220.172735,56.1127557 216.82,60.74 C215.76,62.17 218.15,63.54 219.2,62.13 L219.2,62.13 Z" id="Shape" fill="#E6907C"></path>
            </g>
        </g>
    </g>
</svg>