<svg xmlns="http://www.w3.org/2000/svg" xmlns:xlink="http://www.w3.org/1999/xlink" width="317" height="317" viewBox="0 0 317 317">
    <defs>
        <path id="a" d="M42.81 35.714L31.872 0H74.72c.028 8.736-.997 23.126-6.422 39.51l17.224 81.45a2.85 2.85 0 0 1-.883 2.704l2.617 9.33-10.697 3.127-2.548-8.694-.067.022a2.846 2.846 0 0 1-3.617-1.868L53.31 70.014c-1.92 2.84-4.01 5.675-6.283 8.49-14.39 17.823-23.36 27.436-27.972 32.06a4.501 4.501 0 0 1-5.946.383l-6.578 5.438L0 107.365l6.5-5.374a4.479 4.479 0 0 1 .462-5.347c6.628-7.425 25.28-30.101 35.848-60.93z"/>
    </defs>
    <g fill="none" fill-rule="evenodd">
        <path fill="#ECF6FF" d="M128.745 33.258H14.59S25.344 17.546 34.186 17.3c10.551-.294 15.303 11.33 25.435 11.33 10.135 0 16.92-28.431 35.68-28.431 20.025 0 33.444 33.059 33.444 33.059"/>
        <path fill="#CCE3FF" d="M181.71 180.719c-1.232-3.693-7.98-3.068-7.981-13.366-.002-15.505 21.314-13.735 22.571-25.418 1.257-11.682-12.44-11.403-12.864-21.256-.424-9.854 9.99-30.186 25.793-30.186 12.46 0 2.14 15.688 12.196 22.704 10.056 7.015 21.542-1.972 27.226 9.06 7.83 15.196-12.192 33.447-10.216 45.096 1.975 11.65 13.712 8.895 14.071 21.695.36 12.8-16.69 15.053-15.084 26.03 1.013 6.918 11.803 4.608 12.368 18.252.48 11.55-36.593 25.844-64.441 2.338-27.849-23.506 1.06-40.854-3.64-54.95"/>
        <path stroke="#ECF6FF" stroke-linecap="square" stroke-width="4.8" d="M212.403 152.74v113.522M212.987 229.604l14.561-14.588M213.181 188.052l7.403-7.415M211.625 204.562l-11.612-11.632M211.893 168.647l-5.642-5.651"/>
        <g>
            <path fill="#CCE3FF" d="M66.963 196.283c0 22.321-14.541 34.774-33.481 34.774S0 218.604 0 196.283C0 149.285 21.37 95.105 33.482 95.105c12.111 0 33.481 54.18 33.481 101.178"/>
            <path stroke="#ECF6FF" stroke-linecap="square" stroke-width="4.8" d="M33.482 163.081v103.027M33.882 217.66l11.85-11.872M32.49 195.04l-9.697-9.713M34.065 179.824l7.403-7.416"/>
        </g>
        <g>
            <path fill="#ECF6FF" d="M187.26 186.107c0 25.612-20.726 46.375-46.293 46.375s-46.293-20.763-46.293-46.375 20.726-46.375 46.293-46.375 46.293 20.763 46.293 46.375"/>
            <path stroke="#B6D4FF" stroke-width="4.8" d="M140.967 172.704v94.854M140.967 216.685l10.306-10.323M141.356 185.697l5.306-5.315M140.967 201.283l-9.876-9.893"/>
        </g>
        <g>
            <path fill="#D7EBFF" d="M299.192 15.128H296.1a2.696 2.696 0 0 0-2.694 2.698v223.399h8.48V17.826a2.696 2.696 0 0 0-2.694-2.698"/>
            <path fill="#CCE3FF" d="M290.863 261.773h13.566v-23.04h-13.566z"/>
            <path fill="#D7EBFF" d="M287.18 316.55h20.93v-67.335h-20.93z"/>
            <path fill="#CCE3FF" d="M306.37 307.63h-17.448c-3.526 0-6.385 2.864-6.385 6.396v2.81h30.217v-2.81c0-3.532-2.858-6.396-6.384-6.396M308.109 248.582h-20.926a3.143 3.143 0 0 0-3.141 3.146v.387a3.143 3.143 0 0 0 3.14 3.146h20.927a3.143 3.143 0 0 0 3.14-3.146v-.387a3.143 3.143 0 0 0-3.14-3.146M297.646 3.122A5.65 5.65 0 0 0 292 8.776v.697a5.65 5.65 0 0 0 5.645 5.655 5.65 5.65 0 0 0 5.644-5.655v-.697a5.65 5.65 0 0 0-5.644-5.654M305.991 69.066h-16.69a3.143 3.143 0 0 0-3.141 3.146v.387a3.143 3.143 0 0 0 3.14 3.146h16.691a3.143 3.143 0 0 0 3.14-3.146v-.387a3.143 3.143 0 0 0-3.14-3.146M303.712 75.745H291.58a2.064 2.064 0 0 0-2.062 2.065v.255c0 1.14.923 2.065 2.062 2.065h12.133a2.063 2.063 0 0 0 2.062-2.065v-.255c0-1.14-.923-2.065-2.062-2.065"/>
            <path fill="#ECF6FF" d="M313.672 24.806l-9.166 44.26H290.79l-9.171-44.26z"/>
            <path fill="#CCE3FF" d="M316.456 27.152l-4.02-7.922h-29.581l-4.02 7.922z"/>
        </g>
        <g>
            <path fill="#FF8787" fill-rule="nonzero" d="M110.083 114.284l-.278-9.628s11.668.932 14.164-.368c0 0 3.05-15.76-.588-24.487l-.074-.34-24.621-2.888-1.532 13.996c-.83-2.453-7.523-5.063-9.312-1.55-3.878 7.611 9.987 12.736 9.987 12.736L96.42 114.4"/>
            <path fill="#000" d="M109.805 104.656l-7.867-1.691 7.83 5.303z" opacity=".4"/>
            <path fill="#251919" d="M116.295 88.923l2.719 6.665-3.258.041zM113.196 90.817a1.647 1.647 0 1 1-3.241.588 1.647 1.647 0 0 1 3.241-.588M121.746 90.817a1.647 1.647 0 1 1-3.241.588 1.647 1.647 0 0 1 3.241-.588"/>
            <path fill="#FFF" d="M112.915 97.517s1.139 1.851 3.394 1.694"/>
            <path stroke="#252535" d="M112.915 97.517s1.139 1.851 3.394 1.694"/>
            <path fill="#EACB47" d="M97.303 90.718c-1.839-1.911-3.84-2.721-5.054-3.058l.232-4.823 11.566-2.023c-.797 5.382-3.893 8.318-6.744 9.904z"/>
            <path fill="#393954" d="M124.064 81.683c-1.042-.994-7.834-1.302-15.997-.672-1.9.147-3.72.332-5.403.546-5.565.7-9.66 1.697-10.326 2.574-.74-10.955 5.952-17.479 14.712-18.086 5.747-.399 10.959 1.85 14.079 6.536 1.596 2.402 2.646 5.445 2.935 9.102"/>
            <path fill="#161629" d="M124.195 81.9h-.002a.378.378 0 0 0-.13-.217c-1.041-.994-7.833-1.302-15.996-.672-1.9.147-3.72.331-5.403.546 2.395-2.282 6.775-5.888 11.942-7.507 2.21-.692 4.45-1.196 6.523-1.469 5.03-.668 9.065.018 9.267 2.636.26 3.407-5.332 6.26-6.2 6.683"/>
            <g>
                <path fill="#19141E" fill-rule="nonzero" d="M133.533 298.487l1.967 6.363s15.364-6.325 23.267-3.925l-26.631 15.478-6.933-17.474 8.33-.442zm-74.813-27.11l2.993 8.017-8.615 7.925s1.28 5.273 1.82 10.247c.78 7.2.3 13.699.3 13.699L40.283 285.11l18.437-13.734z"/>
                <path fill="#E576C6" fill-rule="nonzero" d="M125.644 300.307l8.235-.744 1.621 5.287-6.816 2.852-3.04-7.395zm-67.05-28.937l.947 10.044-6.443 5.905-5.116-7.893 10.612-8.056z"/>
                <use fill="#19141E" fill-rule="nonzero" transform="translate(49.22 169.525)" xlink:href="#a"/>
                <path fill="#FFF" d="M123.231 296.952l-.067.022a2.846 2.846 0 0 1-3.616-1.868l-17.018-55.567-10.499-34.299-10.938-35.715h28.071l8.354 39.51 17.224 81.45a2.85 2.85 0 0 1-.883 2.705l2.618 9.33-10.698 3.127-2.548-8.695z" opacity=".099"/>
                <path fill="#EFEFEF" fill-rule="nonzero" d="M128.969 294.792l-4.506 1.606-18.078-62.933-11.153-38.824-7.214-25.115h9.144l1.607 6.333 12.388 48.782z"/>
            </g>
            <g>
                <path fill="#FF8787" fill-rule="nonzero" d="M153.442 133.574c-3.565 7.027-16.078 30.096-25 26.416-6.679-2.755-14.675-25.596-14.675-25.596l12.998-7.766 5.84 15.696 11.926-13.007c-.405-2.577-.73-5.947.078-7.135 1.374-2.021 8.328-8.25 8.328-8.25l1.266 10.554.221-.89a.402.402 0 0 1 .044-.178l.512-2.06c-.215-.108-.303-.263-.21-.478.076-.175.24-.366.47-.567l1.748-7.03s.573.255 1.414.64c1.353-.28 6.25 3.062 6.325 3.113.998.647-1.374 11.336-3.3 13.321-1.371 1.413-5.637 2.631-7.985 3.217zm-79.629 47.662l.796 1.517s.721 1.24 1.476 3.405c.754 2.163.44 3.487 2.072 6.886 1.853 3.859-1.46 2.268-2.649.584-.927-1.315-.822-3.092-2.024-3.888-.403.645-1.323 1.568-1.837 7.135-.092.998.36 4.237.36 4.237.009.97.133 2.994-.968 3.303-.272.077-.627-.226-.627-.226s.106 1.266-1.018 1.518c-.442.1-1.32-2.635-1.32-2.635s-.134 1.389-.974 1.543c-.237.044-3.04-7.878-3.04-7.878l.168 1.79.372 1.832s-.03.986-.819 1.16c-.313.07-.914-1.575-1.478-3.51-.877-3.013-.859-5.276-.6-7.526.31-2.72.172-3.634 1.378-6.969.144-.399.337-.857.554-1.327-.662-5.734-2.526-22.517-2.298-27.67.277-6.25 6.872-20.123 6.872-20.123l13.39 7.516-7.38 13.5-.406 25.826zm32.033-62.166c-7.756-.458-11.028-5.297-11.774-6.606 4.92-.341 5.435-.291 11.99.39 2.658.277 4.522.845 6.328 1.341.39 1.332.946 5.313-6.544 4.875z"/>
                <path fill="#5E93D1" fill-rule="nonzero" d="M94.155 112.564c.017.066.077.166.146.278.07.113.07.076.41.58.34.504.844 1.006 1.605 1.786.63.646 1.502 1.278 2.357 1.758.974.546 1.929.911 2.542 1.17.553.234 1.02.356 1.47.464 1.274.303 2.266.397 4.288.503.246.013 1.667-.093 1.917-.142.356-.072.676-.136 1.079-.246.403-.11 1.405-.58 2.068-1.407.282-.35.549-1.504.467-2.354-.083-.85-.452-.852-.114-.759 5.933 1.622 11.54 4.965 14.819 10.894.264.477.505.937.725 1.38l.047-.009 5.282 12.193-7.54 4.41-1.573 26.622H81.194l-.72-26.252-13.582-10.198s6.405-12.895 17.364-18.027c3.544-1.66 6.793-2.444 9.816-2.744.248-.025.053-.018.083.1z"/>
                <path stroke="#000" d="M80.473 143.431l3.446 2.341 8.282-9.655" opacity=".201"/>
                <path fill="#5E93D1" fill-rule="nonzero" d="M159.132 126.365l-.6 2.947h-9.718l4.584-23.466h9.719l-1.78 9.111-1.911-.886-.596-.166-.468.027-.203.139v.57l2.077 2.991-1.589.693-2.445 1.285-.707.49-.273.253-.224.2-.142.173-.086.154-.037.2.037.088.043.068.061.062.802.283 1.828-.501h1.807l-2.412.501-1.589.952-.54.51-.305.374v.343l.533.24 3.364-.387-1.114.607-.738.458-.677.35-.523.676v.333l.185.196.47.25h2.16l1.007-.118z"/>
                <path fill="#020101" d="M148.812 129.312h-1.608l4.585-23.466h1.607zM155.07 108.57c-.134.686-.532 1.185-.89 1.115-.356-.07-.536-.682-.402-1.367.134-.686.533-1.185.89-1.115.356.07.537.682.402 1.367"/>
            </g>
        </g>
    </g>
</svg>
