<?xml version="1.0" encoding="UTF-8"?>
<svg width="265px" height="205px" viewBox="0 0 265 205" version="1.1" xmlns="http://www.w3.org/2000/svg" xmlns:xlink="http://www.w3.org/1999/xlink">
    <!-- Generator: Sketch 54.1 (76490) - https://sketchapp.com -->
    <title>popular videos w 300px</title>
    <desc>Created with Sketch.</desc>
    <defs>
        <linearGradient x1="41.1574075%" y1="76.5215706%" x2="63.3620282%" y2="-10.9305333%" id="linearGradient-1">
            <stop stop-color="#4627BB" offset="0%"></stop>
            <stop stop-color="#E06CEA" offset="100%"></stop>
        </linearGradient>
        <linearGradient x1="60.2549871%" y1="52.93887%" x2="15.7173357%" y2="45.6136211%" id="linearGradient-2">
            <stop stop-color="#F0A08E" offset="8%"></stop>
            <stop stop-color="#FFC9BD" offset="100%"></stop>
        </linearGradient>
    </defs>
    <g id="Page-1" stroke="none" stroke-width="1" fill="none" fill-rule="evenodd">
        <g id="Popular-Videos" transform="translate(-37.000000, -181.000000)">
            <g id="popular-videos-w-300px" transform="translate(37.000000, 181.000000)">
                <g id="Layer_3" transform="translate(0.000000, 181.000000)" fill="#6332C3" fill-rule="nonzero">
                    <path d="M34.61,6.61 C33.92,6.46 27.04,5.61 27.04,5.61 C27.04,5.61 21.72,4.61 15.48,3.27 C11.0979532,-0.103968534 4.97752479,-0.0461507221 0.66,3.41 C6.24,8.41 31.24,17.79 31.24,17.79 L36.91,8.7 L34.61,6.61 Z" id="Shape"></path>
                </g>
                <g id="Layer_17" transform="translate(27.000000, 0.000000)" fill-rule="nonzero">
                    <polygon id="Shape" fill="#4D4D4D" points="71.05 25.04 76.01 45.15 81.82 43.39 75.06 20.88 73.3 21.28"></polygon>
                    <path d="M200.82,133.84 C194.33,176.51 180.1,188.84 161.82,188.84 L68.79,188.84 C54.59,188.84 41.39,189.04 36.79,177.62 C35.5546229,174.285403 34.9707281,170.744692 35.07,167.19 C35.07,145.24 44.66,133.49 65.38,125.45 C86.1,117.41 108.98,118.64 113.3,96.69 C117.62,74.74 131.55,66.39 131.55,66.39 C140.13,58.9 151.84,54.39 163.99,53.94 C172.628569,53.5479037 181.23279,55.2639431 189.06,58.94 C208.55,68.28 207.32,91.17 200.82,133.84 Z" id="Shape" fill="#DE548D"></path>
                    <path d="M200.82,133.84 C194.33,176.51 180.1,188.84 161.82,188.84 L68.79,188.84 C54.59,188.84 41.39,189.04 36.79,177.62 C52.88,161.57 74.57,153.96 98.24,162.62 C127.01,173.18 166.92,177.88 176.31,145.62 C185.7,113.36 193.31,61.09 169.86,56.98 C166.45,56.39 164.62,55.32 163.99,53.93 C172.628569,53.5379037 181.23279,55.2539431 189.06,58.93 C208.55,68.28 207.32,91.17 200.82,133.84 Z" id="Shape" fill="#F582B2"></path>
                    <path d="M77,16.75 L85.4,12.09 L85.4,18.46 C85.4,19.0540849 85.6359993,19.6238377 86.0560808,20.0439192 C86.4761623,20.4640007 87.0459151,20.7 87.64,20.7 L113.88,20.7 C114.474085,20.7 115.043838,20.4640007 115.463919,20.0439192 C115.884001,19.6238377 116.12,19.0540849 116.12,18.46 L116.12,2.24 C116.12,1.00288216 115.117118,1.24344979e-14 113.88,1.24344979e-14 L87.62,1.24344979e-14 C87.0259151,1.24344979e-14 86.4561623,0.235999322 86.0360808,0.65608081 C85.6159993,1.0761623 85.38,1.64591506 85.38,2.24 L85.38,8.61 L77,16.75 Z" id="Shape" fill="#ED5DA9"></path>
                    <path d="M106.3,11.23 C105.22,12.92 102.15,15.53 100.67,16.75 C99.19,15.53 96.12,12.92 95.04,11.23 C93.6,8.96 93.6,4.09 97.04,4.09 C99.73,4.09 100.48,5.78 100.68,6.51 C100.88,5.78 101.63,4.09 104.32,4.09 C107.73,4.09 107.73,8.96 106.3,11.23 Z" id="Shape" fill="#FFFFFF"></path>
                    <path d="M146.7,116.92 C146.7,116.92 142.63,133.22 132.6,143.32 C128.44,147.51 123.26,150.64 116.92,151.1 C103.267531,151.974835 89.5592592,151.070587 76.14,148.41 C73.3177932,147.734706 70.585448,146.727699 68,145.41 C68,145.41 61.64,152.18 59.12,154.41 C55.33,157.8 48.46,162.95 41.03,168.28 C26.45,178.81 9.68,190 9.68,190 L0,186.52 L35.9,146.84 L42.56,139.48 L53.56,127.27 L60.33,126.61 L60.68,126.61 L69.8478289,125.500675 L104.825491,122.001152 L108,113.56 L118.17,111 L146.7,116.92 Z" id="Shape" fill="#E6E6E6"></path>
                    <path d="M132.6,143.32 C128.44,147.51 123.26,150.64 116.92,151.1 C103.267531,151.974835 89.5592592,151.070587 76.14,148.41 C73.3177932,147.734706 70.585448,146.727699 68,145.41 C68,145.41 61.64,152.18 59.12,154.41 C55.33,157.8 48.46,162.95 41.03,168.28 C53.19,156.07 69.52,136.83 69.52,136.83 C82.37,142.45 113.28,143.34 132.6,143.32 Z" id="Shape" fill="#C2B1B8"></path>
                    <path d="M57.74,172.4 L54.74,185.8 C54.74,185.8 54.17,193.29 51.35,196.74 C43.42,197.04 44.35,204.18 44.35,204.18 C44.35,204.18 46.02,204.31 55.99,202.42 C62.99,194.42 68.72,187.13 68.72,187.13 L57.74,172.4 Z" id="Shape" fill="#6332C3"></path>
                    <path d="M105.31,122.25 L70.31,125.64 L60.67,126.58 L60.31,126.49 L60.31,126.61 L61.86,150.11 L64.27,181.32 L54.86,185.32 C54.86,185.32 51.4,171.47 48.22,160.5 C46.22,153.77 44.22,146.25 42.49,139.45 C41.49,135.56 40.68,131.9 40.08,128.78 C36.72,111.31 41.2,105.48 50.16,106.38 C59.12,107.28 108.29,113.5 108.29,113.5 L105.31,122.25 Z" id="Shape" fill="#F2F2F2"></path>
                    <path d="M82.75,49.65 L78.57,54.3 L72.82,44.79 L72.12,34.79 C72.12,34.79 75.39,26.03 78.18,26.22 C80.97,26.41 82.34,36.76 80.5,39.77 C78.79,42.54 78.88,43.53 78.88,43.53 L82.75,49.65 Z" id="Shape" fill="#F9B6A7"></path>
                    <path d="M186.11,73.28 C182.17,64.39 167.47,63.36 157.9,61.14 C148.33,58.92 138.41,50.71 130.37,55.5 C122.33,60.29 102.65,72.74 102.37,72.94 L102.37,72.94 L82.19,48.66 L78.6,54.3 C78.6,54.3 85.84,71.3 93.6,81.65 C94.11,82.33 94.6,82.97 95.12,83.58 C98.37,87.46 101.63,89.9 104.42,89.18 C106.18,88.73 108.03,88.18 109.89,87.73 C113.38,86.78 116.89,85.8 119.89,84.95 C114.55,98.29 108,113.52 108,113.52 L127.48,125.88 L128.48,126.62 L135.36,131.62 L139.36,134.54 C140.22,133.28 141.63,131.35 143.36,129.02 L143.46,128.88 L143.6,128.94 C144.522,129.352505 145.318824,130.001003 145.91,130.82 C146.136714,131.138496 146.340559,131.472667 146.52,131.82 C146.68701,132.123402 146.833991,132.437406 146.96,132.76 C147.322196,133.666518 147.574006,134.613322 147.71,135.58 C147.74384,135.788699 147.767202,135.998963 147.78,136.21 C147.78,136.21 168.78,129.8 180.49,123.31 C182.736258,122.157695 184.812553,120.700587 186.66,118.98 C188.86,116.7 190.19,113.31 190.87,109.36 C191.02,108.46 191.14,107.53 191.23,106.58 C192.4,94.75 188.85,79.48 186.11,73.28 Z M155.49,120.6 L150.86,123.75 L143.7,128.62 C152.07,117.46 167.51,97.78 167.81,97.39 L167.81,97.39 L170.54,110.39 L155.49,120.6 Z" id="Shape" fill="url(#linearGradient-1)"></path>
                    <path d="M109.86,87.73 C108,88.23 106.15,88.73 104.39,89.18 C101.6,89.9 98.39,87.46 95.09,83.58 C94.58,82.97 94.09,82.33 93.57,81.65 C96.71,80.94 101.62,80.33 104.51,82.47 C106.546396,83.9458601 108.349807,85.7189336 109.86,87.73 Z" id="Shape" fill="#C69C6D"></path>
                    <path d="M191.26,106.56 C191.17,107.51 191.05,108.44 190.9,109.34 C190.22,113.29 188.9,116.68 186.69,118.96 C184.842553,120.680587 182.766258,122.137695 180.52,123.29 C180.23,120.29 180.03,114.06 182.88,110.84 C185.16,108.26 188.76,107.09 191.26,106.56 Z" id="Shape" fill="#C69C6D"></path>
                    <path d="M152.78,50.87 C152.78,50.87 156.19,55.18 152.89,58.48 C149.59,61.78 143.26,63.3 146.35,66.21 C149.06,68.74 156.41,62.57 161.07,62.21 C161.56578,58.3255264 163.367754,54.7251063 166.18,52 C166.18,52 155.85,54.05 152.78,50.87 Z" id="Shape" fill="url(#linearGradient-2)"></path>
                    <path d="M158.61,35.75 C157.762999,33.3872784 158.368233,30.7476785 160.16,28.99 C163.31,25.55 176.35,29.84 174.68,41.81 C177,43.48 175.61,49.31 173.43,51.01 C166.85,56.11 162.43,53.1 162.43,53.1 L158.61,35.75 Z" id="Shape" fill="#211B12"></path>
                    <path d="M161.74,30.12 C161.74,30.12 152.96,39.12 152.18,47.67 C151.4,56.22 158.81,56.67 164.27,54.3 C169.73,51.93 174.41,42.41 170.51,36.36 C166.61,30.31 161.74,30.12 161.74,30.12 Z" id="Shape" fill="#F9B6A7"></path>
                    <path d="M162.82,28.52 C162.82,28.52 160.05,30.77 161.27,35.2 C162.49,39.63 166.16,37.2 168.53,41.71 C169.71,43.88 165.53,46.17 167.04,47.61 C168.92,46.55 171.83,50.61 166.38,50.28 C165.25,50.22 165.56,53.28 164.14,54.54 C164.14,54.54 172.02,52.05 172.69,47.28 C173.36,42.51 172.91,36.75 171.36,34.09 C169.81,31.43 162.82,28.52 162.82,28.52 Z" id="Shape" fill="#211B12"></path>
                    <path d="M125.23,75 L119.84,85 C115.28,86.3 109.46,87.92 104.39,89.23 C101.6,89.95 98.39,87.51 95.09,83.63 C97.1118627,84.8348984 99.3451786,85.6426935 101.67,86.01 C109.8,87.25 125.23,75 125.23,75 Z" id="Shape" fill="#999999" opacity="0.37" style="mix-blend-mode: color-burn;"></path>
                    <path d="M190.9,109.34 C190.22,113.29 188.9,116.68 186.69,118.96 C179.33,126.56 147.81,136.19 147.81,136.19 C147.680159,134.658527 147.25213,133.167217 146.55,131.8 C155.874565,127.242989 165.577791,123.505574 175.55,120.63 C181.876943,118.87413 187.339137,114.856661 190.9,109.34 L190.9,109.34 Z" id="Shape" fill="#999999" opacity="0.37" style="mix-blend-mode: color-burn;"></path>
                    <path d="M132.89,145.28 C133.133005,145.28 133.33,145.083005 133.33,144.84 C133.33,144.596995 133.133005,144.4 132.89,144.4 C132.646995,144.4 132.45,144.596995 132.45,144.84 C132.45,145.083005 132.646995,145.28 132.89,145.28 L132.89,145.28 Z" id="Shape" fill="#F59ABF"></path>
                    <path d="M74.89,154.72 C74.89,154.72 117.95,135.49 153.07,138.83 C153.07,138.83 140.07,156.39 122.97,156.39 C105.87,156.39 74.89,154.72 74.89,154.72 Z" id="Shape" fill="#DE548D"></path>
                    <path d="M145.94,130.83 C145.348824,130.011003 144.552,129.362505 143.63,128.95 L143.49,128.89 L143.39,129.03 C141.65,131.36 140.24,133.29 139.39,134.55 L135.39,131.63 L128.51,126.63 L165.51,88.76 L167.82,97.4 L167.82,97.4 C167.52,97.79 152.08,117.47 143.71,128.63" id="Shape" fill="#999999" opacity="0.37" style="mix-blend-mode: color-burn;"></path>
                    <path d="M143.24,137.16 C143.24,137.16 144.85,138.16 138.71,142.52 C134.29,145.64 127.77,141.31 127.77,141.31 L134.84,131.8 L136.84,130.42 L143.4,129 L143.63,128.92 C144.555322,129.327091 145.353451,129.97665 145.94,130.8 C146.173565,131.115885 146.380922,131.450332 146.56,131.8 C147.167682,132.975718 147.566927,134.247889 147.74,135.56 L143.24,137.16 Z" id="Shape" fill="#F9B6A7"></path>
                </g>
                <g id="Layer_16" transform="translate(205.000000, 86.000000)">
                    <path d="M0.77,48.51 C8.77,52.14 6.71,58.81 12.89,61.35 C19.07,63.89 19.89,66.69 24.77,70.81 C29.65,74.93 25.66,93.24 20.37,95.72 C15.08,98.2 -1.77,51 0.77,48.51 Z" id="Shape" fill="#6332C3" fill-rule="nonzero"></path>
                    <path d="M58.11,1.58 C58.0859117,0.955223552 57.6888056,0.406095172 57.1030161,0.187516972 C56.5172265,-0.0310612278 55.8574694,0.123715215 55.43,0.58 C47.89,8.72 13.57,47.44 13.92,77.8 C14.32,112.04 40.54,70.39 41.92,52.8 C42.5653617,45.3422168 44.5611433,38.0638825 47.81,31.32 C51.8,23.08 58.27,7.69 58.11,1.58 Z" id="Shape" fill="#4B2694" fill-rule="nonzero"></path>
                    <path d="M48.65,15.66 C48.65,15.66 35,31.53 24.53,65.48 C18.31,85.72 20.37,95.72 20.37,95.72" id="Shape" stroke="#9560FC" stroke-width="0.36"></path>
                    <path d="M20.37,95.72 C20.37,95.72 18,80 34.09,76.3 C50.18,72.6 59.44,80.3 59.44,80.3 C59.44,80.3 47.96,81.61 39.84,85.93 C34,89 31.53,92.49 20.37,95.72 Z" id="Shape" fill="#6332C3" fill-rule="nonzero"></path>
                    <path d="M49.38,79.29 C49.38,79.29 29.2,77.17 22.83,94" id="Shape" stroke="#9560FC" stroke-width="0.36"></path>
                    <path d="M29.19,91.37 L13.51,89.23 C10.62,88.83 8.15,91.08 8.63,93.65 L11.84,110.73 C12.0896155,112.04093 13.2355169,112.989552 14.57,112.99 L22.75,112.99 C23.807883,112.991197 24.7740736,112.389753 25.24,111.44 L32.47,96.68 C33.6,94.38 32,91.75 29.19,91.37 Z" id="Shape" fill="#ED5DA9" fill-rule="nonzero"></path>
                    <path d="M43.68,32.02 L33.37,41.87" id="Shape" stroke="#9560FC" stroke-width="0.36"></path>
                    <path d="M33.86,77.84 C30.5474979,80.2262346 28.0397124,83.5641355 26.67,87.41" id="Shape" stroke="#9560FC" stroke-width="0.36"></path>
                    <path d="M20.41,58.32 C20.41,58.32 20.64,70.76 22.09,74.64" id="Shape" stroke="#9560FC" stroke-width="0.36"></path>
                </g>
            </g>
        </g>
    </g>
</svg>