<?xml version="1.0" encoding="UTF-8"?>
<svg width="305px" height="275px" viewBox="0 0 305 275" version="1.1" xmlns="http://www.w3.org/2000/svg" xmlns:xlink="http://www.w3.org/1999/xlink">
    <!-- Generator: Sketch 54.1 (76490) - https://sketchapp.com -->
    <title>why-me</title>
    <desc>Created with Sketch.</desc>
    <defs>
        <linearGradient x1="0.000230580229%" y1="50.0014503%" x2="100.002408%" y2="50.0014503%" id="linearGradient-1">
            <stop stop-color="#EF40B9" offset="0%"></stop>
            <stop stop-color="#F9CEC3" offset="100%"></stop>
        </linearGradient>
        <linearGradient x1="0.0320728131%" y1="49.9953021%" x2="100.012511%" y2="49.9953021%" id="linearGradient-2">
            <stop stop-color="#EF40B9" offset="0%"></stop>
            <stop stop-color="#F9CEC3" offset="100%"></stop>
        </linearGradient>
        <linearGradient x1="0.0721726067%" y1="49.9597099%" x2="100%" y2="49.9597099%" id="linearGradient-3">
            <stop stop-color="#EF40B9" offset="0%"></stop>
            <stop stop-color="#F9CEC3" offset="100%"></stop>
        </linearGradient>
        <linearGradient x1="0%" y1="50.310559%" x2="40%" y2="50.310559%" id="linearGradient-4">
            <stop stop-color="#EF40B9" offset="0%"></stop>
            <stop stop-color="#F9CEC3" offset="100%"></stop>
        </linearGradient>
        <linearGradient x1="0%" y1="50%" x2="57%" y2="50%" id="linearGradient-5">
            <stop stop-color="#EF40B9" offset="0%"></stop>
            <stop stop-color="#F9CEC3" offset="100%"></stop>
        </linearGradient>
        <linearGradient x1="34.1864191%" y1="14.2788989%" x2="70.1584414%" y2="112.790812%" id="linearGradient-6">
            <stop stop-color="#F9CDC3" offset="0%"></stop>
            <stop stop-color="#F9AC98" offset="100%"></stop>
        </linearGradient>
        <linearGradient x1="68.1365715%" y1="38.8355567%" x2="-14.9544861%" y2="89.8372042%" id="linearGradient-7">
            <stop stop-color="#F9CDC3" offset="0%"></stop>
            <stop stop-color="#F9AC98" offset="100%"></stop>
        </linearGradient>
        <linearGradient x1="51.1408692%" y1="0.396623139%" x2="48.928895%" y2="99.0041348%" id="linearGradient-8">
            <stop stop-color="#E06CEA" offset="0%"></stop>
            <stop stop-color="#160F45" offset="100%"></stop>
        </linearGradient>
        <linearGradient x1="52.4389377%" y1="-14.4808426%" x2="44.7633201%" y2="106.700738%" id="linearGradient-9">
            <stop stop-color="#E06CEA" offset="0%"></stop>
            <stop stop-color="#160F45" offset="100%"></stop>
        </linearGradient>
        <linearGradient x1="54.2722536%" y1="30.6439604%" x2="45.341416%" y2="102.620921%" id="linearGradient-10">
            <stop stop-color="#F9CDC3" offset="0%"></stop>
            <stop stop-color="#F9AC98" offset="100%"></stop>
        </linearGradient>
        <linearGradient x1="60.6350587%" y1="30.6053516%" x2="0.289981151%" y2="57.8607261%" id="linearGradient-11">
            <stop stop-color="#E8B1A5" offset="0%"></stop>
            <stop stop-color="#DE8F7D" offset="100%"></stop>
        </linearGradient>
        <linearGradient x1="82.3554648%" y1="44.2298832%" x2="-12.6948085%" y2="72.1467494%" id="linearGradient-12">
            <stop stop-color="#F9CDC3" offset="0%"></stop>
            <stop stop-color="#F9AC98" offset="100%"></stop>
        </linearGradient>
        <linearGradient x1="56.7159807%" y1="128.685256%" x2="29.5088986%" y2="-79.1290989%" id="linearGradient-13">
            <stop stop-color="#EF40B9" offset="0%"></stop>
            <stop stop-color="#F9CEC3" offset="100%"></stop>
        </linearGradient>
        <linearGradient x1="32.4290782%" y1="71.37881%" x2="61.3980894%" y2="14.3165461%" id="linearGradient-14">
            <stop stop-color="#FFC98B" offset="0%"></stop>
            <stop stop-color="#FFF2E2" offset="100%"></stop>
        </linearGradient>
        <linearGradient x1="50.5420097%" y1="35.4861945%" x2="49.6619148%" y2="90.2280912%" id="linearGradient-15">
            <stop stop-color="#F9CDC3" offset="0%"></stop>
            <stop stop-color="#F9AC98" offset="100%"></stop>
        </linearGradient>
        <linearGradient x1="48.7857404%" y1="92.8169014%" x2="53.7102376%" y2="-90.6690141%" id="linearGradient-16">
            <stop stop-color="#EF40B9" offset="0%"></stop>
            <stop stop-color="#F9CEC3" offset="100%"></stop>
        </linearGradient>
        <linearGradient x1="52.1450784%" y1="38.2234186%" x2="44.1010345%" y2="122.687945%" id="linearGradient-17">
            <stop stop-color="#F9CDC3" offset="0%"></stop>
            <stop stop-color="#F9A48E" offset="100%"></stop>
        </linearGradient>
        <linearGradient x1="51.1781401%" y1="24.2742552%" x2="46.484582%" y2="108.193277%" id="linearGradient-18">
            <stop stop-color="#F9CDC3" offset="0%"></stop>
            <stop stop-color="#F9A48E" offset="100%"></stop>
        </linearGradient>
        <linearGradient x1="51.4898699%" y1="27.2359411%" x2="45.7399553%" y2="95.5881471%" id="linearGradient-19">
            <stop stop-color="#F9CDC3" offset="0%"></stop>
            <stop stop-color="#F9AC98" offset="100%"></stop>
        </linearGradient>
        <linearGradient x1="77.7995101%" y1="61.1040196%" x2="9.10543583%" y2="38.6432036%" id="linearGradient-20">
            <stop stop-color="#F9CDC3" offset="0%"></stop>
            <stop stop-color="#F9AC98" offset="100%"></stop>
        </linearGradient>
        <linearGradient x1="49.6886314%" y1="85.5261691%" x2="54.3664012%" y2="-66.2512453%" id="linearGradient-21">
            <stop stop-color="#EF40B9" offset="0%"></stop>
            <stop stop-color="#F9CEC3" offset="100%"></stop>
        </linearGradient>
        <linearGradient x1="65.1263093%" y1="43.540142%" x2="33.1690285%" y2="82.4628308%" id="linearGradient-22">
            <stop stop-color="#FFD7A9" offset="0%"></stop>
            <stop stop-color="#FFB159" offset="100%"></stop>
        </linearGradient>
        <linearGradient x1="40.0500033%" y1="190.723711%" x2="50.9064395%" y2="39.1843263%" id="linearGradient-23">
            <stop stop-color="#FFC98B" offset="0%"></stop>
            <stop stop-color="#FFF2E2" offset="100%"></stop>
        </linearGradient>
        <linearGradient x1="37.1293857%" y1="193.207127%" x2="51.0180147%" y2="38.8084633%" id="linearGradient-24">
            <stop stop-color="#FFC98B" offset="0%"></stop>
            <stop stop-color="#FFF2E2" offset="100%"></stop>
        </linearGradient>
    </defs>
    <g id="Page-1" stroke="none" stroke-width="1" fill="none" fill-rule="evenodd">
        <g id="why-me" transform="translate(152.500000, 137.500000) scale(-1, 1) translate(-152.500000, -137.500000) ">
            <g id="profile" transform="translate(152.500000, 137.500000) scale(-1, 1) translate(-152.500000, -137.500000) ">
                <g id="Layer_9" transform="translate(0.000000, 8.000000)" fill-rule="nonzero">
                    <path d="M288.453333,195.320733 C272.236364,207.384176 253.752727,200.405495 216.970909,218.46978 C184.310303,234.51663 198.198788,237.789817 156.615758,253.054396 C137.637576,260.012491 124.820606,258.427363 104.193939,256.142308 C98.1460606,255.462967 92.0260606,254.670403 85.8236364,253.548462 L85.5969697,253.548462 C83.5981818,253.198498 81.5993939,252.79707 79.6006061,252.364762 C70.1173582,250.381043 60.8643159,247.42501 51.9884848,243.543626 C50.6490909,242.94663 49.2993939,242.329048 47.949697,241.670293 C46.6,241.011538 45.1369697,240.280733 43.7254545,239.539634 C39.8453417,237.521859 36.1853302,235.107214 32.8042424,232.334505 C22.3411968,223.89292 16.1700706,211.245893 15.9587879,197.811648 C15.8932264,195.406919 15.9792551,193.000451 16.2163636,190.60652 C17.710303,175.239011 25.1593939,158.759853 36.729697,143.423223 C38.9276768,140.506862 41.269899,137.638535 43.7563636,134.818242 C45.130101,133.274286 46.5347475,131.744054 47.970303,130.227546 C54.3131589,123.605184 60.2711956,116.625369 65.8151515,109.322381 C72.1515152,100.871795 77.3030303,93.0182051 82.5575758,85.1234432 C93.9630303,68.0472894 123.563636,86.8012088 149.527273,63.600696 C169.309091,45.9584249 170.133333,-3.89076923 204.947273,0.34996337 C210.811469,1.03127821 216.575718,2.3958077 222.122424,4.41571429 C246.581818,13.4632967 262.366061,35.6962637 260.975152,73.2761538 C260.501212,86.080696 264.426667,95.0768132 270.041818,103.321538 C276.604848,112.945531 285.496364,121.54022 292.347879,133.953626 C300.662424,148.888828 316.611515,174.384689 288.453333,195.320733 Z" id="Shape" fill="url(#linearGradient-1)" opacity="0.27"></path>
                    <path d="M288.453333,195.320733 C272.236364,207.384176 253.752727,200.405495 216.970909,218.46978 C184.310303,234.51663 198.198788,237.789817 156.615758,253.054396 C137.637576,260.012491 124.820606,258.427363 104.193939,256.142308 C98.1460606,255.462967 92.0260606,254.670403 85.8236364,253.548462 L85.5969697,253.548462 C83.5981818,253.198498 81.5993939,252.79707 79.6006061,252.364762 C70.1173582,250.381043 60.8643159,247.42501 51.9884848,243.543626 C50.6490909,242.94663 49.2993939,242.329048 47.949697,241.670293 C46.6,241.011538 45.1369697,240.280733 43.7254545,239.539634 C39.8453417,237.521859 36.1853302,235.107214 32.8042424,232.334505 C22.3411968,223.89292 16.1700706,211.245893 15.9587879,197.811648 C15.8932264,195.406919 15.9792551,193.000451 16.2163636,190.60652 C42.2727273,165.841465 80.3321212,142.116007 133.969697,169.135238 C188.163636,196.422088 234.712727,132.430256 270.062424,103.321538 C276.625455,112.945531 285.51697,121.54022 292.368485,133.953626 C300.662424,148.888828 316.611515,174.384689 288.453333,195.320733 Z" id="Shape" fill="#FFFFFF" opacity="0.6"></path>
                    <path d="M63.7442424,201.589194 C60.7151515,182.269158 49.2581818,148.868242 37.8115152,109.25033 C34.2260606,96.82663 30.5993939,84.804359 27.0139394,74.3569231 C19.6884848,52.8135897 12.8266667,37.9710256 8.0769697,40.2149084 C-9.63393939,48.531685 5.09939394,172.995128 21.0690909,205.675531 C31.8563636,227.774689 68.2775758,212.417473 63.8266667,201.795055 C63.7887249,201.731094 63.760921,201.661652 63.7442424,201.589194 L63.7442424,201.589194 Z" id="Shape" fill="#C3AFF0"></path>
                    <path d="M11.3636364,66.1121978 C16.9787879,80.3989377 19.0290909,95.3547253 22.3260606,110.073773 C25.4169697,124.8237 28.5078788,139.573626 31.7842424,154.333846 C35.0606061,169.094066 38.2957576,183.761648 41.7266667,198.408645 C45.1575758,213.055641 48.7842424,227.71293 53.5030303,241.814396 L49.6393939,243.265714 L47.6921212,237.872161 L46.7236364,235.175385 C46.4145455,234.27989 46.1363636,233.374103 45.8581818,232.458022 C44.7660606,228.824579 43.5709091,225.252894 42.5921212,221.557692 C40.5315152,214.27022 38.5808081,206.95873 36.74,199.623223 C33.1236364,184.945348 29.8266667,170.195421 26.6430303,155.435201 C23.4593939,140.674982 20.5230303,125.863297 17.7206061,111.031026 C15.0521212,96.1369963 11.3636364,81.4694139 11.3636364,66.1121978 Z" id="Shape" fill="#73698A"></path>
                    <path d="M231.848485,266.641209 C214.941212,267.341136 187.432121,258.406777 208.058788,239.817546 C224.832121,224.66619 229.870303,220.188718 271.453333,216.802308 C299.137576,214.548132 292.986667,264.098828 231.848485,266.641209 Z" id="Shape" fill="url(#linearGradient-2)" opacity="0.27"></path>
                    <path d="M15.9381818,196.710293 C15.9149894,192.420488 16.3362229,188.1398 17.1951515,183.93663 C16.3362229,188.1398 15.9149894,192.420488 15.9381818,196.710293 L15.9381818,196.710293 Z" id="Shape" fill="url(#linearGradient-3)" opacity="0.27"></path>
                    <path d="M17.7309091,181.4663 C17.8648485,180.910476 17.9987879,180.364945 18.1430303,179.809121 C17.9987879,180.364945 17.8648485,180.910476 17.7309091,181.4663 Z" id="Shape" fill="url(#linearGradient-4)" opacity="0.27"></path>
                    <path d="M18.1430303,179.809121 C18.3284848,179.098901 18.5242424,178.398974 18.730303,177.688755 C18.5757576,178.398974 18.3284848,179.098901 18.1430303,179.809121 Z" id="Shape" fill="url(#linearGradient-5)" opacity="0.27"></path>
                    <path d="M17.7309091,181.4663 C17.8648485,180.910476 17.9987879,180.364945 18.1430303,179.809121 C17.9987879,180.364945 17.8648485,180.910476 17.7309091,181.4663 Z" id="Shape" fill="url(#linearGradient-4)" opacity="0.27"></path>
                    <path d="M18.1430303,179.809121 C18.3284848,179.098901 18.5242424,178.398974 18.730303,177.688755 C18.5757576,178.398974 18.3284848,179.098901 18.1430303,179.809121 Z" id="Shape" fill="url(#linearGradient-5)" opacity="0.27"></path>
                    <polygon id="Shape" fill="#73698A" points="7.85030303 102.601026 23.8818182 120.191832 20.6054545 122.682747"></polygon>
                    <polygon id="Shape" fill="#73698A" points="29.1260606 108.457766 29.4866667 146.984615 25.3654545 146.809634"></polygon>
                    <polygon id="Shape" fill="#73698A" points="17.9987879 84.9072894 20.1315152 101.29381 16.010303 101.304103"></polygon>
                </g>
                <g id="Layer_8" transform="translate(32.000000, 0.000000)">
                    <path d="M116.168684,19.4127559 L17.55,19.4127559 C14.3994804,19.3979928 11.5529456,17.5203542 10.2859551,14.6212278 C9.01896471,11.7221015 9.56905955,8.34502822 11.6897368,6.00330709 C14.5018421,2.9088189 18.6686842,0.618897638 24.8368421,0.618897638 C35.88,0.618897638 41.7402632,13.626063 41.7402632,13.626063 C41.7402632,13.626063 42.0789474,10.211811 50.1971053,10.211811 C55.4621053,10.211811 57.1452632,12.7905512 58.2742105,14.7400787 C58.7771053,15.6065354 116.168684,19.4127559 116.168684,19.4127559 Z" id="Shape" fill="#FEF3F6" fill-rule="nonzero"></path>
                    <path d="M64.0421053,201.141732 C68.3731579,220.286299 45.5684211,233.819528 31.1178947,220.585433 C17.16,207.784567 5.13157895,183.080236 6.48631579,135.672677 C6.89684211,121.004803 4.11552632,105.676772 3.06868421,91.5143307 C-0.297631579,45.7984252 -0.667105263,14.2552756 6.45552632,10.3665354 C17.9707895,4.07440945 20.7623684,44.8700787 34.7715789,89.7917323 C44.2444737,120.148661 50.5357895,148.339449 52.1060526,153.517559 C54.2818421,160.913386 59.6802632,181.894016 64.0421053,201.141732 Z" id="Shape" fill="#FFD1EC" fill-rule="nonzero"></path>
                    <path d="M44.2136842,59.6720472 C51.7673684,57.3408661 52.4242105,52.9776378 51.4594737,47.3456693 C48.9655263,33.3276378 36.2084211,35.4937795 33.7555263,41.5383465 C30.1018421,50.5433071 27.6078947,54.8033858 30.42,58.7952756 C33.2321053,62.7871654 35.9723684,62.2095276 44.2136842,59.6720472 Z" id="Shape" fill="#FFDEF1" fill-rule="nonzero"></path>
                    <path d="M12.3157895,42.9205512 C13.7012414,47.3687592 14.8117802,51.8987888 15.6410526,56.4847244 C16.5134211,61.0233071 17.1497368,65.5928346 17.6936842,70.1726772 C18.8226316,79.3254856 19.9994737,88.4714173 21.2242105,97.6104724 C23.7284211,115.888583 26.2326316,134.156378 29.3013158,152.279764 C30.8510526,161.336299 32.4521053,170.40315 34.4944737,179.304961 C36.5368421,188.206772 38.5997368,197.325197 40.5702632,206.350787 C42.5407895,215.376378 44.3676316,224.432913 46.2047368,233.489449 C48.0418421,242.545984 49.8173684,251.60252 51.4594737,260.700315 L48.4421053,261.308898 L42.3560526,234.314646 L36.1160526,207.361654 C34.0634211,198.377323 31.8568421,189.423937 29.7118421,180.449921 C27.5668421,171.475906 25.9042105,162.254331 24.2826316,153.135906 C21.2515789,134.892178 18.6310526,116.593438 16.4210526,98.239685 C15.2852632,89.0731234 14.1939474,79.899685 13.1471053,70.7193701 C12.6236842,66.1292126 12.2131579,61.5287402 12.0386842,56.8973228 C11.8135368,52.2375032 11.9061217,47.5676575 12.3157895,42.9205512 L12.3157895,42.9205512 Z" id="Shape" fill="#E09EC4" fill-rule="nonzero"></path>
                    <polygon id="Shape" fill="#E09EC4" fill-rule="nonzero" points="8.05657895 53.8337795 15.99 63.2513386 13.4139474 64.9429921"></polygon>
                    <polygon id="Shape" fill="#E09EC4" fill-rule="nonzero" points="28.0697368 75.9181102 19.5513158 94.6500787 16.8623684 93.1544094"></polygon>
                    <path d="M13.4139474,160.181024 L32.5752632,180.295197" id="Shape" stroke="#E09EC4" stroke-width="3"></path>
                    <polygon id="Shape" fill="#E09EC4" fill-rule="nonzero" points="21.6039474 67.8827559 42.0378947 47.1290551 23.4205263 69.0380315"></polygon>
                </g>
                <g id="Layer_3" transform="translate(140.000000, 7.000000)">
                    <path d="M136.984167,151.7808 C136.984167,151.7808 137.551795,147.6608 140.947244,146.8265 L152.165641,158.9908 C153.445933,160.376821 154.320536,162.086924 154.694167,163.9348 L154.694167,163.9348 C152.535921,163.367446 150.480933,162.463658 148.605064,161.2568 C144.776154,158.9908 136.984167,151.7808 136.984167,151.7808 Z" id="Shape" fill="#473B37" fill-rule="nonzero"></path>
                    <path d="M111.905321,164.6455 C111.905321,164.6455 112.276859,160.5255 115.682628,159.6191 L127.035192,171.8555 C128.317154,173.244386 129.191867,174.958266 129.563718,176.8098 L129.563718,176.8098 C127.404279,176.240884 125.349008,175.333495 123.474615,174.1215 C119.717949,171.8555 111.905321,164.6455 111.905321,164.6455 Z" id="Shape" fill="#473B37" fill-rule="nonzero"></path>
                    <path d="M83.2349359,40.7262 C83.2349359,40.7262 82.1512821,36.9564 78.508141,36.9049 C74.865,36.8534 69.9111538,36.9976 66.2783333,44.496 C62.9551282,51.3558 61.8198718,53.766 64.6683333,57.0929 C65.9171154,58.5349 63.8633333,60.4713 58.8578846,60.7597 C47.1544231,61.4189 38.5987179,63.5613 40.7247436,80.0825 C-14.6757692,59.5958 -6.95602564,168.9097 28.2059615,137.2784 C61.2935256,107.5217 79.9942949,128.7294 76.9084615,93.0914 C75.7732051,80.0619 75.3913462,73.5214 80.118141,62.7373 C84.0192949,53.8587 88.3745513,52.5094 86.960641,42.9407 C86.4652564,39.5417 83.2349359,40.7262 83.2349359,40.7262 Z" id="Shape" fill="#473B38" fill-rule="nonzero"></path>
                    <path d="M63.3266667,71.4923 L55.4727564,79.5778 L49.1359615,86.1183 C49.1359615,86.1183 30.3423077,59.6576 21.3944231,38.9546 C20.0461278,35.8975004 18.8981363,32.7562602 17.9576923,29.5507 C12.1059615,8.6211 16.120641,4.8925 18.1950641,4.326 C18.7021598,4.23456777 19.2191921,4.4236382 19.5470513,4.8204 C20.7442308,5.974 21.8072436,8.9404 22.3232692,11.9274 C22.4761565,12.8136456 22.5795214,13.7076937 22.6328846,14.6054 C23.4172436,13.9359 24.0261538,13.3076 24.5628205,12.8235 C25.5948718,11.8862 26.2347436,11.4433 26.9778205,12.0613 C27.1206503,12.1801311 27.1974663,12.3602901 27.1842308,12.5454 C27.1842308,13.9668 24.2325641,17.2731 24.15,19.4155 C24.0983974,20.6824 28.1646795,33.5059 37.8866026,45.2479 C47.2473077,56.5367 59.0642949,66.2084 63.3266667,71.4923 Z" id="Shape" fill="url(#linearGradient-6)" fill-rule="nonzero"></path>
                    <path d="M153.300897,49.1207 C151.113573,50.361471 149.118142,51.9123159 147.376923,53.7248 C146.489359,54.693 145.797885,55.6921 144.838077,56.9487 C126.013462,81.6687 101.667372,88.3843 88.3745513,94.5643 C87.7966026,94.8321 87.2392949,95.0999 86.7335897,95.3574 C84.7981418,93.3191982 83.3822589,90.846328 82.6053846,88.1474 C81.4288462,83.5433 82.6053846,77.4766 92.5130769,72.2751 C93.9269872,71.9661 95.4028205,71.6365 96.9405769,71.2451 C109.015577,68.289 118.851026,66.3217 132.298654,57.9169 C136.59847,55.2086572 140.46697,51.8721112 143.775064,48.0186 C143.775064,48.0186 143.176474,39.037 145.90109,37.9761 C147.005385,37.5538 146.468718,40.2421 147.10859,41.4781 C147.748462,42.7141 149.585513,39.0164 150.576282,37.698 C151.567051,36.3796 156.056474,32.548 159.080385,33.4544 C162.104295,34.3608 158.677885,45.7732 153.300897,49.1207 Z" id="Shape" fill="url(#linearGradient-7)" fill-rule="nonzero"></path>
                    <path d="M103.277372,168.1166 L100.005769,175.7489 L100.005769,175.7489 C99.926307,175.890462 99.8213432,176.016168 99.6961538,176.1197 C99.6151492,176.197662 99.5207643,176.260461 99.4175,176.3051 C98.7260256,176.645 97.4772436,176.3051 96.0117308,171.6392 C95.9601282,171.4847 95.9188462,171.3302 95.8672436,171.1654 C94.719106,166.972274 93.8638897,162.704691 93.3077564,158.3934 C89.9019872,135.2081 78.0024359,133.2305 71.7688462,125.5879 C70.3888686,124.064407 69.4318366,122.207407 68.9926282,120.201 C68.7762544,118.891488 68.9262494,117.54778 69.4260897,116.3179 C69.7057132,115.600937 70.0512027,114.911332 70.458141,114.2579 C71.4901923,112.5172 72.9144231,110.8177 74.0187179,108.9019 C77.1148718,103.618 69.1783974,98.3238 68.9307051,98.159 C69.0958333,98.2208 73.9361538,100.0439 77.0735897,97.2835 C78.0622236,96.3743361 78.777061,95.2078999 79.1376923,93.9154 C79.8662869,91.7571148 81.0445924,89.7772838 82.5950641,88.1062 C83.3719384,90.805128 84.7878213,93.2779982 86.7232692,95.3162 C87.2289744,95.0587 87.7553205,94.7909 88.3642308,94.5231 L88.6532051,94.8836 C84.4522261,100.761242 81.4633287,107.413375 79.8601282,114.4536 L80.0149359,114.4536 C79.3957051,120.2319 84.4837179,119.7272 88.4674359,123.9502 C100.305064,136.5059 97.4359615,156.6527 98.9530769,170.1251 L103.277372,168.1166 Z" id="Shape" fill="url(#linearGradient-8)" fill-rule="nonzero"></path>
                    <path d="M96.9302564,71.2039 L96.9302564,71.2039 C96.5587179,71.4099 92.3685897,71.8734 89.9535897,74.2939 C85.753141,78.5787 84.4837179,82.5339 84.7004487,85.9329 C85.0285167,89.0964594 86.3136016,92.0854385 88.3848718,94.5025 L88.6738462,94.863 C84.4728671,100.740642 81.4839697,107.392775 79.8807692,114.433 C79.7466026,115.0716 79.6330769,115.7102 79.5401923,116.3591 L72.2435897,116.39 L69.4673718,116.39 C60.8084615,116.2767 55.7926923,116.1634 50.1267308,116.1634 C50.1267308,116.0089 50.1267308,115.8441 50.1267308,115.6587 C49.7861538,110.0452 47.2266667,97.9942 45.4308974,90.331 C44.5433333,86.5818 44.8013462,83.7287 45.885,81.37 C48.2174359,76.323 54.3684615,73.5729 61.2419231,69.1542 L61.2419231,69.1542 C61.5102564,68.9894 61.8714744,69.216 62.1294872,69.4014 C63.1615385,70.1533 64.9057051,70.4314 66.3402564,70.9773 C67.6453749,71.3849447 68.6131048,72.4858846 68.848141,73.8304 C71.1271938,72.4866862 73.6247674,71.5523935 76.2273077,71.07 C76.5782051,71.0082 76.9291026,70.9567 77.259359,70.9155 C79.1047485,70.6751406 80.9754934,70.7063734 82.8117949,71.0082 C90.4902564,72.2957 91.4810256,71.585 96.9302564,71.2039 Z" id="Shape" fill="url(#linearGradient-9)" fill-rule="nonzero"></path>
                    <path d="M74.3076923,39.6344 C77.4038462,38.11 82.5641026,37.08 83.4207051,45.1037 C84.2773077,53.1274 85.309359,60.1005 80.118141,61.9854 C74.9269231,63.8703 76.6504487,67.3826 76.2685897,70.9567 C75.2365385,74.2115 74.0703205,75.0767 71.7069231,76.3127 C69.0333039,77.7081641 66.1136,78.5721899 63.1099359,78.8568 C60.1892308,79.0422 63.213141,74.1394 65.4733333,71.791 C67.7335256,69.4426 69.5396154,66.641 69.0648718,62.9227 C68.6121304,60.1995537 68.3911706,57.4430466 68.404359,54.6827 C68.404359,54.6827 66.1338462,51.191 67.5580769,49.5327 C68.9823077,47.8744 69.5396154,49.7284 70.3858974,50.0065 C71.2321795,50.2846 71.5211538,48.3997 70.860641,45.1964 C70.2001282,41.9931 72.9350641,40.2936 74.3076923,39.6344 Z" id="Shape" fill="url(#linearGradient-10)" fill-rule="nonzero"></path>
                    <path d="M68.7552564,47.6272 C68.7552564,47.6272 69.8698718,50.2949 71.3353846,50.4803 C72.8008974,50.6657 72.1816667,48.9765 72.0371795,47.277 C71.8926923,45.5775 72.3261538,43.7853 74.7308333,44.496 C77.1355128,45.2067 80.923141,44.7741 81.7694231,42.436 L82.5641026,40.067 C82.5641026,40.067 79.7259615,35.4423 72.7905769,38.6456 C65.8551923,41.8489 68.7552564,47.6272 68.7552564,47.6272 Z" id="Shape" fill="#473B38" fill-rule="nonzero"></path>
                    <path d="M59.3326282,83.43 C56.5904116,86.9658314 56.5147355,91.8833916 59.146859,95.5016 C64.0594231,102.8558 69.1164744,99.2714 72.5119231,105.8016" id="Shape" stroke="#808080" style="mix-blend-mode: multiply;"></path>
                    <path d="M116.012885,169.3114 C116.012885,169.3114 100.294744,183.34 84.8965385,194.4434 C72.0887821,203.7134 58.4760256,208.2145 55.3489103,203.6516 C53.0474359,200.2938 52.0050641,196.9154 50.3021795,190.2616 C47.9941933,180.871045 46.1685222,171.368923 44.8323077,161.7924 L68.1153846,185.8532 L76.3717949,181.7332 L96.5483974,171.6598 L98.0139103,170.9388 L99.4278205,170.2281 L103.617949,168.1681 L112.183974,163.8936 L112.638077,164.0481 C113.768038,164.460813 114.45006,165.611053 114.268718,166.7982 L114.268718,166.7982 L116.012885,169.3114 Z" id="Shape" fill="url(#linearGradient-11)" fill-rule="nonzero"></path>
                    <path d="M140.947244,146.8265 L152.165641,158.9908" id="Shape"></path>
                    <path d="M97.3121154,170.4444 L99.4587821,175.5944 C99.6222601,176.011552 100.01855,176.291809 100.46709,176.307476 C100.91563,176.323144 101.330584,176.071225 101.522885,175.6665 C102.6375,173.4829 105.031859,170.259 110.07859,167.3647 C118.727179,162.4104 138.418718,150.8229 138.418718,150.8229 C139.250579,150.986186 139.973506,151.495061 140.406795,152.222326 C140.840083,152.94959 140.942786,153.826514 140.689231,154.6339 C140.689231,154.6339 107.095962,192.0229 99.8819231,198.9239 C89.7987821,208.5441 78.3120513,199.2123 73.4304487,181.9186 L97.3121154,170.4444 Z" id="Shape" fill="url(#linearGradient-12)" fill-rule="nonzero"></path>
                    <path d="M100.005769,175.7489 L100.005769,175.7489 C100.005769,175.7489 99.8716026,175.8931 99.6755128,176.0682 L99.4175,176.3051 C93.4170434,181.633589 86.1404655,185.326731 78.2914103,187.0274 L78.0540385,187.0274 C65.9687179,189.4376 51.9534615,189.3449 40.4770513,183.8241 C39.935304,171.600742 40.259487,159.354458 41.4471795,147.1767 C43.5112821,128.8118 50.0854487,124.4034 49.8480769,115.5969 L50.0648077,115.5351 C54.316859,114.5051 63.3989103,114.2064 70.4684615,114.2064 L73.4510897,114.2064 C76.7742949,114.2064 79.2512179,114.3403 79.8807692,114.433 L80.0355769,114.433 C79.4163462,120.2113 84.504359,119.7066 88.4880769,123.9296 C100.325705,136.4853 97.4566026,156.6321 98.9737179,170.1045 C99.1556928,172.011915 99.5009709,173.900278 100.005769,175.7489 Z" id="Shape" fill="url(#linearGradient-13)" fill-rule="nonzero"></path>
                    <polygon id="Shape" fill="#FF9E02" fill-rule="nonzero" points="25.739359 6.7465 25.4813462 6.6332 20.7958333 16.8611 15.8316667 16.7993 25.4710256 21.321 21.8382051 17.3864"></polygon>
                    <path d="M34.2125,6.9216 C34.2125,6.9216 30.9615385,11.33 27.1842308,12.5454 C27.1974663,12.3602901 27.1206503,12.1801311 26.9778205,12.0613 C26.2347436,11.4433 25.5742308,11.8862 24.5628205,12.8235 C24.143585,12.7645439 23.7340597,12.6502433 23.345,12.4836 C22.9840297,12.3355274 22.6383787,12.1526965 22.3129487,11.9377 C20.0321154,10.3618 19.4954487,7.3748 19.5367308,4.8204 C19.5567541,3.27515688 19.7541313,1.7372927 20.125,0.2369 C20.125,0.2369 30.0533333,-0.1442 34.2125,6.9216 Z" id="Shape" fill="url(#linearGradient-14)" fill-rule="nonzero"></path>
                </g>
                <g id="Layer_17" transform="translate(30.000000, 37.000000)">
                    <polygon id="Shape" fill="url(#linearGradient-15)" fill-rule="nonzero" points="84.678611 20.9856204 78.326944 25.2773723 76.117222 45.2849635 69.015278 48.4445985 70.145833 52.4070073 76.353611 63.8516788 88.203889 52.6128467"></polygon>
                    <path d="M56.1783333,26.5432847 C56.1783333,26.5432847 56.6408333,20.800365 54.0097222,20.1416788 C51.3786111,19.4829927 45.7875,25.2876642 45.7875,25.2876642 C42.9145714,24.7909411 40.0385447,26.1486546 38.5930556,28.6840146 C36.2291667,33.0478102 39.0555556,42.6605109 44.6055556,44.7291971 C50.1555556,46.7978832 52.2213889,45.4805109 52.2213889,45.4805109 L56.1783333,26.5432847 Z" id="Shape" fill="#473B37" fill-rule="nonzero"></path>
                    <path d="M78.851111,64.5309489 L64.318333,76.119708 L50.8133333,57.0692701 L52.3138889,49.8648905 L53.6397222,49.4943796 C56.1095502,48.7434016 58.7895515,49.2341358 60.8341667,50.8117518 L71.697778,46.8905109 C71.697778,46.8905109 78.285833,52.6643066 78.851111,64.5309489 Z" id="Shape" fill="url(#linearGradient-16)" fill-rule="nonzero"></path>
                    <path d="M48.1616667,183.13562 L28.6338889,210.687226 L21.9738889,214.196788 C19.24,212.982336 16.4958333,211.654672 13.7516667,210.18292 C9.8787877,208.169231 6.2273565,205.754579 2.8572222,202.97854 C8.7977778,200.15854 12.9911111,198.429489 12.9911111,198.429489 L20.6172222,183.588467 L32.8888889,160.668248 L48.1616667,183.13562 Z" id="Shape" fill="url(#linearGradient-17)" fill-rule="nonzero"></path>
                    <path d="M82.448333,200.518759 L74.102778,226.825036 C67.997778,226.145766 61.7694444,225.342993 55.6027778,224.200584 C58.6861111,210.821022 62.6019444,203.060876 62.6019444,203.060876 L57.4733333,177.59854 L70.464444,174.613869 L77.7925,172.936277 L78.337222,176.18854 L82.448333,200.518759 Z" id="Shape" fill="url(#linearGradient-18)" fill-rule="nonzero"></path>
                    <path d="M53.6294444,49.5355474 C53.6294444,49.5355474 64.616389,50.8220438 76.024722,80.998102 C79.971389,90.796058 82.191389,105.297445 82.191389,105.297445 L68.861111,107.613139 L53.6294444,49.5355474 Z" id="Shape" fill="#CC308C" fill-rule="nonzero"></path>
                    <path d="M50.0630556,155.03854 L55.7055556,184.80292 L83.548056,180.47 C83.548056,180.47 72.448056,104.360876 66.805556,91.547372 L43.0947222,94.748175 L50.0630556,155.03854 Z" id="Shape" fill="#391F60" fill-rule="nonzero"></path>
                    <path d="M50.9572222,23.4351095 C53.0847222,21.5722628 60.125,24.8554015 64.215556,38.9862774 C64.215556,38.9862774 60.1044444,43.7823358 57.165,44.2145985 L56.3119444,49.4429197 C57.7770534,51.3039039 57.5948489,53.9739929 55.8905556,55.6181022 L46.25,49.7208029 L48.9736111,43.8029197 L47.8533333,40.1286861 C47.8533333,40.1286861 43.6188889,38.420219 44.6055556,35.5693431 C45.5922222,32.7184672 48.3055556,35.3120438 48.3055556,35.3120438 C48.3055556,35.3120438 50.9572222,35.5693431 50.3611111,31.4525547 C49.765,27.3357664 49.8266667,24.4231387 50.9572222,23.4351095 Z" id="Shape" fill="url(#linearGradient-19)" fill-rule="nonzero"></path>
                    <path d="M32.19,111.894599 C32.19,111.894599 32.745,115.280657 29.5486111,121.692555 C26.3522222,128.104453 27.1025,147.30927 24.0911111,159.186204 C21.8738711,167.546699 19.2394533,175.790623 16.1977778,183.886934 L48.3672222,187.839051 C48.3672222,187.839051 70.978333,139.044818 66.990556,107.016204 L32.19,111.894599 Z" id="Shape" fill="#502974" fill-rule="nonzero"></path>
                    <polygon id="Shape" fill="#C3AFF0" fill-rule="nonzero" points="51.3477778 114.292628 62.5402778 111.163869 65.479722 127.51781 58.5319444 129.71"></polygon>
                    <path d="M64.636944,118.110949 L65.7675,123.483358 C65.7675,123.483358 62.9513889,127.435474 58.7169444,127.72365 C56.0981764,127.865952 53.4834004,127.378975 51.0908333,126.303358 C51.0908333,126.303358 20.0519444,120.941241 2.2713889,110.484599 C2.2713889,110.484599 -2.9805556,104.535839 4.3269444,92.041387 L19.7436111,98.515036 L16.6602778,102.570073 L30.3811111,109.13635 L39.6927778,113.582482 L48.5522222,117.822774 L64.996667,114.735182 C64.996667,114.735182 66.075833,117.092044 64.636944,118.110949 Z" id="Shape" fill="url(#linearGradient-20)" fill-rule="nonzero"></path>
                    <path d="M19.7641667,98.515036 L4.3475,92.041387 C5.2597691,90.505351 6.2512009,89.017867 7.3177778,87.584964 L17.6469444,86.915985 L19.7641667,98.515036 Z" id="Shape" fill="#F9CDC3" fill-rule="nonzero"></path>
                    <path d="M74.143889,109.259854 L42.5088889,113.232555 L39.6927778,113.582482 L30.3811111,109.13635 L29.1683333,86.648394 L19.7641667,98.515036 L4.3475,92.041387 L3.1758333,91.547372 C16.7219444,61.9682482 30.4222222,54.7844526 30.4222222,54.7844526 C40.3916667,49.5046715 46.7125,48.9180292 46.7125,48.9180292 C72.15,62.1329197 74.143889,109.259854 74.143889,109.259854 Z" id="Shape" fill="url(#linearGradient-21)" fill-rule="nonzero"></path>
                    <polygon id="Shape" fill="#CC308C" fill-rule="nonzero" points="42.5088889 113.232555 39.6927778 113.582482 30.3811111 109.13635 29.1683333 86.648394 36.6094444 77.560584 42.2725 111.32854"></polygon>
                    <polygon id="Shape" fill="url(#linearGradient-22)" fill-rule="nonzero" points="118.071111 20.1416788 105.008056 23.7644526 95.901944 26.2859854 91.646944 27.469562 82.674444 29.960219 69.159167 33.7064964 68.028611 32.2038686 85.233611 18.8654745 94.761111 11.4758394 100.300833 7.1840876 108.851944 0.5457664 109.335 1.5646715"></polygon>
                    <path d="M72.263056,24.1452555 L71.841667,30.9276642 L80.444167,25.8434307 C80.406585,23.8672713 81.31593,21.9925056 82.890278,20.800365 C83.455556,20.3269343 81.153333,20.1931387 81.153333,20.1931387 C81.153333,20.1931387 76.775,17.7848175 72.263056,24.1452555 Z" id="Shape" fill="#F9CDC3" fill-rule="nonzero"></path>
                    <path d="M71.1325,31.9156934 C72.902585,33.020148 75.055498,33.3265304 77.062778,32.759635 C80.300278,31.730438 77.484167,29.5176642 75.366944,29.939635 C73.249722,30.3616058 69.580556,29.0956934 71.1325,31.9156934 Z" id="Shape" fill="#F9CDC3" fill-rule="nonzero"></path>
                    <path d="M46.0444444,127.610438 C46.0444444,127.610438 43.3722222,161.769489 32.3236111,185.832117" id="Shape" stroke="#F7CB74"></path>
                    <path d="M218.608333,70.7781752 C218.608333,70.7781752 217.364722,75.563942 214.034722,75.666861 L216.532222,76.191752 L215.288611,79.10438 C218.316113,78.291552 220.781744,76.093462 221.938333,73.176204 L218.608333,70.7781752 Z" id="Shape" fill="#F7CB74" fill-rule="nonzero"></path>
                    <path d="M100.085,178.020511 C100.085,178.020511 98.841389,182.806277 95.511389,182.909197 L98.008889,183.434088 L96.765278,186.346715 C99.79278,185.533888 102.25841,183.335798 103.415,180.41854 L100.085,178.020511 Z" id="Shape" fill="#F7CB74" fill-rule="nonzero"></path>
                    <path d="M110.403889,136.296861 C110.403889,136.296861 115.183056,137.552482 115.285833,140.876788 L115.81,138.375839 L118.718611,139.63146 C117.906905,136.599777 115.711845,134.130742 112.798611,132.972555 L110.403889,136.296861 Z" id="Shape" fill="#F7CB74" fill-rule="nonzero"></path>
                    <polygon id="Shape" fill="url(#linearGradient-23)" fill-rule="nonzero" points="109.335 1.5646715 105.008056 23.7644526 95.901944 26.2859854 100.300833 7.1840876 108.851944 0.5457664"></polygon>
                    <polygon id="Shape" fill="url(#linearGradient-24)" fill-rule="nonzero" points="94.761111 11.4758394 91.646944 27.469562 82.674444 29.960219 85.233611 18.8654745"></polygon>
                    <path d="M65.161111,55.4122628 C61.9647222,51.4086861 60.7827778,50.8529197 60.7827778,50.8529197 L71.697778,46.8905109 C65.561944,50.060438 65.109722,55.1240876 65.161111,55.4122628 Z" id="Shape" fill="#CC308C" fill-rule="nonzero"></path>
                    <polygon id="Shape" fill="#CC308C" fill-rule="nonzero" points="45.1194444 69.3578832 52.4577778 67.2171533 54.4413889 74.946423 51.2758333 77.766423 47.1544444 76.346131"></polygon>
                </g>
            </g>
        </g>
    </g>
</svg>