<svg xmlns="http://www.w3.org/2000/svg" viewBox="0 0 25 25"><title>announcement</title><g id="budicon-announcement"><polyline points="2 15 23 17 23 19.863 1 17 2 15" style="fill:#e8e5fe"/><path d="M23.5,4.002a.5.5,0,0,0-.5.5v.63L2.306,7.8315A1.5,1.5,0,0,0,1,9.3191v7.3657a1.5,1.5,0,0,0,1.306,1.4875L7,18.7847V21.502a.5.5,0,0,0,.4019.49l5,1a.5145.5145,0,0,0,.0981.01.5.5,0,0,0,.5-.5V19.5671l10,1.3044v.63a.5.5,0,0,0,1,0v-17A.5.5,0,0,0,23.5,4.002ZM2,16.6848V9.3191a.5011.5011,0,0,1,.4353-.4958L18,6.793v12.418l-15.5647-2.03A.5011.5011,0,0,1,2,16.6848Zm10,5.2073-4-.8V18.915l4,.5217Zm7-2.5508V6.6626l4-.5217V19.863Z" style="fill:#8075f2"/></g></svg>