<svg xmlns="http://www.w3.org/2000/svg" viewBox="0 0 25 25"><title>bill</title><g id="budicon-bill"><path d="M21,2.1011V18.8989H7.5a.5.5,0,0,0-.5.5v2a1.5016,1.5016,0,0,1-1.5,1.5,1.48,1.48,0,0,1-.4646-.0811A1.4992,1.4992,0,0,0,8,22.5v-2a.5.5,0,0,1,.5-.5H22V1.4343Z" style="fill:#e8e5fe"/><path d="M8.9423,23a2.5178,2.5178,0,0,1-.4536,1H23a1.0008,1.0008,0,0,0,1-1v0Z" style="fill:#e8e5fe"/><path d="M11.5,12h4a.5006.5006,0,0,1,.5.5v1a.5006.5006,0,0,1-.5.5h-5a.5.5,0,1,0,0,1H13v.5a.5.5,0,0,0,1,0V15h1.5A1.5016,1.5016,0,0,0,17,13.5v-1A1.5016,1.5016,0,0,0,15.5,11h-4a.5007.5007,0,0,1-.5-.5v-1a.5007.5007,0,0,1,.5-.5h5a.5.5,0,0,0,0-1H14V7.5a.5.5,0,0,0-1,0V8H11.5A1.5017,1.5017,0,0,0,10,9.5v1A1.5017,1.5017,0,0,0,11.5,12Z" style="fill:#8075f2"/><path d="M24.5,20H23V.5a.5.5,0,0,0-.7773-.416L19.5,1.8992,16.7774.0842a.4987.4987,0,0,0-.5547,0L13.5,1.8992,10.7774.0842a.4987.4987,0,0,0-.5547,0L7.5,1.8992,4.7774.0842A.5.5,0,0,0,4,.5v22A2.5,2.5,0,0,0,6,24.95V25H23a2,2,0,0,0,2-2V20.5A.5.5,0,0,0,24.5,20ZM5,22.5V1.4343L7.2227,2.9163a.4987.4987,0,0,0,.5547,0L10.5,1.1013l2.7227,1.8149a.4987.4987,0,0,0,.5547,0L16.5,1.1013l2.7227,1.8149a.4987.4987,0,0,0,.5547,0L22,1.4343V20H8.5a.5.5,0,0,0-.5.5v2a1.5,1.5,0,0,1-3,0ZM24,23a1.0009,1.0009,0,0,1-1,1H8.4886A2.4773,2.4773,0,0,0,9,22.5V21H24Z" style="fill:#8075f2"/></g></svg>