<svg xmlns="http://www.w3.org/2000/svg" viewBox="0 0 25 25"><title>calculator</title><g id="budicon-calculator"><path d="M20.5,1H20V22.5a.5007.5007,0,0,1-.5.5H3v.5a.5007.5007,0,0,0,.5.5h17a.5007.5007,0,0,0,.5-.5V1.5A.5007.5007,0,0,0,20.5,1Z" style="fill:#e8e5fe"/><path d="M20.5,0H3.5A1.5,1.5,0,0,0,2,1.5v22A1.5,1.5,0,0,0,3.5,25h17A1.5,1.5,0,0,0,22,23.5V1.5A1.5,1.5,0,0,0,20.5,0ZM21,23.5a.5007.5007,0,0,1-.5.5H3.5a.5007.5007,0,0,1-.5-.5V1.5A.5007.5007,0,0,1,3.5,1h17a.5007.5007,0,0,1,.5.5Z" style="fill:#8075f2"/><path d="M18.5,4H5.5a.5.5,0,0,0,0,1h13a.5.5,0,0,0,0-1Z" style="fill:#8075f2"/><circle cx="7" cy="10" r="1" style="fill:#8075f2"/><circle cx="12" cy="10" r="1" style="fill:#8075f2"/><circle cx="17" cy="10" r="1" style="fill:#8075f2"/><circle cx="7" cy="15" r="1" style="fill:#8075f2"/><circle cx="12" cy="15" r="1" style="fill:#8075f2"/><circle cx="17" cy="15" r="1" style="fill:#8075f2"/><circle cx="7" cy="20" r="1" style="fill:#8075f2"/><circle cx="12" cy="20" r="1" style="fill:#8075f2"/><circle cx="17" cy="20" r="1" style="fill:#8075f2"/></g></svg>