<svg xmlns="http://www.w3.org/2000/svg" viewBox="0 0 25 25"><title>chevron-bottom-circle</title><g id="budicon-chevron-bottom-circle-2" data-name="budicon-chevron-bottom-circle"><path d="M19.5591,3.4409A11.4815,11.4815,0,0,1,3.4409,19.5591,11.487,11.487,0,1,0,19.5591,3.4409Z" style="fill:#e8e5fe"/><path d="M12.5,0A12.5,12.5,0,1,0,25,12.5,12.5,12.5,0,0,0,12.5,0Zm0,24A11.5,11.5,0,1,1,24,12.5,11.5129,11.5129,0,0,1,12.5,24Z" style="fill:#8075f2"/><path d="M18.1556,10.2456,12.5,15.9056l-5.6556-5.66a.4948.4948,0,0,0-.6995.7l6.0054,6.01a.4943.4943,0,0,0,.6995,0l6.0054-6.01a.4948.4948,0,0,0-.6995-.7Z" style="fill:#8075f2"/></g></svg>