<svg xmlns="http://www.w3.org/2000/svg" viewBox="0 0 25 25"><title>typing-chat</title><g id="budicon-typing-chat"><path d="M23.5,18.002a.5.5,0,0,0,.5-.5v-16a.5.5,0,0,0-.5-.5H20V14a4,4,0,0,1-4,4H13v.002h1.1631a1.51,1.51,0,0,1,.9082.3062l4.9258,3.6909L20,18.7015a.7.7,0,0,1,.7-.7Z" style="fill:#e8e5fe"/><path d="M23.5.002H2.5A1.5016,1.5016,0,0,0,1,1.502v16a1.5016,1.5016,0,0,0,1.5,1.5H14.1631a.5079.5079,0,0,1,.3057.104l4.9258,3.6909A1,1,0,0,0,21,22.001V19.002h2.5a1.5016,1.5016,0,0,0,1.5-1.5v-16A1.5016,1.5016,0,0,0,23.5.002Zm.5,17.5a.5007.5007,0,0,1-.5.5H20.7a.7011.7011,0,0,0-.7.7l-.0029,3.2969-4.9258-3.6909a1.51,1.51,0,0,0-.9082-.3062H2.5a.5007.5007,0,0,1-.5-.5v-16a.5007.5007,0,0,1,.5-.5h21a.5007.5007,0,0,1,.5.5Z" style="fill:#8075f2"/><circle cx="8" cy="10.002" r="1" style="fill:#8075f2"/><circle cx="13" cy="10.002" r="1" style="fill:#8075f2"/><circle cx="18" cy="10.002" r="1" style="fill:#8075f2"/></g></svg>