<svg id="budicon-task-list" xmlns="http://www.w3.org/2000/svg" viewBox="0 0 25 25"><title>task-list</title><path d="M20.5,4H19V21.5a.5.5,0,0,1-.5.5H4v1.5a.5.5,0,0,0,.5.5h16a.5.5,0,0,0,.5-.5V4.5A.5.5,0,0,0,20.5,4Z" style="fill:#e8e5fe"/><path d="M7,4V3.5A.5.5,0,0,1,7.5,3H9V1.5A.5.5,0,0,1,9.5,1h6a.5.5,0,0,1,.5.5V3h1.5a.5.5,0,0,1,.5.5v1a.5.5,0,0,1-.5.5H7.5A.5.5,0,0,1,7,4.5Z" style="fill:#e8e5fe"/><path d="M20.5,3H18.9079A1.4976,1.4976,0,0,0,17.5,2H17V1.5A1.5,1.5,0,0,0,15.5,0h-6A1.5,1.5,0,0,0,8,1.5V2H7.5A1.498,1.498,0,0,0,6.092,3H4.5A1.5016,1.5016,0,0,0,3,4.5v19A1.5016,1.5016,0,0,0,4.5,25h16A1.5016,1.5016,0,0,0,22,23.5V4.5A1.5016,1.5016,0,0,0,20.5,3ZM7,4V3.5A.5.5,0,0,1,7.5,3H9V1.5A.5.5,0,0,1,9.5,1h6a.5.5,0,0,1,.5.5V3h1.5a.5.5,0,0,1,.5.5v1a.5.5,0,0,1-.5.5H7.5A.5.5,0,0,1,7,4.5ZM21,23.5a.5.5,0,0,1-.5.5H4.5a.5.5,0,0,1-.5-.5V4.5A.5.5,0,0,1,4.5,4H6v.5A1.5016,1.5016,0,0,0,7.5,6h10A1.5016,1.5016,0,0,0,19,4.5V4h1.5a.5.5,0,0,1,.5.5Z" style="fill:#8075f2"/><path d="M16.5,10h-6a.5.5,0,0,0,0,1h6a.5.5,0,0,0,0-1Z" style="fill:#8075f2"/><path d="M16.5,14h-6a.5.5,0,0,0,0,1h6a.5.5,0,0,0,0-1Z" style="fill:#8075f2"/><path d="M16.5,18h-6a.5.5,0,0,0,0,1h6a.5.5,0,0,0,0-1Z" style="fill:#8075f2"/><circle cx="8.5" cy="10.5" r="0.5" style="fill:#8075f2"/><circle cx="8.5" cy="14.5" r="0.5" style="fill:#8075f2"/><circle cx="8.5" cy="18.5" r="0.5" style="fill:#8075f2"/></svg>