<svg xmlns="http://www.w3.org/2000/svg" viewBox="0 0 25 25"><title>task-question</title><g id="budicon-task-question"><path d="M21.5,4H20V21.5a.5.5,0,0,1-.5.5H5v1.5a.5.5,0,0,0,.5.5h16a.5.5,0,0,0,.5-.5V4.5A.5.5,0,0,0,21.5,4Z" style="fill:#e8e5fe"/><path d="M8,4V3.5A.5.5,0,0,1,8.5,3H10V1.5a.5.5,0,0,1,.5-.5h6a.5.5,0,0,1,.5.5V3h1.5a.5.5,0,0,1,.5.5v1a.5.5,0,0,1-.5.5H8.5A.5.5,0,0,1,8,4.5Z" style="fill:#e8e5fe"/><path d="M20.5,3H18.908A1.4975,1.4975,0,0,0,17.5,2H17V1.5A1.5,1.5,0,0,0,15.5,0h-6A1.5,1.5,0,0,0,8,1.5V2H7.5A1.4975,1.4975,0,0,0,6.092,3H4.5A1.5016,1.5016,0,0,0,3,4.5v19A1.5016,1.5016,0,0,0,4.5,25h16A1.5016,1.5016,0,0,0,22,23.5V4.5A1.5016,1.5016,0,0,0,20.5,3ZM7,3.5A.5.5,0,0,1,7.5,3H9V1.5A.5.5,0,0,1,9.5,1h6a.5.5,0,0,1,.5.5V3h1.5a.5.5,0,0,1,.5.5v1a.5.5,0,0,1-.5.5H7.5A.5.5,0,0,1,7,4.5Zm14,20a.5.5,0,0,1-.5.5H4.5a.5.5,0,0,1-.5-.5V4.5A.5.5,0,0,1,4.5,4H6v.5A1.5016,1.5016,0,0,0,7.5,6h10A1.5016,1.5016,0,0,0,19,4.5V4h1.5a.5.5,0,0,1,.5.5Z" style="fill:#8075f2"/><path d="M12.5,9A3.5042,3.5042,0,0,0,9,12.5a.5.5,0,0,0,1,0,2.5,2.5,0,0,1,5,0v.5586a1.4977,1.4977,0,0,1-1.0254,1.4229l-.9492.3164A1.4977,1.4977,0,0,0,12,16.2207V17.5a.5.5,0,0,0,1,0V16.2207a.4967.4967,0,0,1,.3418-.4736l.9492-.3164A2.4984,2.4984,0,0,0,16,13.0586V12.5A3.5042,3.5042,0,0,0,12.5,9Z" style="fill:#8075f2"/><rect x="12" y="19" width="1" height="1" style="fill:#8075f2"/></g></svg>