<svg xmlns="http://www.w3.org/2000/svg" viewBox="0 0 25 25"><title>task-tick</title><g id="budicon-task-tick"><path d="M21.5,4H20V21.5a.5.5,0,0,1-.5.5H5v1.5a.5.5,0,0,0,.5.5h16a.5.5,0,0,0,.5-.5V4.5A.5.5,0,0,0,21.5,4Z" style="fill:#e8e5fe"/><path d="M8,4V3.5A.5.5,0,0,1,8.5,3H10V1.5a.5.5,0,0,1,.5-.5h6a.5.5,0,0,1,.5.5V3h1.5a.5.5,0,0,1,.5.5v1a.5.5,0,0,1-.5.5H8.5A.5.5,0,0,1,8,4.5Z" style="fill:#e8e5fe"/><path d="M21.5,3H19.908A1.4975,1.4975,0,0,0,18.5,2H18V1.5A1.5,1.5,0,0,0,16.5,0h-6A1.5,1.5,0,0,0,9,1.5V2H8.5A1.4975,1.4975,0,0,0,7.092,3H5.5A1.5016,1.5016,0,0,0,4,4.5v19A1.5016,1.5016,0,0,0,5.5,25h16A1.5016,1.5016,0,0,0,23,23.5V4.5A1.5016,1.5016,0,0,0,21.5,3ZM8,3.5A.5.5,0,0,1,8.5,3H10V1.5a.5.5,0,0,1,.5-.5h6a.5.5,0,0,1,.5.5V3h1.5a.5.5,0,0,1,.5.5v1a.5.5,0,0,1-.5.5H8.5A.5.5,0,0,1,8,4.5Zm14,20a.5.5,0,0,1-.5.5H5.5a.5.5,0,0,1-.5-.5V4.5A.5.5,0,0,1,5.5,4H7v.5A1.5016,1.5016,0,0,0,8.5,6h10A1.5016,1.5016,0,0,0,20,4.5V4h1.5a.5.5,0,0,1,.5.5Z" style="fill:#8075f2"/><path d="M17.1466,12.1465l-4.6772,4.6772L9.82,14.6157a.5.5,0,1,0-.6406.7686l3,2.5a.5.5,0,0,0,.6738-.0308l5-5a.5.5,0,0,0-.707-.707Z" style="fill:#8075f2"/></g></svg>