<svg xmlns="http://www.w3.org/2000/svg" viewBox="0 0 25 25"><title>user-card</title><g id="budicon-user-card"><polygon points="19 3 19 22 4 22 4 24 21 24 21 3 19 3" style="fill:#e8e5fe"/><path d="M21,2H4A1,1,0,0,0,3,3V24a1,1,0,0,0,1,1H21a1,1,0,0,0,1-1V3A1,1,0,0,0,21,2Zm0,22H4V3H21Z" style="fill:#8075f2"/><path d="M12.5,11A2.5,2.5,0,1,0,10,8.5,2.5,2.5,0,0,0,12.5,11Zm0-4A1.5,1.5,0,1,1,11,8.5,1.5017,1.5017,0,0,1,12.5,7Z" style="fill:#8075f2"/><path d="M16.95,17a4.44,4.44,0,0,0,.05-.5,4.5,4.5,0,0,0-9,0,4.44,4.44,0,0,0,.05.5ZM12.5,13a3.5056,3.5056,0,0,1,3.4644,3H9.0356A3.5055,3.5055,0,0,1,12.5,13Z" style="fill:#8075f2"/><path d="M8.5,20h8a.5.5,0,0,0,0-1h-8a.5.5,0,0,0,0,1Z" style="fill:#8075f2"/><path d="M9.5,1h6a.5.5,0,0,0,0-1h-6a.5.5,0,0,0,0,1Z" style="fill:#8075f2"/></g></svg>