<svg xmlns="http://www.w3.org/2000/svg" viewBox="0 0 25 25"><title>film-clip</title><g id="budicon-film-clip"><rect x="10" y="3" width="8" height="7" style="fill:#e8e5fe"/><rect x="10" y="15" width="8" height="7" style="fill:#e8e5fe"/><path d="M23.5,0H4.5A1.5016,1.5016,0,0,0,3,1.5v22A1.5016,1.5016,0,0,0,4.5,25h19A1.5016,1.5016,0,0,0,25,23.5V1.5A1.5016,1.5016,0,0,0,23.5,0ZM20,1V12H8V1ZM4,1.5A.5.5,0,0,1,4.5,1H7V4H4ZM4,5H7V8H4ZM4,9H7v3H4Zm0,4H7v3H4Zm0,4H7v3H4Zm.5,7a.5.5,0,0,1-.5-.5V21H7v3ZM8,24V13H20V24Zm16-.5a.5.5,0,0,1-.5.5H21V21h3ZM24,20H21V17h3Zm0-4H21V13h3Zm0-4H21V9h3Zm0-4H21V5h3Zm0-4H21V1h2.5a.5.5,0,0,1,.5.5Z" style="fill:#8075f2"/></g></svg>