<svg xmlns="http://www.w3.org/2000/svg" viewBox="0 0 25 25"><title>wallet</title><g id="budicon-wallet"><path d="M22,20.5557a.5.5,0,0,1-.5.5H2V22.5a.5.5,0,0,0,.5.5h21a.5.5,0,0,0,.5-.5V18H22Z" style="fill:#e8e5fe"/><path d="M4.5,2H22V4H6A2,2,0,0,0,4,6a1.9781,1.9781,0,0,0,.2644.9761A2.4933,2.4933,0,0,1,4.5,2Z" style="fill:#e8e5fe"/><path d="M23.5,8H22v5h2V8.5A.5.5,0,0,0,23.5,8Z" style="fill:#e8e5fe"/><path d="M23.5,7H23V2a1,1,0,0,0-1-1H4.5A3.5,3.5,0,0,0,1,4.5v18A1.5,1.5,0,0,0,2.5,24h21A1.5,1.5,0,0,0,25,22.5V8.5A1.5,1.5,0,0,0,23.5,7ZM5,6A1.0011,1.0011,0,0,1,6,5H22V7H6A1.0011,1.0011,0,0,1,5,6ZM4.5,2H22V4H6A2,2,0,0,0,4,6a1.9781,1.9781,0,0,0,.2644.9761A2.4933,2.4933,0,0,1,4.5,2ZM24,17H20V14h4Zm-4-4a1,1,0,0,0-1,1v3a1,1,0,0,0,1,1h4v4.5a.5.5,0,0,1-.5.5H2.5a.5.5,0,0,1-.5-.5V6.9443A3.4854,3.4854,0,0,0,4.5,8h19a.5.5,0,0,1,.5.5V13Z" style="fill:#8075f2"/></g></svg>